%TF.GenerationSoftware,KiCad,Pcbnew,7.0.1*%
%TF.CreationDate,2023-04-29T01:50:32-04:00*%
%TF.ProjectId,PowerSection,506f7765-7253-4656-9374-696f6e2e6b69,rev?*%
%TF.SameCoordinates,Original*%
%TF.FileFunction,Copper,L2,Bot*%
%TF.FilePolarity,Positive*%
%FSLAX46Y46*%
G04 Gerber Fmt 4.6, Leading zero omitted, Abs format (unit mm)*
G04 Created by KiCad (PCBNEW 7.0.1) date 2023-04-29 01:50:32*
%MOMM*%
%LPD*%
G01*
G04 APERTURE LIST*
G04 Aperture macros list*
%AMRoundRect*
0 Rectangle with rounded corners*
0 $1 Rounding radius*
0 $2 $3 $4 $5 $6 $7 $8 $9 X,Y pos of 4 corners*
0 Add a 4 corners polygon primitive as box body*
4,1,4,$2,$3,$4,$5,$6,$7,$8,$9,$2,$3,0*
0 Add four circle primitives for the rounded corners*
1,1,$1+$1,$2,$3*
1,1,$1+$1,$4,$5*
1,1,$1+$1,$6,$7*
1,1,$1+$1,$8,$9*
0 Add four rect primitives between the rounded corners*
20,1,$1+$1,$2,$3,$4,$5,0*
20,1,$1+$1,$4,$5,$6,$7,0*
20,1,$1+$1,$6,$7,$8,$9,0*
20,1,$1+$1,$8,$9,$2,$3,0*%
G04 Aperture macros list end*
%TA.AperFunction,ComponentPad*%
%ADD10C,0.800000*%
%TD*%
%TA.AperFunction,ComponentPad*%
%ADD11C,6.400000*%
%TD*%
%TA.AperFunction,ComponentPad*%
%ADD12R,4.600000X2.000000*%
%TD*%
%TA.AperFunction,ComponentPad*%
%ADD13O,4.200000X2.000000*%
%TD*%
%TA.AperFunction,ComponentPad*%
%ADD14O,2.000000X4.200000*%
%TD*%
%TA.AperFunction,ComponentPad*%
%ADD15RoundRect,0.250000X-0.725000X0.600000X-0.725000X-0.600000X0.725000X-0.600000X0.725000X0.600000X0*%
%TD*%
%TA.AperFunction,ComponentPad*%
%ADD16O,1.950000X1.700000*%
%TD*%
%TA.AperFunction,ComponentPad*%
%ADD17R,1.700000X1.700000*%
%TD*%
%TA.AperFunction,ComponentPad*%
%ADD18O,1.700000X1.700000*%
%TD*%
%TA.AperFunction,ViaPad*%
%ADD19C,0.800000*%
%TD*%
%TA.AperFunction,Conductor*%
%ADD20C,0.200000*%
%TD*%
G04 APERTURE END LIST*
D10*
%TO.P,H2,1,1*%
%TO.N,GND*%
X99100000Y-49500000D03*
X99802944Y-47802944D03*
X99802944Y-51197056D03*
X101500000Y-47100000D03*
D11*
X101500000Y-49500000D03*
D10*
X101500000Y-51900000D03*
X103197056Y-47802944D03*
X103197056Y-51197056D03*
X103900000Y-49500000D03*
%TD*%
D12*
%TO.P,12V1,1*%
%TO.N,12-20V*%
X117856000Y-97790000D03*
D13*
%TO.P,12V1,2*%
%TO.N,GND*%
X117856000Y-104090000D03*
D14*
%TO.P,12V1,3*%
X122656000Y-100690000D03*
%TD*%
D10*
%TO.P,H3,1,1*%
%TO.N,Htr+*%
X163100000Y-56500000D03*
X163802944Y-54802944D03*
X163802944Y-58197056D03*
X165500000Y-54100000D03*
D11*
X165500000Y-56500000D03*
D10*
X165500000Y-58900000D03*
X167197056Y-54802944D03*
X167197056Y-58197056D03*
X167900000Y-56500000D03*
%TD*%
D15*
%TO.P,J1,1,Pin_1*%
%TO.N,PWM*%
X165990000Y-79328000D03*
D16*
%TO.P,J1,2,Pin_2*%
%TO.N,Vin*%
X165990000Y-81828000D03*
%TO.P,J1,3,Pin_3*%
%TO.N,Vihi*%
X165990000Y-84328000D03*
%TO.P,J1,4,Pin_4*%
%TO.N,Vilo*%
X165990000Y-86828000D03*
%TO.P,J1,5,Pin_5*%
%TO.N,GND*%
X165990000Y-89328000D03*
%TD*%
D17*
%TO.P,J2,1,Pin_1*%
%TO.N,VS*%
X138430000Y-47752000D03*
D18*
%TO.P,J2,2,Pin_2*%
%TO.N,GND*%
X140970000Y-47752000D03*
%TD*%
D10*
%TO.P,H1,1,1*%
%TO.N,12-20V*%
X99100000Y-105500000D03*
X99802944Y-103802944D03*
X99802944Y-107197056D03*
X101500000Y-103100000D03*
D11*
X101500000Y-105500000D03*
D10*
X101500000Y-107900000D03*
X103197056Y-103802944D03*
X103197056Y-107197056D03*
X103900000Y-105500000D03*
%TD*%
%TO.P,H4,1,1*%
%TO.N,Pshunt+*%
X163100000Y-98500000D03*
X163802944Y-96802944D03*
X163802944Y-100197056D03*
X165500000Y-96100000D03*
D11*
X165500000Y-98500000D03*
D10*
X165500000Y-100900000D03*
X167197056Y-96802944D03*
X167197056Y-100197056D03*
X167900000Y-98500000D03*
%TD*%
D19*
%TO.N,GND*%
X101600000Y-69850000D03*
X102870000Y-71120000D03*
X130810000Y-106680000D03*
X99060000Y-71120000D03*
X129540000Y-106680000D03*
X151994000Y-88392000D03*
X127000000Y-104140000D03*
X124460000Y-106680000D03*
X99060000Y-69850000D03*
X102870000Y-69850000D03*
X147000000Y-85098000D03*
X100330000Y-69850000D03*
X104140000Y-69850000D03*
X116210000Y-87313000D03*
X127000000Y-101600000D03*
X127000000Y-106680000D03*
X99060000Y-77470000D03*
X127000000Y-102870000D03*
X127000000Y-105410000D03*
X100330000Y-77470000D03*
X100330000Y-71120000D03*
X125730000Y-106680000D03*
X128270000Y-106680000D03*
X101600000Y-77470000D03*
X104140000Y-71120000D03*
X101600000Y-71120000D03*
%TO.N,Vshunt-*%
X148718000Y-88392000D03*
X145950000Y-87500000D03*
X146212000Y-98500000D03*
X146212000Y-91500000D03*
X146212000Y-105500000D03*
%TD*%
D20*
%TO.N,Vshunt-*%
X145950000Y-87702000D02*
X147044000Y-88796000D01*
X147448000Y-88392000D02*
X148718000Y-88392000D01*
X146212000Y-91500000D02*
X147044000Y-91500000D01*
X145950000Y-87500000D02*
X145950000Y-87702000D01*
X147044000Y-91500000D02*
X147044000Y-88796000D01*
X146212000Y-105500000D02*
X147044000Y-105500000D01*
X147044000Y-98500000D02*
X147044000Y-91500000D01*
X147044000Y-105500000D02*
X147044000Y-98500000D01*
X147044000Y-88796000D02*
X147448000Y-88392000D01*
X146212000Y-98500000D02*
X147044000Y-98500000D01*
%TD*%
%TA.AperFunction,Conductor*%
%TO.N,GND*%
G36*
X165503032Y-46000649D02*
G01*
X165507592Y-46000873D01*
X165652569Y-46007995D01*
X165811947Y-46016347D01*
X165815058Y-46016551D01*
X165858915Y-46020003D01*
X165867308Y-46020955D01*
X166021398Y-46043812D01*
X166022030Y-46043909D01*
X166174386Y-46068040D01*
X166177451Y-46068567D01*
X166206597Y-46073968D01*
X166214073Y-46075595D01*
X166371300Y-46114979D01*
X166373114Y-46115449D01*
X166529414Y-46157330D01*
X166532483Y-46158196D01*
X166546364Y-46162307D01*
X166552888Y-46164439D01*
X166710563Y-46220856D01*
X166713174Y-46221824D01*
X166872086Y-46282825D01*
X166880642Y-46286484D01*
X167036896Y-46360386D01*
X167040035Y-46361928D01*
X167191118Y-46438909D01*
X167198540Y-46443019D01*
X167283013Y-46493650D01*
X167347036Y-46532024D01*
X167350823Y-46534387D01*
X167492654Y-46626494D01*
X167498984Y-46630891D01*
X167638207Y-46734145D01*
X167642376Y-46737377D01*
X167773632Y-46843665D01*
X167778866Y-46848149D01*
X167839574Y-46903172D01*
X167907388Y-46964635D01*
X167911796Y-46968832D01*
X168031166Y-47088202D01*
X168035363Y-47092610D01*
X168151845Y-47221128D01*
X168156333Y-47226366D01*
X168262621Y-47357622D01*
X168265853Y-47361791D01*
X168369107Y-47501014D01*
X168373504Y-47507344D01*
X168465611Y-47649175D01*
X168467974Y-47652962D01*
X168556971Y-47801443D01*
X168561098Y-47808897D01*
X168638036Y-47959895D01*
X168639646Y-47963174D01*
X168713510Y-48119348D01*
X168717179Y-48127926D01*
X168778165Y-48286800D01*
X168779152Y-48289463D01*
X168835552Y-48447088D01*
X168837696Y-48453649D01*
X168841799Y-48467502D01*
X168842679Y-48470622D01*
X168884530Y-48626811D01*
X168885039Y-48628775D01*
X168924396Y-48785896D01*
X168926036Y-48793431D01*
X168931421Y-48822489D01*
X168931970Y-48825686D01*
X168956040Y-48977656D01*
X168956225Y-48978859D01*
X168979039Y-49132654D01*
X168979999Y-49141120D01*
X168983443Y-49184882D01*
X168983655Y-49188122D01*
X168991984Y-49347058D01*
X168991881Y-49347063D01*
X168992006Y-49347462D01*
X168999351Y-49496967D01*
X168999500Y-49503052D01*
X168999500Y-54682986D01*
X168982232Y-54746107D01*
X168935238Y-54791648D01*
X168871605Y-54806925D01*
X168809058Y-54787683D01*
X168765015Y-54739281D01*
X168716060Y-54643201D01*
X168504359Y-54317210D01*
X168504357Y-54317207D01*
X168259734Y-54015124D01*
X167984876Y-53740266D01*
X167682793Y-53495643D01*
X167682791Y-53495642D01*
X167682789Y-53495640D01*
X167356799Y-53283939D01*
X167010452Y-53107467D01*
X166647563Y-52968167D01*
X166272093Y-52867560D01*
X165888177Y-52806753D01*
X165518412Y-52787375D01*
X165500000Y-52786411D01*
X165499999Y-52786411D01*
X165111822Y-52806753D01*
X164727906Y-52867560D01*
X164352436Y-52968167D01*
X163989547Y-53107467D01*
X163643201Y-53283939D01*
X163317210Y-53495640D01*
X163015121Y-53740268D01*
X162740268Y-54015121D01*
X162495640Y-54317210D01*
X162283939Y-54643201D01*
X162107467Y-54989547D01*
X161968167Y-55352436D01*
X161867560Y-55727906D01*
X161806753Y-56111822D01*
X161786411Y-56500000D01*
X161806753Y-56888177D01*
X161867560Y-57272093D01*
X161968167Y-57647563D01*
X162107467Y-58010452D01*
X162283939Y-58356799D01*
X162495640Y-58682789D01*
X162495643Y-58682793D01*
X162740266Y-58984876D01*
X163015124Y-59259734D01*
X163317207Y-59504357D01*
X163317209Y-59504358D01*
X163317210Y-59504359D01*
X163643200Y-59716060D01*
X163989547Y-59892532D01*
X164352438Y-60031833D01*
X164727901Y-60132438D01*
X164727904Y-60132438D01*
X164727906Y-60132439D01*
X165111822Y-60193246D01*
X165148648Y-60195175D01*
X165500000Y-60213589D01*
X165868846Y-60194258D01*
X165888177Y-60193246D01*
X166272093Y-60132439D01*
X166272093Y-60132438D01*
X166272099Y-60132438D01*
X166647562Y-60031833D01*
X167010453Y-59892532D01*
X167356795Y-59716062D01*
X167356794Y-59716062D01*
X167356799Y-59716060D01*
X167519794Y-59610209D01*
X167682793Y-59504357D01*
X167984876Y-59259734D01*
X168259734Y-58984876D01*
X168504357Y-58682793D01*
X168716062Y-58356795D01*
X168765015Y-58260718D01*
X168809057Y-58212317D01*
X168871605Y-58193075D01*
X168935237Y-58208352D01*
X168982232Y-58253893D01*
X168999500Y-58317014D01*
X168999500Y-96682986D01*
X168982232Y-96746107D01*
X168935238Y-96791648D01*
X168871605Y-96806925D01*
X168809058Y-96787683D01*
X168765015Y-96739281D01*
X168716060Y-96643201D01*
X168504359Y-96317210D01*
X168480714Y-96288011D01*
X168259734Y-96015124D01*
X167984876Y-95740266D01*
X167682793Y-95495643D01*
X167682791Y-95495642D01*
X167682789Y-95495640D01*
X167356799Y-95283939D01*
X167010452Y-95107467D01*
X166647563Y-94968167D01*
X166272093Y-94867560D01*
X165888177Y-94806753D01*
X165500000Y-94786411D01*
X165111822Y-94806753D01*
X164727906Y-94867560D01*
X164352436Y-94968167D01*
X163989547Y-95107467D01*
X163643201Y-95283939D01*
X163317210Y-95495640D01*
X163015121Y-95740268D01*
X162740268Y-96015121D01*
X162495640Y-96317210D01*
X162283939Y-96643201D01*
X162107467Y-96989547D01*
X161968167Y-97352436D01*
X161867560Y-97727906D01*
X161806753Y-98111822D01*
X161786411Y-98500000D01*
X161806753Y-98888177D01*
X161867560Y-99272093D01*
X161968167Y-99647563D01*
X162107467Y-100010452D01*
X162283939Y-100356799D01*
X162495640Y-100682789D01*
X162495643Y-100682793D01*
X162740266Y-100984876D01*
X163015124Y-101259734D01*
X163317207Y-101504357D01*
X163317209Y-101504358D01*
X163317210Y-101504359D01*
X163643200Y-101716060D01*
X163989547Y-101892532D01*
X164352438Y-102031833D01*
X164727901Y-102132438D01*
X164727904Y-102132438D01*
X164727906Y-102132439D01*
X165111822Y-102193246D01*
X165148648Y-102195175D01*
X165500000Y-102213589D01*
X165868846Y-102194258D01*
X165888177Y-102193246D01*
X166272093Y-102132439D01*
X166272093Y-102132438D01*
X166272099Y-102132438D01*
X166647562Y-102031833D01*
X167010453Y-101892532D01*
X167356795Y-101716062D01*
X167356794Y-101716062D01*
X167356799Y-101716060D01*
X167519793Y-101610209D01*
X167682793Y-101504357D01*
X167984876Y-101259734D01*
X168259734Y-100984876D01*
X168504357Y-100682793D01*
X168716062Y-100356795D01*
X168765015Y-100260718D01*
X168809057Y-100212317D01*
X168871605Y-100193075D01*
X168935237Y-100208352D01*
X168982232Y-100253893D01*
X168999500Y-100317014D01*
X168999500Y-105496948D01*
X168999351Y-105503033D01*
X168992008Y-105652484D01*
X168991987Y-105652889D01*
X168983655Y-105811875D01*
X168983443Y-105815113D01*
X168979999Y-105858878D01*
X168979039Y-105867345D01*
X168956225Y-106021139D01*
X168956040Y-106022342D01*
X168931971Y-106174306D01*
X168931422Y-106177501D01*
X168926036Y-106206567D01*
X168924396Y-106214104D01*
X168885035Y-106371239D01*
X168884526Y-106373203D01*
X168842678Y-106529382D01*
X168841797Y-106532504D01*
X168837698Y-106546343D01*
X168835555Y-106552902D01*
X168779147Y-106710550D01*
X168778160Y-106713213D01*
X168717183Y-106872064D01*
X168713514Y-106880642D01*
X168639646Y-107036824D01*
X168638036Y-107040103D01*
X168561098Y-107191101D01*
X168556971Y-107198555D01*
X168467974Y-107347036D01*
X168465611Y-107350823D01*
X168373504Y-107492654D01*
X168369107Y-107498984D01*
X168265853Y-107638207D01*
X168262621Y-107642376D01*
X168156333Y-107773632D01*
X168151845Y-107778870D01*
X168035363Y-107907388D01*
X168031166Y-107911796D01*
X167911796Y-108031166D01*
X167907388Y-108035363D01*
X167778870Y-108151845D01*
X167773632Y-108156333D01*
X167642376Y-108262621D01*
X167638207Y-108265853D01*
X167498984Y-108369107D01*
X167492654Y-108373504D01*
X167350823Y-108465611D01*
X167347036Y-108467974D01*
X167198555Y-108556971D01*
X167191101Y-108561098D01*
X167040103Y-108638036D01*
X167036824Y-108639646D01*
X166880642Y-108713514D01*
X166872064Y-108717183D01*
X166713213Y-108778160D01*
X166710550Y-108779147D01*
X166552902Y-108835555D01*
X166546343Y-108837698D01*
X166532504Y-108841797D01*
X166529382Y-108842678D01*
X166373203Y-108884526D01*
X166371239Y-108885035D01*
X166214104Y-108924396D01*
X166206567Y-108926036D01*
X166177501Y-108931422D01*
X166174306Y-108931971D01*
X166022342Y-108956040D01*
X166021139Y-108956225D01*
X165867345Y-108979039D01*
X165858878Y-108979999D01*
X165815113Y-108983443D01*
X165811875Y-108983655D01*
X165652889Y-108991987D01*
X165652484Y-108992008D01*
X165503033Y-108999351D01*
X165496948Y-108999500D01*
X103317014Y-108999500D01*
X103253893Y-108982232D01*
X103208352Y-108935237D01*
X103193075Y-108871605D01*
X103212317Y-108809057D01*
X103260719Y-108765015D01*
X103356795Y-108716062D01*
X103682793Y-108504357D01*
X103984876Y-108259734D01*
X104259734Y-107984876D01*
X104504357Y-107682793D01*
X104659289Y-107444218D01*
X104716060Y-107356799D01*
X104821606Y-107149653D01*
X104892532Y-107010453D01*
X105031833Y-106647562D01*
X105132438Y-106272099D01*
X105158350Y-106108500D01*
X105193246Y-105888177D01*
X105197245Y-105811875D01*
X105213589Y-105500000D01*
X105193246Y-105111824D01*
X105169683Y-104963056D01*
X105132439Y-104727906D01*
X105127342Y-104708882D01*
X105031833Y-104352438D01*
X104892532Y-103989547D01*
X104736331Y-103682986D01*
X104716060Y-103643201D01*
X104504359Y-103317210D01*
X104504357Y-103317207D01*
X104259734Y-103015124D01*
X103984876Y-102740266D01*
X103682793Y-102495643D01*
X103682791Y-102495642D01*
X103682789Y-102495640D01*
X103356799Y-102283939D01*
X103010452Y-102107467D01*
X102647563Y-101968167D01*
X102272093Y-101867560D01*
X101888177Y-101806753D01*
X101500000Y-101786411D01*
X101111822Y-101806753D01*
X100727906Y-101867560D01*
X100352436Y-101968167D01*
X99989547Y-102107467D01*
X99643201Y-102283939D01*
X99317210Y-102495640D01*
X99015121Y-102740268D01*
X98740268Y-103015121D01*
X98495640Y-103317210D01*
X98283939Y-103643201D01*
X98234985Y-103739281D01*
X98190942Y-103787683D01*
X98128395Y-103806925D01*
X98064762Y-103791648D01*
X98017768Y-103746107D01*
X98000500Y-103682986D01*
X98000500Y-98838634D01*
X115047500Y-98838634D01*
X115054011Y-98899205D01*
X115105110Y-99036203D01*
X115192738Y-99153261D01*
X115309796Y-99240889D01*
X115446794Y-99291988D01*
X115446797Y-99291988D01*
X115446799Y-99291989D01*
X115507362Y-99298500D01*
X120204634Y-99298500D01*
X120204638Y-99298500D01*
X120265201Y-99291989D01*
X120265203Y-99291988D01*
X120265205Y-99291988D01*
X120343124Y-99262924D01*
X120402204Y-99240889D01*
X120519261Y-99153261D01*
X120606889Y-99036204D01*
X120657989Y-98899201D01*
X120664500Y-98838638D01*
X120664500Y-96741362D01*
X120657989Y-96680799D01*
X120657988Y-96680797D01*
X120657988Y-96680794D01*
X120606889Y-96543796D01*
X120519261Y-96426738D01*
X120402203Y-96339110D01*
X120265205Y-96288011D01*
X120234919Y-96284755D01*
X120204638Y-96281500D01*
X115507362Y-96281500D01*
X115480445Y-96284393D01*
X115446794Y-96288011D01*
X115309796Y-96339110D01*
X115192738Y-96426738D01*
X115105110Y-96543796D01*
X115054011Y-96680794D01*
X115047500Y-96741366D01*
X115047500Y-98838634D01*
X98000500Y-98838634D01*
X98000500Y-87500000D01*
X145036496Y-87500000D01*
X145056458Y-87689929D01*
X145115472Y-87871556D01*
X145210957Y-88036941D01*
X145210960Y-88036944D01*
X145338747Y-88178866D01*
X145493248Y-88291118D01*
X145667712Y-88368794D01*
X145744220Y-88385056D01*
X145777601Y-88397371D01*
X145806115Y-88418664D01*
X146399181Y-89011730D01*
X146426061Y-89051958D01*
X146435500Y-89099411D01*
X146435500Y-90467500D01*
X146418887Y-90529500D01*
X146373500Y-90574887D01*
X146311500Y-90591500D01*
X146116511Y-90591500D01*
X145929714Y-90631204D01*
X145755248Y-90708881D01*
X145600748Y-90821133D01*
X145472957Y-90963058D01*
X145377472Y-91128443D01*
X145318458Y-91310070D01*
X145298496Y-91499999D01*
X145318458Y-91689929D01*
X145377472Y-91871556D01*
X145472957Y-92036941D01*
X145472960Y-92036944D01*
X145600747Y-92178866D01*
X145755247Y-92291117D01*
X145755248Y-92291118D01*
X145929714Y-92368795D01*
X146116511Y-92408500D01*
X146311500Y-92408500D01*
X146373500Y-92425113D01*
X146418887Y-92470500D01*
X146435500Y-92532500D01*
X146435500Y-97467500D01*
X146418887Y-97529500D01*
X146373500Y-97574887D01*
X146311500Y-97591500D01*
X146116511Y-97591500D01*
X145929714Y-97631204D01*
X145755248Y-97708881D01*
X145600748Y-97821133D01*
X145472957Y-97963058D01*
X145377472Y-98128443D01*
X145318458Y-98310070D01*
X145298496Y-98500000D01*
X145318458Y-98689929D01*
X145377472Y-98871556D01*
X145472957Y-99036941D01*
X145472960Y-99036944D01*
X145600747Y-99178866D01*
X145729071Y-99272099D01*
X145755248Y-99291118D01*
X145929714Y-99368795D01*
X146116511Y-99408500D01*
X146311500Y-99408500D01*
X146373500Y-99425113D01*
X146418887Y-99470500D01*
X146435500Y-99532500D01*
X146435500Y-104467500D01*
X146418887Y-104529500D01*
X146373500Y-104574887D01*
X146311500Y-104591500D01*
X146116511Y-104591500D01*
X145929714Y-104631204D01*
X145755248Y-104708881D01*
X145600748Y-104821133D01*
X145472957Y-104963058D01*
X145377472Y-105128443D01*
X145318458Y-105310070D01*
X145298496Y-105499999D01*
X145318458Y-105689929D01*
X145377472Y-105871556D01*
X145472957Y-106036941D01*
X145472960Y-106036944D01*
X145600747Y-106178866D01*
X145729071Y-106272099D01*
X145755248Y-106291118D01*
X145929714Y-106368795D01*
X146116511Y-106408500D01*
X146116513Y-106408500D01*
X146307487Y-106408500D01*
X146307489Y-106408500D01*
X146494285Y-106368795D01*
X146494286Y-106368794D01*
X146494288Y-106368794D01*
X146668752Y-106291118D01*
X146823253Y-106178866D01*
X146849669Y-106149527D01*
X146891383Y-106119220D01*
X146941819Y-106108500D01*
X146995989Y-106108500D01*
X147012173Y-106109560D01*
X147044000Y-106113751D01*
X147202850Y-106092838D01*
X147350875Y-106031524D01*
X147477987Y-105933987D01*
X147518007Y-105881832D01*
X147575524Y-105806876D01*
X147636838Y-105658850D01*
X147657751Y-105500000D01*
X147653560Y-105468173D01*
X147652500Y-105451989D01*
X147652500Y-98548011D01*
X147653561Y-98531825D01*
X147657751Y-98500000D01*
X147653560Y-98468173D01*
X147652500Y-98451989D01*
X147652500Y-91548011D01*
X147653561Y-91531825D01*
X147657751Y-91500000D01*
X147653560Y-91468173D01*
X147652500Y-91451989D01*
X147652500Y-89124500D01*
X147669113Y-89062500D01*
X147714500Y-89017113D01*
X147776500Y-89000500D01*
X147988181Y-89000500D01*
X148038617Y-89011220D01*
X148080330Y-89041527D01*
X148089722Y-89051958D01*
X148106746Y-89070865D01*
X148261248Y-89183118D01*
X148435714Y-89260795D01*
X148622511Y-89300500D01*
X148622513Y-89300500D01*
X148813487Y-89300500D01*
X148813489Y-89300500D01*
X149000285Y-89260795D01*
X149000286Y-89260794D01*
X149000288Y-89260794D01*
X149174752Y-89183118D01*
X149329253Y-89070866D01*
X149457040Y-88928944D01*
X149552527Y-88763556D01*
X149611542Y-88581928D01*
X149631504Y-88392000D01*
X149611542Y-88202072D01*
X149557888Y-88036944D01*
X149552527Y-88020443D01*
X149457042Y-87855058D01*
X149406713Y-87799162D01*
X149329253Y-87713134D01*
X149232901Y-87643130D01*
X149174751Y-87600881D01*
X149000285Y-87523204D01*
X148813489Y-87483500D01*
X148813487Y-87483500D01*
X148622513Y-87483500D01*
X148622511Y-87483500D01*
X148435714Y-87523204D01*
X148261248Y-87600881D01*
X148106746Y-87713134D01*
X148080331Y-87742472D01*
X148038617Y-87772780D01*
X147988181Y-87783500D01*
X147496004Y-87783500D01*
X147479819Y-87782439D01*
X147476629Y-87782019D01*
X147448000Y-87778249D01*
X147419370Y-87782019D01*
X147416180Y-87782439D01*
X147416166Y-87782440D01*
X147289150Y-87799162D01*
X147141122Y-87860477D01*
X147130013Y-87869001D01*
X147076060Y-87892738D01*
X147017242Y-87888881D01*
X146966851Y-87858302D01*
X146881077Y-87772528D01*
X146851870Y-87726239D01*
X146845437Y-87671891D01*
X146863504Y-87500000D01*
X146843542Y-87310072D01*
X146784527Y-87128444D01*
X146784527Y-87128443D01*
X146689042Y-86963058D01*
X146669442Y-86941291D01*
X146561253Y-86821134D01*
X146491062Y-86770137D01*
X164502816Y-86770137D01*
X164512630Y-87001175D01*
X164561351Y-87227240D01*
X164594636Y-87310072D01*
X164647574Y-87441813D01*
X164745517Y-87600882D01*
X164768822Y-87638731D01*
X164848066Y-87728771D01*
X164921602Y-87812324D01*
X165073778Y-87935197D01*
X165101524Y-87957600D01*
X165303408Y-88070380D01*
X165521452Y-88147420D01*
X165749372Y-88186500D01*
X165749375Y-88186500D01*
X166172713Y-88186500D01*
X166172716Y-88186500D01*
X166262408Y-88178866D01*
X166345418Y-88171801D01*
X166569207Y-88113530D01*
X166779929Y-88018278D01*
X166971523Y-87888783D01*
X167138476Y-87728772D01*
X167275985Y-87542847D01*
X167380095Y-87336357D01*
X167447811Y-87115243D01*
X167477184Y-86885865D01*
X167467369Y-86654822D01*
X167418649Y-86428762D01*
X167332426Y-86214187D01*
X167211179Y-86017270D01*
X167058398Y-85843676D01*
X166963704Y-85767216D01*
X166878473Y-85698397D01*
X166854432Y-85684967D01*
X166809317Y-85641727D01*
X166791019Y-85581976D01*
X166804185Y-85520888D01*
X166845468Y-85473981D01*
X166971523Y-85388783D01*
X167138476Y-85228772D01*
X167275985Y-85042847D01*
X167380095Y-84836357D01*
X167447811Y-84615243D01*
X167477184Y-84385865D01*
X167467369Y-84154822D01*
X167418649Y-83928762D01*
X167332426Y-83714187D01*
X167211179Y-83517270D01*
X167058398Y-83343676D01*
X166963704Y-83267216D01*
X166878473Y-83198397D01*
X166854432Y-83184967D01*
X166809317Y-83141727D01*
X166791019Y-83081976D01*
X166804185Y-83020888D01*
X166845468Y-82973981D01*
X166971523Y-82888783D01*
X167138476Y-82728772D01*
X167275985Y-82542847D01*
X167380095Y-82336357D01*
X167447811Y-82115243D01*
X167477184Y-81885865D01*
X167467369Y-81654822D01*
X167418649Y-81428762D01*
X167332426Y-81214187D01*
X167211179Y-81017270D01*
X167058398Y-80843676D01*
X167028777Y-80819759D01*
X166993159Y-80773179D01*
X166982925Y-80715440D01*
X167000366Y-80659455D01*
X167041579Y-80617745D01*
X167188652Y-80527030D01*
X167314030Y-80401652D01*
X167407115Y-80250738D01*
X167462887Y-80082426D01*
X167473500Y-79978545D01*
X167473499Y-78677456D01*
X167462887Y-78573574D01*
X167407115Y-78405262D01*
X167314030Y-78254348D01*
X167314029Y-78254347D01*
X167314028Y-78254345D01*
X167188654Y-78128971D01*
X167037736Y-78035884D01*
X166869426Y-77980112D01*
X166775173Y-77970483D01*
X166765544Y-77969500D01*
X165214455Y-77969500D01*
X165110574Y-77980112D01*
X164942263Y-78035884D01*
X164791345Y-78128971D01*
X164665971Y-78254345D01*
X164572884Y-78405263D01*
X164517112Y-78573573D01*
X164506500Y-78677455D01*
X164506500Y-79978544D01*
X164517112Y-80082425D01*
X164572884Y-80250736D01*
X164665971Y-80401654D01*
X164791346Y-80527029D01*
X164791348Y-80527030D01*
X164939508Y-80618416D01*
X164979342Y-80657883D01*
X164997717Y-80710865D01*
X164990874Y-80766523D01*
X164960211Y-80813475D01*
X164841524Y-80927227D01*
X164704015Y-81113152D01*
X164599905Y-81319642D01*
X164532189Y-81540756D01*
X164502816Y-81770137D01*
X164512630Y-82001175D01*
X164561351Y-82227240D01*
X164605198Y-82336357D01*
X164647574Y-82441813D01*
X164768821Y-82638730D01*
X164768822Y-82638731D01*
X164921600Y-82812322D01*
X165101524Y-82957600D01*
X165125566Y-82971031D01*
X165170682Y-83014271D01*
X165188980Y-83074022D01*
X165175815Y-83135110D01*
X165134529Y-83182020D01*
X165008477Y-83267216D01*
X164841523Y-83427228D01*
X164704015Y-83613152D01*
X164599905Y-83819642D01*
X164532189Y-84040756D01*
X164502816Y-84270137D01*
X164512630Y-84501175D01*
X164561351Y-84727240D01*
X164605198Y-84836357D01*
X164647574Y-84941813D01*
X164768821Y-85138730D01*
X164768822Y-85138731D01*
X164921600Y-85312322D01*
X165101524Y-85457600D01*
X165125566Y-85471031D01*
X165170682Y-85514271D01*
X165188980Y-85574022D01*
X165175815Y-85635110D01*
X165134529Y-85682020D01*
X165008477Y-85767216D01*
X164841523Y-85927228D01*
X164704015Y-86113152D01*
X164599905Y-86319642D01*
X164532189Y-86540756D01*
X164502816Y-86770137D01*
X146491062Y-86770137D01*
X146406752Y-86708882D01*
X146406751Y-86708881D01*
X146232285Y-86631204D01*
X146045489Y-86591500D01*
X146045487Y-86591500D01*
X145854513Y-86591500D01*
X145854511Y-86591500D01*
X145667714Y-86631204D01*
X145493248Y-86708881D01*
X145338748Y-86821133D01*
X145210957Y-86963058D01*
X145115472Y-87128443D01*
X145056458Y-87310070D01*
X145036496Y-87500000D01*
X98000500Y-87500000D01*
X98000500Y-49503051D01*
X98000649Y-49496967D01*
X98008004Y-49347238D01*
X98016348Y-49188047D01*
X98016551Y-49184946D01*
X98020003Y-49141078D01*
X98020954Y-49132698D01*
X98043819Y-48978550D01*
X98043896Y-48978054D01*
X98068031Y-48825674D01*
X98068576Y-48822503D01*
X98069580Y-48817083D01*
X98073969Y-48793396D01*
X98075593Y-48785934D01*
X98109484Y-48650634D01*
X137071500Y-48650634D01*
X137078011Y-48711205D01*
X137129110Y-48848203D01*
X137216738Y-48965261D01*
X137333796Y-49052889D01*
X137470794Y-49103988D01*
X137470797Y-49103988D01*
X137470799Y-49103989D01*
X137531362Y-49110500D01*
X139328634Y-49110500D01*
X139328638Y-49110500D01*
X139389201Y-49103989D01*
X139389203Y-49103988D01*
X139389205Y-49103988D01*
X139467124Y-49074924D01*
X139526204Y-49052889D01*
X139643261Y-48965261D01*
X139730889Y-48848204D01*
X139781989Y-48711201D01*
X139788500Y-48650638D01*
X139788500Y-46853362D01*
X139781989Y-46792799D01*
X139781988Y-46792797D01*
X139781988Y-46792794D01*
X139730889Y-46655796D01*
X139643261Y-46538738D01*
X139526203Y-46451110D01*
X139389205Y-46400011D01*
X139358919Y-46396755D01*
X139328638Y-46393500D01*
X137531362Y-46393500D01*
X137504445Y-46396393D01*
X137470794Y-46400011D01*
X137333796Y-46451110D01*
X137216738Y-46538738D01*
X137129110Y-46655796D01*
X137078011Y-46792794D01*
X137071500Y-46853366D01*
X137071500Y-48650634D01*
X98109484Y-48650634D01*
X98114995Y-48628635D01*
X98115433Y-48626944D01*
X98157336Y-48470562D01*
X98158198Y-48467509D01*
X98158200Y-48467502D01*
X98162313Y-48453614D01*
X98164428Y-48447141D01*
X98220878Y-48289376D01*
X98221802Y-48286881D01*
X98282830Y-48127900D01*
X98286482Y-48119360D01*
X98360400Y-47963074D01*
X98361901Y-47960017D01*
X98438922Y-47808856D01*
X98443004Y-47801483D01*
X98532041Y-47652933D01*
X98534369Y-47649203D01*
X98626501Y-47507333D01*
X98630891Y-47501014D01*
X98696730Y-47412240D01*
X98734163Y-47361767D01*
X98737363Y-47357639D01*
X98843682Y-47226345D01*
X98848118Y-47221168D01*
X98964675Y-47092567D01*
X98968792Y-47088243D01*
X99088243Y-46968792D01*
X99092567Y-46964675D01*
X99221168Y-46848118D01*
X99226345Y-46843682D01*
X99357639Y-46737363D01*
X99361767Y-46734163D01*
X99501014Y-46630891D01*
X99507333Y-46626501D01*
X99649203Y-46534369D01*
X99652933Y-46532041D01*
X99801483Y-46443004D01*
X99808856Y-46438922D01*
X99960017Y-46361901D01*
X99963074Y-46360400D01*
X100119360Y-46286482D01*
X100127900Y-46282830D01*
X100286881Y-46221802D01*
X100289376Y-46220878D01*
X100447141Y-46164428D01*
X100453614Y-46162313D01*
X100467530Y-46158191D01*
X100470562Y-46157336D01*
X100626944Y-46115433D01*
X100628635Y-46114995D01*
X100785934Y-46075593D01*
X100793396Y-46073969D01*
X100817083Y-46069580D01*
X100822503Y-46068576D01*
X100825674Y-46068031D01*
X100978054Y-46043896D01*
X100978550Y-46043819D01*
X101132698Y-46020954D01*
X101141078Y-46020003D01*
X101184946Y-46016551D01*
X101188047Y-46016348D01*
X101347285Y-46008002D01*
X101493634Y-46000812D01*
X101496968Y-46000649D01*
X101503051Y-46000500D01*
X165496949Y-46000500D01*
X165503032Y-46000649D01*
G37*
%TD.AperFunction*%
%TD*%
M02*
