%TF.GenerationSoftware,KiCad,Pcbnew,7.0.1*%
%TF.CreationDate,2023-04-29T01:33:37-04:00*%
%TF.ProjectId,PowerSection,506f7765-7253-4656-9374-696f6e2e6b69,rev?*%
%TF.SameCoordinates,Original*%
%TF.FileFunction,Soldermask,Top*%
%TF.FilePolarity,Negative*%
%FSLAX46Y46*%
G04 Gerber Fmt 4.6, Leading zero omitted, Abs format (unit mm)*
G04 Created by KiCad (PCBNEW 7.0.1) date 2023-04-29 01:33:37*
%MOMM*%
%LPD*%
G01*
G04 APERTURE LIST*
G04 Aperture macros list*
%AMRoundRect*
0 Rectangle with rounded corners*
0 $1 Rounding radius*
0 $2 $3 $4 $5 $6 $7 $8 $9 X,Y pos of 4 corners*
0 Add a 4 corners polygon primitive as box body*
4,1,4,$2,$3,$4,$5,$6,$7,$8,$9,$2,$3,0*
0 Add four circle primitives for the rounded corners*
1,1,$1+$1,$2,$3*
1,1,$1+$1,$4,$5*
1,1,$1+$1,$6,$7*
1,1,$1+$1,$8,$9*
0 Add four rect primitives between the rounded corners*
20,1,$1+$1,$2,$3,$4,$5,0*
20,1,$1+$1,$4,$5,$6,$7,0*
20,1,$1+$1,$6,$7,$8,$9,0*
20,1,$1+$1,$8,$9,$2,$3,0*%
G04 Aperture macros list end*
%ADD10RoundRect,0.200000X-0.200000X-0.275000X0.200000X-0.275000X0.200000X0.275000X-0.200000X0.275000X0*%
%ADD11RoundRect,0.225000X0.250000X-0.225000X0.250000X0.225000X-0.250000X0.225000X-0.250000X-0.225000X0*%
%ADD12RoundRect,0.200000X-0.275000X0.200000X-0.275000X-0.200000X0.275000X-0.200000X0.275000X0.200000X0*%
%ADD13RoundRect,0.050000X0.450000X1.950000X-0.450000X1.950000X-0.450000X-1.950000X0.450000X-1.950000X0*%
%ADD14RoundRect,0.075000X0.975000X0.675000X-0.975000X0.675000X-0.975000X-0.675000X0.975000X-0.675000X0*%
%ADD15RoundRect,0.025000X0.525000X0.225000X-0.525000X0.225000X-0.525000X-0.225000X0.525000X-0.225000X0*%
%ADD16RoundRect,0.150000X-0.150000X0.587500X-0.150000X-0.587500X0.150000X-0.587500X0.150000X0.587500X0*%
%ADD17C,0.800000*%
%ADD18C,6.400000*%
%ADD19R,4.600000X2.000000*%
%ADD20O,4.200000X2.000000*%
%ADD21O,2.000000X4.200000*%
%ADD22RoundRect,0.275000X-2.475000X-2.725000X2.475000X-2.725000X2.475000X2.725000X-2.475000X2.725000X0*%
%ADD23RoundRect,0.325000X-2.925000X-3.300000X2.925000X-3.300000X2.925000X3.300000X-2.925000X3.300000X0*%
%ADD24RoundRect,0.150000X0.150000X-0.512500X0.150000X0.512500X-0.150000X0.512500X-0.150000X-0.512500X0*%
%ADD25RoundRect,0.225000X-0.225000X-0.250000X0.225000X-0.250000X0.225000X0.250000X-0.225000X0.250000X0*%
%ADD26RoundRect,0.200000X0.275000X-0.200000X0.275000X0.200000X-0.275000X0.200000X-0.275000X-0.200000X0*%
%ADD27RoundRect,0.200000X0.200000X0.275000X-0.200000X0.275000X-0.200000X-0.275000X0.200000X-0.275000X0*%
%ADD28RoundRect,0.205000X2.045000X-1.845000X2.045000X1.845000X-2.045000X1.845000X-2.045000X-1.845000X0*%
%ADD29RoundRect,0.225000X0.225000X0.250000X-0.225000X0.250000X-0.225000X-0.250000X0.225000X-0.250000X0*%
%ADD30RoundRect,0.250000X-0.725000X0.600000X-0.725000X-0.600000X0.725000X-0.600000X0.725000X0.600000X0*%
%ADD31O,1.950000X1.700000*%
%ADD32RoundRect,0.250000X1.950000X1.000000X-1.950000X1.000000X-1.950000X-1.000000X1.950000X-1.000000X0*%
%ADD33RoundRect,0.250000X-1.000000X1.950000X-1.000000X-1.950000X1.000000X-1.950000X1.000000X1.950000X0*%
%ADD34RoundRect,0.337777X-0.422223X-0.677223X0.422223X-0.677223X0.422223X0.677223X-0.422223X0.677223X0*%
%ADD35RoundRect,0.250000X-0.850000X-0.350000X0.850000X-0.350000X0.850000X0.350000X-0.850000X0.350000X0*%
%ADD36RoundRect,0.249997X-2.950003X-2.650003X2.950003X-2.650003X2.950003X2.650003X-2.950003X2.650003X0*%
%ADD37R,1.700000X1.700000*%
%ADD38O,1.700000X1.700000*%
%ADD39RoundRect,0.225000X-0.375000X0.225000X-0.375000X-0.225000X0.375000X-0.225000X0.375000X0.225000X0*%
%ADD40RoundRect,0.185000X-0.740000X-1.215000X0.740000X-1.215000X0.740000X1.215000X-0.740000X1.215000X0*%
%ADD41R,0.650000X0.400000*%
G04 APERTURE END LIST*
D10*
%TO.C,R1*%
X151894000Y-80772000D03*
X153544000Y-80772000D03*
%TD*%
D11*
%TO.C,C2*%
X99568000Y-80023000D03*
X99568000Y-78473000D03*
%TD*%
D12*
%TO.C,R4*%
X119766000Y-83948000D03*
X119766000Y-85598000D03*
%TD*%
D10*
%TO.C,R6*%
X117793000Y-91694000D03*
X119443000Y-91694000D03*
%TD*%
D13*
%TO.C,R13*%
X150650000Y-91500000D03*
D14*
X150100000Y-92750000D03*
X150100000Y-90250000D03*
D15*
X149350000Y-91500000D03*
X144650000Y-91500000D03*
D14*
X143900000Y-92750000D03*
X143900000Y-90250000D03*
D13*
X143350000Y-91500000D03*
%TD*%
D12*
%TO.C,R9*%
X127762000Y-96965000D03*
X127762000Y-98615000D03*
%TD*%
D16*
%TO.C,Q1*%
X119634000Y-87313000D03*
X117734000Y-87313000D03*
X118684000Y-89188000D03*
%TD*%
D10*
%TO.C,R8*%
X118555000Y-81788000D03*
X120205000Y-81788000D03*
%TD*%
D17*
%TO.C,H2*%
X99100000Y-49500000D03*
X99802944Y-47802944D03*
X99802944Y-51197056D03*
X101500000Y-47100000D03*
D18*
X101500000Y-49500000D03*
D17*
X101500000Y-51900000D03*
X103197056Y-47802944D03*
X103197056Y-51197056D03*
X103900000Y-49500000D03*
%TD*%
D19*
%TO.C,12V1*%
X117856000Y-97790000D03*
D20*
X117856000Y-104090000D03*
D21*
X122656000Y-100690000D03*
%TD*%
D22*
%TO.C,L2*%
X115650000Y-71670000D03*
X125650000Y-71670000D03*
D23*
X120650000Y-50795000D03*
%TD*%
D24*
%TO.C,U2*%
X144050000Y-86235500D03*
X145000000Y-86235500D03*
X145950000Y-86235500D03*
X145950000Y-83960500D03*
X144050000Y-83960500D03*
%TD*%
D25*
%TO.C,C6*%
X143879000Y-81534000D03*
X145429000Y-81534000D03*
%TD*%
D26*
%TO.C,R7*%
X127762000Y-95313000D03*
X127762000Y-93663000D03*
%TD*%
D27*
%TO.C,R10*%
X133413000Y-105156000D03*
X131763000Y-105156000D03*
%TD*%
D28*
%TO.C,L1*%
X105156000Y-93188000D03*
X105156000Y-83088000D03*
%TD*%
D29*
%TO.C,C8*%
X132347000Y-103378000D03*
X130797000Y-103378000D03*
%TD*%
D17*
%TO.C,H3*%
X163100000Y-56500000D03*
X163802944Y-54802944D03*
X163802944Y-58197056D03*
X165500000Y-54100000D03*
D18*
X165500000Y-56500000D03*
D17*
X165500000Y-58900000D03*
X167197056Y-54802944D03*
X167197056Y-58197056D03*
X167900000Y-56500000D03*
%TD*%
D12*
%TO.C,R3*%
X118242000Y-83948000D03*
X118242000Y-85598000D03*
%TD*%
D30*
%TO.C,J1*%
X165990000Y-79328000D03*
D31*
X165990000Y-81828000D03*
X165990000Y-84328000D03*
X165990000Y-86828000D03*
X165990000Y-89328000D03*
%TD*%
D29*
%TO.C,C3*%
X153557000Y-85090000D03*
X152007000Y-85090000D03*
%TD*%
D25*
%TO.C,C5*%
X148197000Y-81534000D03*
X149747000Y-81534000D03*
%TD*%
D32*
%TO.C,C1*%
X109220000Y-75184000D03*
X101820000Y-75184000D03*
%TD*%
D27*
%TO.C,R2*%
X153544000Y-82550000D03*
X151894000Y-82550000D03*
%TD*%
D24*
%TO.C,U1*%
X148050000Y-86235500D03*
X149000000Y-86235500D03*
X149950000Y-86235500D03*
X149950000Y-83960500D03*
X148050000Y-83960500D03*
%TD*%
D10*
%TO.C,R5*%
X117793000Y-93218000D03*
X119443000Y-93218000D03*
%TD*%
%TO.C,C7*%
X121603000Y-81788000D03*
X123253000Y-81788000D03*
%TD*%
D33*
%TO.C,C9*%
X136906000Y-72246000D03*
X136906000Y-79646000D03*
%TD*%
D34*
%TO.C,F1*%
X107954000Y-98044000D03*
X110994000Y-98044000D03*
%TD*%
D35*
%TO.C,Q2*%
X130420000Y-96223000D03*
D36*
X136720000Y-98503000D03*
D35*
X130420000Y-100783000D03*
%TD*%
D37*
%TO.C,J2*%
X138430000Y-47752000D03*
D38*
X140970000Y-47752000D03*
%TD*%
D13*
%TO.C,R11*%
X150650000Y-105500000D03*
D14*
X150100000Y-106750000D03*
X150100000Y-104250000D03*
D15*
X149350000Y-105500000D03*
X144650000Y-105500000D03*
D14*
X143900000Y-106750000D03*
X143900000Y-104250000D03*
D13*
X143350000Y-105500000D03*
%TD*%
%TO.C,R12*%
X150650000Y-98500000D03*
D14*
X150100000Y-99750000D03*
X150100000Y-97250000D03*
D15*
X149350000Y-98500000D03*
X144650000Y-98500000D03*
D14*
X143900000Y-99750000D03*
X143900000Y-97250000D03*
D13*
X143350000Y-98500000D03*
%TD*%
D39*
%TO.C,D1*%
X125476000Y-93600000D03*
X125476000Y-96900000D03*
%TD*%
D29*
%TO.C,C4*%
X153544000Y-86868000D03*
X151994000Y-86868000D03*
%TD*%
D40*
%TO.C,D3*%
X118579000Y-78740000D03*
X123229000Y-78740000D03*
%TD*%
D17*
%TO.C,H1*%
X99100000Y-105500000D03*
X99802944Y-103802944D03*
X99802944Y-107197056D03*
X101500000Y-103100000D03*
D18*
X101500000Y-105500000D03*
D17*
X101500000Y-107900000D03*
X103197056Y-103802944D03*
X103197056Y-107197056D03*
X103900000Y-105500000D03*
%TD*%
%TO.C,H4*%
X163100000Y-98500000D03*
X163802944Y-96802944D03*
X163802944Y-100197056D03*
X165500000Y-96100000D03*
D18*
X165500000Y-98500000D03*
D17*
X165500000Y-100900000D03*
X167197056Y-96802944D03*
X167197056Y-100197056D03*
X167900000Y-98500000D03*
%TD*%
D41*
%TO.C,U4*%
X121478000Y-93584000D03*
X121478000Y-94234000D03*
X121478000Y-94884000D03*
X123378000Y-94884000D03*
X123378000Y-94234000D03*
X123378000Y-93584000D03*
%TD*%
M02*
