%TF.GenerationSoftware,KiCad,Pcbnew,7.0.1*%
%TF.CreationDate,2023-04-29T01:33:52-04:00*%
%TF.ProjectId,PowerSection,506f7765-7253-4656-9374-696f6e2e6b69,rev?*%
%TF.SameCoordinates,Original*%
%TF.FileFunction,Drillmap*%
%TF.FilePolarity,Positive*%
%FSLAX45Y45*%
G04 Gerber Fmt 4.5, Leading zero omitted, Abs format (unit mm)*
G04 Created by KiCad (PCBNEW 7.0.1) date 2023-04-29 01:33:52*
%MOMM*%
%LPD*%
G01*
G04 APERTURE LIST*
%ADD10C,0.100000*%
%ADD11C,0.200000*%
G04 APERTURE END LIST*
D10*
X16550000Y-10900000D02*
X10150000Y-10900000D01*
X9800000Y-4950000D02*
X9800000Y-10550000D01*
X16900000Y-4950000D02*
G75*
G03*
X16550000Y-4600000I-350000J0D01*
G01*
X16900000Y-4950000D02*
X16900000Y-10550000D01*
X16550000Y-10900000D02*
G75*
G03*
X16900000Y-10550000I0J350000D01*
G01*
X10150000Y-4600000D02*
X16550000Y-4600000D01*
X9800000Y-10550000D02*
G75*
G03*
X10150000Y-10900000I350000J0D01*
G01*
X10150000Y-4600000D02*
G75*
G03*
X9800000Y-4950000I0J-350000D01*
G01*
D11*
X10042619Y-11217524D02*
X10042619Y-11017524D01*
X10042619Y-11017524D02*
X10090238Y-11017524D01*
X10090238Y-11017524D02*
X10118810Y-11027048D01*
X10118810Y-11027048D02*
X10137857Y-11046095D01*
X10137857Y-11046095D02*
X10147381Y-11065143D01*
X10147381Y-11065143D02*
X10156905Y-11103238D01*
X10156905Y-11103238D02*
X10156905Y-11131810D01*
X10156905Y-11131810D02*
X10147381Y-11169905D01*
X10147381Y-11169905D02*
X10137857Y-11188952D01*
X10137857Y-11188952D02*
X10118810Y-11208000D01*
X10118810Y-11208000D02*
X10090238Y-11217524D01*
X10090238Y-11217524D02*
X10042619Y-11217524D01*
X10242619Y-11217524D02*
X10242619Y-11084190D01*
X10242619Y-11122286D02*
X10252143Y-11103238D01*
X10252143Y-11103238D02*
X10261667Y-11093714D01*
X10261667Y-11093714D02*
X10280714Y-11084190D01*
X10280714Y-11084190D02*
X10299762Y-11084190D01*
X10366429Y-11217524D02*
X10366429Y-11084190D01*
X10366429Y-11017524D02*
X10356905Y-11027048D01*
X10356905Y-11027048D02*
X10366429Y-11036571D01*
X10366429Y-11036571D02*
X10375952Y-11027048D01*
X10375952Y-11027048D02*
X10366429Y-11017524D01*
X10366429Y-11017524D02*
X10366429Y-11036571D01*
X10490238Y-11217524D02*
X10471190Y-11208000D01*
X10471190Y-11208000D02*
X10461667Y-11188952D01*
X10461667Y-11188952D02*
X10461667Y-11017524D01*
X10595000Y-11217524D02*
X10575952Y-11208000D01*
X10575952Y-11208000D02*
X10566429Y-11188952D01*
X10566429Y-11188952D02*
X10566429Y-11017524D01*
X10823571Y-11217524D02*
X10823571Y-11017524D01*
X10823571Y-11017524D02*
X10890238Y-11160381D01*
X10890238Y-11160381D02*
X10956905Y-11017524D01*
X10956905Y-11017524D02*
X10956905Y-11217524D01*
X11137857Y-11217524D02*
X11137857Y-11112762D01*
X11137857Y-11112762D02*
X11128333Y-11093714D01*
X11128333Y-11093714D02*
X11109286Y-11084190D01*
X11109286Y-11084190D02*
X11071190Y-11084190D01*
X11071190Y-11084190D02*
X11052143Y-11093714D01*
X11137857Y-11208000D02*
X11118810Y-11217524D01*
X11118810Y-11217524D02*
X11071190Y-11217524D01*
X11071190Y-11217524D02*
X11052143Y-11208000D01*
X11052143Y-11208000D02*
X11042619Y-11188952D01*
X11042619Y-11188952D02*
X11042619Y-11169905D01*
X11042619Y-11169905D02*
X11052143Y-11150857D01*
X11052143Y-11150857D02*
X11071190Y-11141333D01*
X11071190Y-11141333D02*
X11118810Y-11141333D01*
X11118810Y-11141333D02*
X11137857Y-11131810D01*
X11233095Y-11084190D02*
X11233095Y-11284190D01*
X11233095Y-11093714D02*
X11252143Y-11084190D01*
X11252143Y-11084190D02*
X11290238Y-11084190D01*
X11290238Y-11084190D02*
X11309286Y-11093714D01*
X11309286Y-11093714D02*
X11318809Y-11103238D01*
X11318809Y-11103238D02*
X11328333Y-11122286D01*
X11328333Y-11122286D02*
X11328333Y-11179429D01*
X11328333Y-11179429D02*
X11318809Y-11198476D01*
X11318809Y-11198476D02*
X11309286Y-11208000D01*
X11309286Y-11208000D02*
X11290238Y-11217524D01*
X11290238Y-11217524D02*
X11252143Y-11217524D01*
X11252143Y-11217524D02*
X11233095Y-11208000D01*
X11414048Y-11198476D02*
X11423571Y-11208000D01*
X11423571Y-11208000D02*
X11414048Y-11217524D01*
X11414048Y-11217524D02*
X11404524Y-11208000D01*
X11404524Y-11208000D02*
X11414048Y-11198476D01*
X11414048Y-11198476D02*
X11414048Y-11217524D01*
X11414048Y-11093714D02*
X11423571Y-11103238D01*
X11423571Y-11103238D02*
X11414048Y-11112762D01*
X11414048Y-11112762D02*
X11404524Y-11103238D01*
X11404524Y-11103238D02*
X11414048Y-11093714D01*
X11414048Y-11093714D02*
X11414048Y-11112762D01*
M02*
