%TF.GenerationSoftware,KiCad,Pcbnew,7.0.1*%
%TF.CreationDate,2023-04-29T01:33:37-04:00*%
%TF.ProjectId,PowerSection,506f7765-7253-4656-9374-696f6e2e6b69,rev?*%
%TF.SameCoordinates,Original*%
%TF.FileFunction,Soldermask,Bot*%
%TF.FilePolarity,Negative*%
%FSLAX46Y46*%
G04 Gerber Fmt 4.6, Leading zero omitted, Abs format (unit mm)*
G04 Created by KiCad (PCBNEW 7.0.1) date 2023-04-29 01:33:37*
%MOMM*%
%LPD*%
G01*
G04 APERTURE LIST*
G04 Aperture macros list*
%AMRoundRect*
0 Rectangle with rounded corners*
0 $1 Rounding radius*
0 $2 $3 $4 $5 $6 $7 $8 $9 X,Y pos of 4 corners*
0 Add a 4 corners polygon primitive as box body*
4,1,4,$2,$3,$4,$5,$6,$7,$8,$9,$2,$3,0*
0 Add four circle primitives for the rounded corners*
1,1,$1+$1,$2,$3*
1,1,$1+$1,$4,$5*
1,1,$1+$1,$6,$7*
1,1,$1+$1,$8,$9*
0 Add four rect primitives between the rounded corners*
20,1,$1+$1,$2,$3,$4,$5,0*
20,1,$1+$1,$4,$5,$6,$7,0*
20,1,$1+$1,$6,$7,$8,$9,0*
20,1,$1+$1,$8,$9,$2,$3,0*%
G04 Aperture macros list end*
%ADD10C,0.800000*%
%ADD11C,6.400000*%
%ADD12R,4.600000X2.000000*%
%ADD13O,4.200000X2.000000*%
%ADD14O,2.000000X4.200000*%
%ADD15RoundRect,0.250000X-0.725000X0.600000X-0.725000X-0.600000X0.725000X-0.600000X0.725000X0.600000X0*%
%ADD16O,1.950000X1.700000*%
%ADD17R,1.700000X1.700000*%
%ADD18O,1.700000X1.700000*%
G04 APERTURE END LIST*
D10*
%TO.C,H2*%
X99100000Y-49500000D03*
X99802944Y-47802944D03*
X99802944Y-51197056D03*
X101500000Y-47100000D03*
D11*
X101500000Y-49500000D03*
D10*
X101500000Y-51900000D03*
X103197056Y-47802944D03*
X103197056Y-51197056D03*
X103900000Y-49500000D03*
%TD*%
D12*
%TO.C,12V1*%
X117856000Y-97790000D03*
D13*
X117856000Y-104090000D03*
D14*
X122656000Y-100690000D03*
%TD*%
D10*
%TO.C,H3*%
X163100000Y-56500000D03*
X163802944Y-54802944D03*
X163802944Y-58197056D03*
X165500000Y-54100000D03*
D11*
X165500000Y-56500000D03*
D10*
X165500000Y-58900000D03*
X167197056Y-54802944D03*
X167197056Y-58197056D03*
X167900000Y-56500000D03*
%TD*%
D15*
%TO.C,J1*%
X165990000Y-79328000D03*
D16*
X165990000Y-81828000D03*
X165990000Y-84328000D03*
X165990000Y-86828000D03*
X165990000Y-89328000D03*
%TD*%
D17*
%TO.C,J2*%
X138430000Y-47752000D03*
D18*
X140970000Y-47752000D03*
%TD*%
D10*
%TO.C,H1*%
X99100000Y-105500000D03*
X99802944Y-103802944D03*
X99802944Y-107197056D03*
X101500000Y-103100000D03*
D11*
X101500000Y-105500000D03*
D10*
X101500000Y-107900000D03*
X103197056Y-103802944D03*
X103197056Y-107197056D03*
X103900000Y-105500000D03*
%TD*%
%TO.C,H4*%
X163100000Y-98500000D03*
X163802944Y-96802944D03*
X163802944Y-100197056D03*
X165500000Y-96100000D03*
D11*
X165500000Y-98500000D03*
D10*
X165500000Y-100900000D03*
X167197056Y-96802944D03*
X167197056Y-100197056D03*
X167900000Y-98500000D03*
%TD*%
M02*
