M48
METRIC
T1C0.400
T2C0.500
T3C0.950
T4C1.000
T5C3.200
%
G90
G05
T1
X116.21Y-87.313
X145.95Y-87.5
X146.212Y-91.5
X146.212Y-98.5
X146.212Y-105.5
X147.0Y-85.098
X148.718Y-88.392
X151.994Y-88.392
T2
X99.1Y-49.5
X99.1Y-105.5
X99.803Y-47.803
X99.803Y-51.197
X99.803Y-103.803
X99.803Y-107.197
X101.5Y-47.1
X101.5Y-51.9
X101.5Y-103.1
X101.5Y-107.9
X103.197Y-47.803
X103.197Y-51.197
X103.197Y-103.803
X103.197Y-107.197
X103.9Y-49.5
X103.9Y-105.5
X163.1Y-56.5
X163.1Y-98.5
X163.803Y-54.803
X163.803Y-58.197
X163.803Y-96.803
X163.803Y-100.197
X165.5Y-54.1
X165.5Y-58.9
X165.5Y-96.1
X165.5Y-100.9
X167.197Y-54.803
X167.197Y-58.197
X167.197Y-96.803
X167.197Y-100.197
X167.9Y-56.5
X167.9Y-98.5
T3
X165.99Y-79.328
X165.99Y-81.828
X165.99Y-84.328
X165.99Y-86.828
X165.99Y-89.328
T4
X138.43Y-47.752
X140.97Y-47.752
T5
X101.5Y-49.5
X101.5Y-105.5
X165.5Y-56.5
X165.5Y-98.5
T4
X116.556Y-97.79G85X119.156Y-97.79
G05
X116.756Y-104.09G85X118.956Y-104.09
G05
X122.656Y-99.59G85X122.656Y-101.79
G05
T0
M30
