%TF.GenerationSoftware,KiCad,Pcbnew,7.0.1*%
%TF.CreationDate,2023-04-29T01:50:37-04:00*%
%TF.ProjectId,PowerSection,506f7765-7253-4656-9374-696f6e2e6b69,rev?*%
%TF.SameCoordinates,Original*%
%TF.FileFunction,Drillmap*%
%TF.FilePolarity,Positive*%
%FSLAX45Y45*%
G04 Gerber Fmt 4.5, Leading zero omitted, Abs format (unit mm)*
G04 Created by KiCad (PCBNEW 7.0.1) date 2023-04-29 01:50:37*
%MOMM*%
%LPD*%
G01*
G04 APERTURE LIST*
%ADD10C,0.100000*%
%ADD11C,0.200000*%
%ADD12C,0.040000*%
%ADD13C,0.050000*%
%ADD14C,0.095000*%
%ADD15C,0.320000*%
G04 APERTURE END LIST*
D10*
X16550000Y-10900000D02*
X10150000Y-10900000D01*
X9800000Y-4950000D02*
X9800000Y-10550000D01*
X16900000Y-4950000D02*
G75*
G03*
X16550000Y-4600000I-350000J0D01*
G01*
X16900000Y-4950000D02*
X16900000Y-10550000D01*
X16550000Y-10900000D02*
G75*
G03*
X16900000Y-10550000I0J350000D01*
G01*
X10150000Y-4600000D02*
X16550000Y-4600000D01*
X9800000Y-10550000D02*
G75*
G03*
X10150000Y-10900000I350000J0D01*
G01*
X10150000Y-4600000D02*
G75*
G03*
X9800000Y-4950000I0J-350000D01*
G01*
D11*
D12*
X9886000Y-6965000D02*
X9926000Y-7005000D01*
X9926000Y-6965000D02*
X9886000Y-7005000D01*
X9886000Y-7092000D02*
X9926000Y-7132000D01*
X9926000Y-7092000D02*
X9886000Y-7132000D01*
X9886000Y-7727000D02*
X9926000Y-7767000D01*
X9926000Y-7727000D02*
X9886000Y-7767000D01*
X10013000Y-6965000D02*
X10053000Y-7005000D01*
X10053000Y-6965000D02*
X10013000Y-7005000D01*
X10013000Y-7092000D02*
X10053000Y-7132000D01*
X10053000Y-7092000D02*
X10013000Y-7132000D01*
X10013000Y-7727000D02*
X10053000Y-7767000D01*
X10053000Y-7727000D02*
X10013000Y-7767000D01*
X10140000Y-6965000D02*
X10180000Y-7005000D01*
X10180000Y-6965000D02*
X10140000Y-7005000D01*
X10140000Y-7092000D02*
X10180000Y-7132000D01*
X10180000Y-7092000D02*
X10140000Y-7132000D01*
X10140000Y-7727000D02*
X10180000Y-7767000D01*
X10180000Y-7727000D02*
X10140000Y-7767000D01*
X10267000Y-6965000D02*
X10307000Y-7005000D01*
X10307000Y-6965000D02*
X10267000Y-7005000D01*
X10267000Y-7092000D02*
X10307000Y-7132000D01*
X10307000Y-7092000D02*
X10267000Y-7132000D01*
X10394000Y-6965000D02*
X10434000Y-7005000D01*
X10434000Y-6965000D02*
X10394000Y-7005000D01*
X10394000Y-7092000D02*
X10434000Y-7132000D01*
X10434000Y-7092000D02*
X10394000Y-7132000D01*
X11601000Y-8711300D02*
X11641000Y-8751300D01*
X11641000Y-8711300D02*
X11601000Y-8751300D01*
X12426000Y-10648000D02*
X12466000Y-10688000D01*
X12466000Y-10648000D02*
X12426000Y-10688000D01*
X12553000Y-10648000D02*
X12593000Y-10688000D01*
X12593000Y-10648000D02*
X12553000Y-10688000D01*
X12680000Y-10140000D02*
X12720000Y-10180000D01*
X12720000Y-10140000D02*
X12680000Y-10180000D01*
X12680000Y-10267000D02*
X12720000Y-10307000D01*
X12720000Y-10267000D02*
X12680000Y-10307000D01*
X12680000Y-10394000D02*
X12720000Y-10434000D01*
X12720000Y-10394000D02*
X12680000Y-10434000D01*
X12680000Y-10521000D02*
X12720000Y-10561000D01*
X12720000Y-10521000D02*
X12680000Y-10561000D01*
X12680000Y-10648000D02*
X12720000Y-10688000D01*
X12720000Y-10648000D02*
X12680000Y-10688000D01*
X12807000Y-10648000D02*
X12847000Y-10688000D01*
X12847000Y-10648000D02*
X12807000Y-10688000D01*
X12934000Y-10648000D02*
X12974000Y-10688000D01*
X12974000Y-10648000D02*
X12934000Y-10688000D01*
X13061000Y-10648000D02*
X13101000Y-10688000D01*
X13101000Y-10648000D02*
X13061000Y-10688000D01*
X14575000Y-8730000D02*
X14615000Y-8770000D01*
X14615000Y-8730000D02*
X14575000Y-8770000D01*
X14601200Y-9130000D02*
X14641200Y-9170000D01*
X14641200Y-9130000D02*
X14601200Y-9170000D01*
X14601200Y-9830000D02*
X14641200Y-9870000D01*
X14641200Y-9830000D02*
X14601200Y-9870000D01*
X14601200Y-10530000D02*
X14641200Y-10570000D01*
X14641200Y-10530000D02*
X14601200Y-10570000D01*
X14680000Y-8489800D02*
X14720000Y-8529800D01*
X14720000Y-8489800D02*
X14680000Y-8529800D01*
X14851800Y-8819200D02*
X14891800Y-8859200D01*
X14891800Y-8819200D02*
X14851800Y-8859200D01*
X15179400Y-8819200D02*
X15219400Y-8859200D01*
X15219400Y-8819200D02*
X15179400Y-8859200D01*
D13*
X9935000Y-4950000D02*
G75*
G03*
X9935000Y-4950000I-25000J0D01*
G01*
X9935000Y-10550000D02*
G75*
G03*
X9935000Y-10550000I-25000J0D01*
G01*
X10005294Y-4780294D02*
G75*
G03*
X10005294Y-4780294I-25000J0D01*
G01*
X10005294Y-5119706D02*
G75*
G03*
X10005294Y-5119706I-25000J0D01*
G01*
X10005294Y-10380294D02*
G75*
G03*
X10005294Y-10380294I-25000J0D01*
G01*
X10005294Y-10719706D02*
G75*
G03*
X10005294Y-10719706I-25000J0D01*
G01*
X10175000Y-4710000D02*
G75*
G03*
X10175000Y-4710000I-25000J0D01*
G01*
X10175000Y-5190000D02*
G75*
G03*
X10175000Y-5190000I-25000J0D01*
G01*
X10175000Y-10310000D02*
G75*
G03*
X10175000Y-10310000I-25000J0D01*
G01*
X10175000Y-10790000D02*
G75*
G03*
X10175000Y-10790000I-25000J0D01*
G01*
X10344706Y-4780294D02*
G75*
G03*
X10344706Y-4780294I-25000J0D01*
G01*
X10344706Y-5119706D02*
G75*
G03*
X10344706Y-5119706I-25000J0D01*
G01*
X10344706Y-10380294D02*
G75*
G03*
X10344706Y-10380294I-25000J0D01*
G01*
X10344706Y-10719706D02*
G75*
G03*
X10344706Y-10719706I-25000J0D01*
G01*
X10415000Y-4950000D02*
G75*
G03*
X10415000Y-4950000I-25000J0D01*
G01*
X10415000Y-10550000D02*
G75*
G03*
X10415000Y-10550000I-25000J0D01*
G01*
X16335000Y-5650000D02*
G75*
G03*
X16335000Y-5650000I-25000J0D01*
G01*
X16335000Y-9850000D02*
G75*
G03*
X16335000Y-9850000I-25000J0D01*
G01*
X16405294Y-5480294D02*
G75*
G03*
X16405294Y-5480294I-25000J0D01*
G01*
X16405294Y-5819706D02*
G75*
G03*
X16405294Y-5819706I-25000J0D01*
G01*
X16405294Y-9680294D02*
G75*
G03*
X16405294Y-9680294I-25000J0D01*
G01*
X16405294Y-10019706D02*
G75*
G03*
X16405294Y-10019706I-25000J0D01*
G01*
X16575000Y-5410000D02*
G75*
G03*
X16575000Y-5410000I-25000J0D01*
G01*
X16575000Y-5890000D02*
G75*
G03*
X16575000Y-5890000I-25000J0D01*
G01*
X16575000Y-9610000D02*
G75*
G03*
X16575000Y-9610000I-25000J0D01*
G01*
X16575000Y-10090000D02*
G75*
G03*
X16575000Y-10090000I-25000J0D01*
G01*
X16744706Y-5480294D02*
G75*
G03*
X16744706Y-5480294I-25000J0D01*
G01*
X16744706Y-5819706D02*
G75*
G03*
X16744706Y-5819706I-25000J0D01*
G01*
X16744706Y-9680294D02*
G75*
G03*
X16744706Y-9680294I-25000J0D01*
G01*
X16744706Y-10019706D02*
G75*
G03*
X16744706Y-10019706I-25000J0D01*
G01*
X16815000Y-5650000D02*
G75*
G03*
X16815000Y-5650000I-25000J0D01*
G01*
X16815000Y-9850000D02*
G75*
G03*
X16815000Y-9850000I-25000J0D01*
G01*
D14*
X16599000Y-7885300D02*
X16599000Y-7980300D01*
X16551500Y-7932800D02*
X16646500Y-7932800D01*
X16599000Y-8135300D02*
X16599000Y-8230300D01*
X16551500Y-8182800D02*
X16646500Y-8182800D01*
X16599000Y-8385300D02*
X16599000Y-8480300D01*
X16551500Y-8432800D02*
X16646500Y-8432800D01*
X16599000Y-8635300D02*
X16599000Y-8730300D01*
X16551500Y-8682800D02*
X16646500Y-8682800D01*
X16599000Y-8885300D02*
X16599000Y-8980300D01*
X16551500Y-8932800D02*
X16646500Y-8932800D01*
D10*
X11820956Y-9814356D02*
X11820956Y-9743644D01*
X11750244Y-9743644D01*
X11750244Y-9814356D01*
X11820956Y-9814356D01*
D11*
X11655600Y-9829000D02*
X11915600Y-9829000D01*
X11915600Y-9829000D02*
G75*
G03*
X11915600Y-9729000I0J50000D01*
G01*
X11915600Y-9729000D02*
X11655600Y-9729000D01*
X11655600Y-9729000D02*
G75*
G03*
X11655600Y-9829000I0J-50000D01*
G01*
D10*
X11820956Y-10444356D02*
X11820956Y-10373644D01*
X11750244Y-10373644D01*
X11750244Y-10444356D01*
X11820956Y-10444356D01*
D11*
X11675600Y-10459000D02*
X11895600Y-10459000D01*
X11895600Y-10459000D02*
G75*
G03*
X11895600Y-10359000I0J50000D01*
G01*
X11895600Y-10359000D02*
X11675600Y-10359000D01*
X11675600Y-10359000D02*
G75*
G03*
X11675600Y-10459000I0J-50000D01*
G01*
D10*
X12300956Y-10104356D02*
X12300956Y-10033644D01*
X12230244Y-10033644D01*
X12230244Y-10104356D01*
X12300956Y-10104356D01*
D11*
X12215600Y-9959000D02*
X12215600Y-10179000D01*
X12215600Y-10179000D02*
G75*
G03*
X12315600Y-10179000I50000J0D01*
G01*
X12315600Y-10179000D02*
X12315600Y-9959000D01*
X12315600Y-9959000D02*
G75*
G03*
X12215600Y-9959000I-50000J0D01*
G01*
D10*
X13878356Y-4810556D02*
X13878356Y-4739844D01*
X13807644Y-4739844D01*
X13807644Y-4810556D01*
X13878356Y-4810556D01*
X14132356Y-4810556D02*
X14132356Y-4739844D01*
X14061644Y-4739844D01*
X14061644Y-4810556D01*
X14132356Y-4810556D01*
D15*
X10150000Y-5110000D02*
X10310000Y-4950000D01*
X10150000Y-4790000D01*
X9990000Y-4950000D01*
X10150000Y-5110000D01*
X10150000Y-10710000D02*
X10310000Y-10550000D01*
X10150000Y-10390000D01*
X9990000Y-10550000D01*
X10150000Y-10710000D01*
X16550000Y-5810000D02*
X16710000Y-5650000D01*
X16550000Y-5490000D01*
X16390000Y-5650000D01*
X16550000Y-5810000D01*
X16550000Y-10010000D02*
X16710000Y-9850000D01*
X16550000Y-9690000D01*
X16390000Y-9850000D01*
X16550000Y-10010000D01*
D11*
X10042619Y-11217524D02*
X10042619Y-11017524D01*
X10042619Y-11017524D02*
X10090238Y-11017524D01*
X10090238Y-11017524D02*
X10118810Y-11027048D01*
X10118810Y-11027048D02*
X10137857Y-11046095D01*
X10137857Y-11046095D02*
X10147381Y-11065143D01*
X10147381Y-11065143D02*
X10156905Y-11103238D01*
X10156905Y-11103238D02*
X10156905Y-11131810D01*
X10156905Y-11131810D02*
X10147381Y-11169905D01*
X10147381Y-11169905D02*
X10137857Y-11188952D01*
X10137857Y-11188952D02*
X10118810Y-11208000D01*
X10118810Y-11208000D02*
X10090238Y-11217524D01*
X10090238Y-11217524D02*
X10042619Y-11217524D01*
X10242619Y-11217524D02*
X10242619Y-11084190D01*
X10242619Y-11122286D02*
X10252143Y-11103238D01*
X10252143Y-11103238D02*
X10261667Y-11093714D01*
X10261667Y-11093714D02*
X10280714Y-11084190D01*
X10280714Y-11084190D02*
X10299762Y-11084190D01*
X10366429Y-11217524D02*
X10366429Y-11084190D01*
X10366429Y-11017524D02*
X10356905Y-11027048D01*
X10356905Y-11027048D02*
X10366429Y-11036571D01*
X10366429Y-11036571D02*
X10375952Y-11027048D01*
X10375952Y-11027048D02*
X10366429Y-11017524D01*
X10366429Y-11017524D02*
X10366429Y-11036571D01*
X10490238Y-11217524D02*
X10471190Y-11208000D01*
X10471190Y-11208000D02*
X10461667Y-11188952D01*
X10461667Y-11188952D02*
X10461667Y-11017524D01*
X10595000Y-11217524D02*
X10575952Y-11208000D01*
X10575952Y-11208000D02*
X10566429Y-11188952D01*
X10566429Y-11188952D02*
X10566429Y-11017524D01*
X10823571Y-11217524D02*
X10823571Y-11017524D01*
X10823571Y-11017524D02*
X10890238Y-11160381D01*
X10890238Y-11160381D02*
X10956905Y-11017524D01*
X10956905Y-11017524D02*
X10956905Y-11217524D01*
X11137857Y-11217524D02*
X11137857Y-11112762D01*
X11137857Y-11112762D02*
X11128333Y-11093714D01*
X11128333Y-11093714D02*
X11109286Y-11084190D01*
X11109286Y-11084190D02*
X11071190Y-11084190D01*
X11071190Y-11084190D02*
X11052143Y-11093714D01*
X11137857Y-11208000D02*
X11118810Y-11217524D01*
X11118810Y-11217524D02*
X11071190Y-11217524D01*
X11071190Y-11217524D02*
X11052143Y-11208000D01*
X11052143Y-11208000D02*
X11042619Y-11188952D01*
X11042619Y-11188952D02*
X11042619Y-11169905D01*
X11042619Y-11169905D02*
X11052143Y-11150857D01*
X11052143Y-11150857D02*
X11071190Y-11141333D01*
X11071190Y-11141333D02*
X11118810Y-11141333D01*
X11118810Y-11141333D02*
X11137857Y-11131810D01*
X11233095Y-11084190D02*
X11233095Y-11284190D01*
X11233095Y-11093714D02*
X11252143Y-11084190D01*
X11252143Y-11084190D02*
X11290238Y-11084190D01*
X11290238Y-11084190D02*
X11309286Y-11093714D01*
X11309286Y-11093714D02*
X11318809Y-11103238D01*
X11318809Y-11103238D02*
X11328333Y-11122286D01*
X11328333Y-11122286D02*
X11328333Y-11179429D01*
X11328333Y-11179429D02*
X11318809Y-11198476D01*
X11318809Y-11198476D02*
X11309286Y-11208000D01*
X11309286Y-11208000D02*
X11290238Y-11217524D01*
X11290238Y-11217524D02*
X11252143Y-11217524D01*
X11252143Y-11217524D02*
X11233095Y-11208000D01*
X11414048Y-11198476D02*
X11423571Y-11208000D01*
X11423571Y-11208000D02*
X11414048Y-11217524D01*
X11414048Y-11217524D02*
X11404524Y-11208000D01*
X11404524Y-11208000D02*
X11414048Y-11198476D01*
X11414048Y-11198476D02*
X11414048Y-11217524D01*
X11414048Y-11093714D02*
X11423571Y-11103238D01*
X11423571Y-11103238D02*
X11414048Y-11112762D01*
X11414048Y-11112762D02*
X11404524Y-11103238D01*
X11404524Y-11103238D02*
X11414048Y-11093714D01*
X11414048Y-11093714D02*
X11414048Y-11112762D01*
D12*
X9755000Y-11525000D02*
X9795000Y-11565000D01*
X9795000Y-11525000D02*
X9755000Y-11565000D01*
D11*
X10080714Y-11437524D02*
X10099762Y-11437524D01*
X10099762Y-11437524D02*
X10118810Y-11447048D01*
X10118810Y-11447048D02*
X10128333Y-11456571D01*
X10128333Y-11456571D02*
X10137857Y-11475619D01*
X10137857Y-11475619D02*
X10147381Y-11513714D01*
X10147381Y-11513714D02*
X10147381Y-11561333D01*
X10147381Y-11561333D02*
X10137857Y-11599428D01*
X10137857Y-11599428D02*
X10128333Y-11618476D01*
X10128333Y-11618476D02*
X10118810Y-11628000D01*
X10118810Y-11628000D02*
X10099762Y-11637524D01*
X10099762Y-11637524D02*
X10080714Y-11637524D01*
X10080714Y-11637524D02*
X10061667Y-11628000D01*
X10061667Y-11628000D02*
X10052143Y-11618476D01*
X10052143Y-11618476D02*
X10042619Y-11599428D01*
X10042619Y-11599428D02*
X10033095Y-11561333D01*
X10033095Y-11561333D02*
X10033095Y-11513714D01*
X10033095Y-11513714D02*
X10042619Y-11475619D01*
X10042619Y-11475619D02*
X10052143Y-11456571D01*
X10052143Y-11456571D02*
X10061667Y-11447048D01*
X10061667Y-11447048D02*
X10080714Y-11437524D01*
X10233095Y-11618476D02*
X10242619Y-11628000D01*
X10242619Y-11628000D02*
X10233095Y-11637524D01*
X10233095Y-11637524D02*
X10223571Y-11628000D01*
X10223571Y-11628000D02*
X10233095Y-11618476D01*
X10233095Y-11618476D02*
X10233095Y-11637524D01*
X10414048Y-11504190D02*
X10414048Y-11637524D01*
X10366429Y-11428000D02*
X10318810Y-11570857D01*
X10318810Y-11570857D02*
X10442619Y-11570857D01*
X10556905Y-11437524D02*
X10575952Y-11437524D01*
X10575952Y-11437524D02*
X10595000Y-11447048D01*
X10595000Y-11447048D02*
X10604524Y-11456571D01*
X10604524Y-11456571D02*
X10614048Y-11475619D01*
X10614048Y-11475619D02*
X10623571Y-11513714D01*
X10623571Y-11513714D02*
X10623571Y-11561333D01*
X10623571Y-11561333D02*
X10614048Y-11599428D01*
X10614048Y-11599428D02*
X10604524Y-11618476D01*
X10604524Y-11618476D02*
X10595000Y-11628000D01*
X10595000Y-11628000D02*
X10575952Y-11637524D01*
X10575952Y-11637524D02*
X10556905Y-11637524D01*
X10556905Y-11637524D02*
X10537857Y-11628000D01*
X10537857Y-11628000D02*
X10528333Y-11618476D01*
X10528333Y-11618476D02*
X10518810Y-11599428D01*
X10518810Y-11599428D02*
X10509286Y-11561333D01*
X10509286Y-11561333D02*
X10509286Y-11513714D01*
X10509286Y-11513714D02*
X10518810Y-11475619D01*
X10518810Y-11475619D02*
X10528333Y-11456571D01*
X10528333Y-11456571D02*
X10537857Y-11447048D01*
X10537857Y-11447048D02*
X10556905Y-11437524D01*
X10747381Y-11437524D02*
X10766429Y-11437524D01*
X10766429Y-11437524D02*
X10785476Y-11447048D01*
X10785476Y-11447048D02*
X10795000Y-11456571D01*
X10795000Y-11456571D02*
X10804524Y-11475619D01*
X10804524Y-11475619D02*
X10814048Y-11513714D01*
X10814048Y-11513714D02*
X10814048Y-11561333D01*
X10814048Y-11561333D02*
X10804524Y-11599428D01*
X10804524Y-11599428D02*
X10795000Y-11618476D01*
X10795000Y-11618476D02*
X10785476Y-11628000D01*
X10785476Y-11628000D02*
X10766429Y-11637524D01*
X10766429Y-11637524D02*
X10747381Y-11637524D01*
X10747381Y-11637524D02*
X10728333Y-11628000D01*
X10728333Y-11628000D02*
X10718810Y-11618476D01*
X10718810Y-11618476D02*
X10709286Y-11599428D01*
X10709286Y-11599428D02*
X10699762Y-11561333D01*
X10699762Y-11561333D02*
X10699762Y-11513714D01*
X10699762Y-11513714D02*
X10709286Y-11475619D01*
X10709286Y-11475619D02*
X10718810Y-11456571D01*
X10718810Y-11456571D02*
X10728333Y-11447048D01*
X10728333Y-11447048D02*
X10747381Y-11437524D01*
X10899762Y-11637524D02*
X10899762Y-11504190D01*
X10899762Y-11523238D02*
X10909286Y-11513714D01*
X10909286Y-11513714D02*
X10928333Y-11504190D01*
X10928333Y-11504190D02*
X10956905Y-11504190D01*
X10956905Y-11504190D02*
X10975952Y-11513714D01*
X10975952Y-11513714D02*
X10985476Y-11532762D01*
X10985476Y-11532762D02*
X10985476Y-11637524D01*
X10985476Y-11532762D02*
X10995000Y-11513714D01*
X10995000Y-11513714D02*
X11014048Y-11504190D01*
X11014048Y-11504190D02*
X11042619Y-11504190D01*
X11042619Y-11504190D02*
X11061667Y-11513714D01*
X11061667Y-11513714D02*
X11071191Y-11532762D01*
X11071191Y-11532762D02*
X11071191Y-11637524D01*
X11166429Y-11637524D02*
X11166429Y-11504190D01*
X11166429Y-11523238D02*
X11175952Y-11513714D01*
X11175952Y-11513714D02*
X11195000Y-11504190D01*
X11195000Y-11504190D02*
X11223571Y-11504190D01*
X11223571Y-11504190D02*
X11242619Y-11513714D01*
X11242619Y-11513714D02*
X11252143Y-11532762D01*
X11252143Y-11532762D02*
X11252143Y-11637524D01*
X11252143Y-11532762D02*
X11261667Y-11513714D01*
X11261667Y-11513714D02*
X11280714Y-11504190D01*
X11280714Y-11504190D02*
X11309286Y-11504190D01*
X11309286Y-11504190D02*
X11328333Y-11513714D01*
X11328333Y-11513714D02*
X11337857Y-11532762D01*
X11337857Y-11532762D02*
X11337857Y-11637524D01*
X11728333Y-11428000D02*
X11556905Y-11685143D01*
X11985476Y-11437524D02*
X12004524Y-11437524D01*
X12004524Y-11437524D02*
X12023572Y-11447048D01*
X12023572Y-11447048D02*
X12033095Y-11456571D01*
X12033095Y-11456571D02*
X12042619Y-11475619D01*
X12042619Y-11475619D02*
X12052143Y-11513714D01*
X12052143Y-11513714D02*
X12052143Y-11561333D01*
X12052143Y-11561333D02*
X12042619Y-11599428D01*
X12042619Y-11599428D02*
X12033095Y-11618476D01*
X12033095Y-11618476D02*
X12023572Y-11628000D01*
X12023572Y-11628000D02*
X12004524Y-11637524D01*
X12004524Y-11637524D02*
X11985476Y-11637524D01*
X11985476Y-11637524D02*
X11966429Y-11628000D01*
X11966429Y-11628000D02*
X11956905Y-11618476D01*
X11956905Y-11618476D02*
X11947381Y-11599428D01*
X11947381Y-11599428D02*
X11937857Y-11561333D01*
X11937857Y-11561333D02*
X11937857Y-11513714D01*
X11937857Y-11513714D02*
X11947381Y-11475619D01*
X11947381Y-11475619D02*
X11956905Y-11456571D01*
X11956905Y-11456571D02*
X11966429Y-11447048D01*
X11966429Y-11447048D02*
X11985476Y-11437524D01*
X12137857Y-11618476D02*
X12147381Y-11628000D01*
X12147381Y-11628000D02*
X12137857Y-11637524D01*
X12137857Y-11637524D02*
X12128333Y-11628000D01*
X12128333Y-11628000D02*
X12137857Y-11618476D01*
X12137857Y-11618476D02*
X12137857Y-11637524D01*
X12271191Y-11437524D02*
X12290238Y-11437524D01*
X12290238Y-11437524D02*
X12309286Y-11447048D01*
X12309286Y-11447048D02*
X12318810Y-11456571D01*
X12318810Y-11456571D02*
X12328333Y-11475619D01*
X12328333Y-11475619D02*
X12337857Y-11513714D01*
X12337857Y-11513714D02*
X12337857Y-11561333D01*
X12337857Y-11561333D02*
X12328333Y-11599428D01*
X12328333Y-11599428D02*
X12318810Y-11618476D01*
X12318810Y-11618476D02*
X12309286Y-11628000D01*
X12309286Y-11628000D02*
X12290238Y-11637524D01*
X12290238Y-11637524D02*
X12271191Y-11637524D01*
X12271191Y-11637524D02*
X12252143Y-11628000D01*
X12252143Y-11628000D02*
X12242619Y-11618476D01*
X12242619Y-11618476D02*
X12233095Y-11599428D01*
X12233095Y-11599428D02*
X12223572Y-11561333D01*
X12223572Y-11561333D02*
X12223572Y-11513714D01*
X12223572Y-11513714D02*
X12233095Y-11475619D01*
X12233095Y-11475619D02*
X12242619Y-11456571D01*
X12242619Y-11456571D02*
X12252143Y-11447048D01*
X12252143Y-11447048D02*
X12271191Y-11437524D01*
X12528333Y-11637524D02*
X12414048Y-11637524D01*
X12471191Y-11637524D02*
X12471191Y-11437524D01*
X12471191Y-11437524D02*
X12452143Y-11466095D01*
X12452143Y-11466095D02*
X12433095Y-11485143D01*
X12433095Y-11485143D02*
X12414048Y-11494667D01*
X12709286Y-11437524D02*
X12614048Y-11437524D01*
X12614048Y-11437524D02*
X12604524Y-11532762D01*
X12604524Y-11532762D02*
X12614048Y-11523238D01*
X12614048Y-11523238D02*
X12633095Y-11513714D01*
X12633095Y-11513714D02*
X12680714Y-11513714D01*
X12680714Y-11513714D02*
X12699762Y-11523238D01*
X12699762Y-11523238D02*
X12709286Y-11532762D01*
X12709286Y-11532762D02*
X12718810Y-11551809D01*
X12718810Y-11551809D02*
X12718810Y-11599428D01*
X12718810Y-11599428D02*
X12709286Y-11618476D01*
X12709286Y-11618476D02*
X12699762Y-11628000D01*
X12699762Y-11628000D02*
X12680714Y-11637524D01*
X12680714Y-11637524D02*
X12633095Y-11637524D01*
X12633095Y-11637524D02*
X12614048Y-11628000D01*
X12614048Y-11628000D02*
X12604524Y-11618476D01*
X12785476Y-11437524D02*
X12918810Y-11437524D01*
X12918810Y-11437524D02*
X12833095Y-11637524D01*
X12985476Y-11437524D02*
X12985476Y-11475619D01*
X13061667Y-11437524D02*
X13061667Y-11475619D01*
X13356905Y-11713714D02*
X13347381Y-11704190D01*
X13347381Y-11704190D02*
X13328334Y-11675619D01*
X13328334Y-11675619D02*
X13318810Y-11656571D01*
X13318810Y-11656571D02*
X13309286Y-11628000D01*
X13309286Y-11628000D02*
X13299762Y-11580381D01*
X13299762Y-11580381D02*
X13299762Y-11542286D01*
X13299762Y-11542286D02*
X13309286Y-11494667D01*
X13309286Y-11494667D02*
X13318810Y-11466095D01*
X13318810Y-11466095D02*
X13328334Y-11447048D01*
X13328334Y-11447048D02*
X13347381Y-11418476D01*
X13347381Y-11418476D02*
X13356905Y-11408952D01*
X13414048Y-11437524D02*
X13537857Y-11437524D01*
X13537857Y-11437524D02*
X13471191Y-11513714D01*
X13471191Y-11513714D02*
X13499762Y-11513714D01*
X13499762Y-11513714D02*
X13518810Y-11523238D01*
X13518810Y-11523238D02*
X13528334Y-11532762D01*
X13528334Y-11532762D02*
X13537857Y-11551809D01*
X13537857Y-11551809D02*
X13537857Y-11599428D01*
X13537857Y-11599428D02*
X13528334Y-11618476D01*
X13528334Y-11618476D02*
X13518810Y-11628000D01*
X13518810Y-11628000D02*
X13499762Y-11637524D01*
X13499762Y-11637524D02*
X13442619Y-11637524D01*
X13442619Y-11637524D02*
X13423572Y-11628000D01*
X13423572Y-11628000D02*
X13414048Y-11618476D01*
X13728334Y-11637524D02*
X13614048Y-11637524D01*
X13671191Y-11637524D02*
X13671191Y-11437524D01*
X13671191Y-11437524D02*
X13652143Y-11466095D01*
X13652143Y-11466095D02*
X13633095Y-11485143D01*
X13633095Y-11485143D02*
X13614048Y-11494667D01*
X13966429Y-11637524D02*
X13966429Y-11437524D01*
X14052143Y-11637524D02*
X14052143Y-11532762D01*
X14052143Y-11532762D02*
X14042619Y-11513714D01*
X14042619Y-11513714D02*
X14023572Y-11504190D01*
X14023572Y-11504190D02*
X13995000Y-11504190D01*
X13995000Y-11504190D02*
X13975953Y-11513714D01*
X13975953Y-11513714D02*
X13966429Y-11523238D01*
X14175953Y-11637524D02*
X14156905Y-11628000D01*
X14156905Y-11628000D02*
X14147381Y-11618476D01*
X14147381Y-11618476D02*
X14137857Y-11599428D01*
X14137857Y-11599428D02*
X14137857Y-11542286D01*
X14137857Y-11542286D02*
X14147381Y-11523238D01*
X14147381Y-11523238D02*
X14156905Y-11513714D01*
X14156905Y-11513714D02*
X14175953Y-11504190D01*
X14175953Y-11504190D02*
X14204524Y-11504190D01*
X14204524Y-11504190D02*
X14223572Y-11513714D01*
X14223572Y-11513714D02*
X14233096Y-11523238D01*
X14233096Y-11523238D02*
X14242619Y-11542286D01*
X14242619Y-11542286D02*
X14242619Y-11599428D01*
X14242619Y-11599428D02*
X14233096Y-11618476D01*
X14233096Y-11618476D02*
X14223572Y-11628000D01*
X14223572Y-11628000D02*
X14204524Y-11637524D01*
X14204524Y-11637524D02*
X14175953Y-11637524D01*
X14356905Y-11637524D02*
X14337857Y-11628000D01*
X14337857Y-11628000D02*
X14328334Y-11608952D01*
X14328334Y-11608952D02*
X14328334Y-11437524D01*
X14509286Y-11628000D02*
X14490238Y-11637524D01*
X14490238Y-11637524D02*
X14452143Y-11637524D01*
X14452143Y-11637524D02*
X14433096Y-11628000D01*
X14433096Y-11628000D02*
X14423572Y-11608952D01*
X14423572Y-11608952D02*
X14423572Y-11532762D01*
X14423572Y-11532762D02*
X14433096Y-11513714D01*
X14433096Y-11513714D02*
X14452143Y-11504190D01*
X14452143Y-11504190D02*
X14490238Y-11504190D01*
X14490238Y-11504190D02*
X14509286Y-11513714D01*
X14509286Y-11513714D02*
X14518810Y-11532762D01*
X14518810Y-11532762D02*
X14518810Y-11551809D01*
X14518810Y-11551809D02*
X14423572Y-11570857D01*
X14595000Y-11628000D02*
X14614048Y-11637524D01*
X14614048Y-11637524D02*
X14652143Y-11637524D01*
X14652143Y-11637524D02*
X14671191Y-11628000D01*
X14671191Y-11628000D02*
X14680715Y-11608952D01*
X14680715Y-11608952D02*
X14680715Y-11599428D01*
X14680715Y-11599428D02*
X14671191Y-11580381D01*
X14671191Y-11580381D02*
X14652143Y-11570857D01*
X14652143Y-11570857D02*
X14623572Y-11570857D01*
X14623572Y-11570857D02*
X14604524Y-11561333D01*
X14604524Y-11561333D02*
X14595000Y-11542286D01*
X14595000Y-11542286D02*
X14595000Y-11532762D01*
X14595000Y-11532762D02*
X14604524Y-11513714D01*
X14604524Y-11513714D02*
X14623572Y-11504190D01*
X14623572Y-11504190D02*
X14652143Y-11504190D01*
X14652143Y-11504190D02*
X14671191Y-11513714D01*
X14747381Y-11713714D02*
X14756905Y-11704190D01*
X14756905Y-11704190D02*
X14775953Y-11675619D01*
X14775953Y-11675619D02*
X14785477Y-11656571D01*
X14785477Y-11656571D02*
X14795000Y-11628000D01*
X14795000Y-11628000D02*
X14804524Y-11580381D01*
X14804524Y-11580381D02*
X14804524Y-11542286D01*
X14804524Y-11542286D02*
X14795000Y-11494667D01*
X14795000Y-11494667D02*
X14785477Y-11466095D01*
X14785477Y-11466095D02*
X14775953Y-11447048D01*
X14775953Y-11447048D02*
X14756905Y-11418476D01*
X14756905Y-11418476D02*
X14747381Y-11408952D01*
D13*
X9795000Y-11809000D02*
G75*
G03*
X9795000Y-11809000I-25000J0D01*
G01*
D11*
X10080714Y-11701524D02*
X10099762Y-11701524D01*
X10099762Y-11701524D02*
X10118810Y-11711048D01*
X10118810Y-11711048D02*
X10128333Y-11720571D01*
X10128333Y-11720571D02*
X10137857Y-11739619D01*
X10137857Y-11739619D02*
X10147381Y-11777714D01*
X10147381Y-11777714D02*
X10147381Y-11825333D01*
X10147381Y-11825333D02*
X10137857Y-11863428D01*
X10137857Y-11863428D02*
X10128333Y-11882476D01*
X10128333Y-11882476D02*
X10118810Y-11892000D01*
X10118810Y-11892000D02*
X10099762Y-11901524D01*
X10099762Y-11901524D02*
X10080714Y-11901524D01*
X10080714Y-11901524D02*
X10061667Y-11892000D01*
X10061667Y-11892000D02*
X10052143Y-11882476D01*
X10052143Y-11882476D02*
X10042619Y-11863428D01*
X10042619Y-11863428D02*
X10033095Y-11825333D01*
X10033095Y-11825333D02*
X10033095Y-11777714D01*
X10033095Y-11777714D02*
X10042619Y-11739619D01*
X10042619Y-11739619D02*
X10052143Y-11720571D01*
X10052143Y-11720571D02*
X10061667Y-11711048D01*
X10061667Y-11711048D02*
X10080714Y-11701524D01*
X10233095Y-11882476D02*
X10242619Y-11892000D01*
X10242619Y-11892000D02*
X10233095Y-11901524D01*
X10233095Y-11901524D02*
X10223571Y-11892000D01*
X10223571Y-11892000D02*
X10233095Y-11882476D01*
X10233095Y-11882476D02*
X10233095Y-11901524D01*
X10423571Y-11701524D02*
X10328333Y-11701524D01*
X10328333Y-11701524D02*
X10318810Y-11796762D01*
X10318810Y-11796762D02*
X10328333Y-11787238D01*
X10328333Y-11787238D02*
X10347381Y-11777714D01*
X10347381Y-11777714D02*
X10395000Y-11777714D01*
X10395000Y-11777714D02*
X10414048Y-11787238D01*
X10414048Y-11787238D02*
X10423571Y-11796762D01*
X10423571Y-11796762D02*
X10433095Y-11815809D01*
X10433095Y-11815809D02*
X10433095Y-11863428D01*
X10433095Y-11863428D02*
X10423571Y-11882476D01*
X10423571Y-11882476D02*
X10414048Y-11892000D01*
X10414048Y-11892000D02*
X10395000Y-11901524D01*
X10395000Y-11901524D02*
X10347381Y-11901524D01*
X10347381Y-11901524D02*
X10328333Y-11892000D01*
X10328333Y-11892000D02*
X10318810Y-11882476D01*
X10556905Y-11701524D02*
X10575952Y-11701524D01*
X10575952Y-11701524D02*
X10595000Y-11711048D01*
X10595000Y-11711048D02*
X10604524Y-11720571D01*
X10604524Y-11720571D02*
X10614048Y-11739619D01*
X10614048Y-11739619D02*
X10623571Y-11777714D01*
X10623571Y-11777714D02*
X10623571Y-11825333D01*
X10623571Y-11825333D02*
X10614048Y-11863428D01*
X10614048Y-11863428D02*
X10604524Y-11882476D01*
X10604524Y-11882476D02*
X10595000Y-11892000D01*
X10595000Y-11892000D02*
X10575952Y-11901524D01*
X10575952Y-11901524D02*
X10556905Y-11901524D01*
X10556905Y-11901524D02*
X10537857Y-11892000D01*
X10537857Y-11892000D02*
X10528333Y-11882476D01*
X10528333Y-11882476D02*
X10518810Y-11863428D01*
X10518810Y-11863428D02*
X10509286Y-11825333D01*
X10509286Y-11825333D02*
X10509286Y-11777714D01*
X10509286Y-11777714D02*
X10518810Y-11739619D01*
X10518810Y-11739619D02*
X10528333Y-11720571D01*
X10528333Y-11720571D02*
X10537857Y-11711048D01*
X10537857Y-11711048D02*
X10556905Y-11701524D01*
X10747381Y-11701524D02*
X10766429Y-11701524D01*
X10766429Y-11701524D02*
X10785476Y-11711048D01*
X10785476Y-11711048D02*
X10795000Y-11720571D01*
X10795000Y-11720571D02*
X10804524Y-11739619D01*
X10804524Y-11739619D02*
X10814048Y-11777714D01*
X10814048Y-11777714D02*
X10814048Y-11825333D01*
X10814048Y-11825333D02*
X10804524Y-11863428D01*
X10804524Y-11863428D02*
X10795000Y-11882476D01*
X10795000Y-11882476D02*
X10785476Y-11892000D01*
X10785476Y-11892000D02*
X10766429Y-11901524D01*
X10766429Y-11901524D02*
X10747381Y-11901524D01*
X10747381Y-11901524D02*
X10728333Y-11892000D01*
X10728333Y-11892000D02*
X10718810Y-11882476D01*
X10718810Y-11882476D02*
X10709286Y-11863428D01*
X10709286Y-11863428D02*
X10699762Y-11825333D01*
X10699762Y-11825333D02*
X10699762Y-11777714D01*
X10699762Y-11777714D02*
X10709286Y-11739619D01*
X10709286Y-11739619D02*
X10718810Y-11720571D01*
X10718810Y-11720571D02*
X10728333Y-11711048D01*
X10728333Y-11711048D02*
X10747381Y-11701524D01*
X10899762Y-11901524D02*
X10899762Y-11768190D01*
X10899762Y-11787238D02*
X10909286Y-11777714D01*
X10909286Y-11777714D02*
X10928333Y-11768190D01*
X10928333Y-11768190D02*
X10956905Y-11768190D01*
X10956905Y-11768190D02*
X10975952Y-11777714D01*
X10975952Y-11777714D02*
X10985476Y-11796762D01*
X10985476Y-11796762D02*
X10985476Y-11901524D01*
X10985476Y-11796762D02*
X10995000Y-11777714D01*
X10995000Y-11777714D02*
X11014048Y-11768190D01*
X11014048Y-11768190D02*
X11042619Y-11768190D01*
X11042619Y-11768190D02*
X11061667Y-11777714D01*
X11061667Y-11777714D02*
X11071191Y-11796762D01*
X11071191Y-11796762D02*
X11071191Y-11901524D01*
X11166429Y-11901524D02*
X11166429Y-11768190D01*
X11166429Y-11787238D02*
X11175952Y-11777714D01*
X11175952Y-11777714D02*
X11195000Y-11768190D01*
X11195000Y-11768190D02*
X11223571Y-11768190D01*
X11223571Y-11768190D02*
X11242619Y-11777714D01*
X11242619Y-11777714D02*
X11252143Y-11796762D01*
X11252143Y-11796762D02*
X11252143Y-11901524D01*
X11252143Y-11796762D02*
X11261667Y-11777714D01*
X11261667Y-11777714D02*
X11280714Y-11768190D01*
X11280714Y-11768190D02*
X11309286Y-11768190D01*
X11309286Y-11768190D02*
X11328333Y-11777714D01*
X11328333Y-11777714D02*
X11337857Y-11796762D01*
X11337857Y-11796762D02*
X11337857Y-11901524D01*
X11728333Y-11692000D02*
X11556905Y-11949143D01*
X11985476Y-11701524D02*
X12004524Y-11701524D01*
X12004524Y-11701524D02*
X12023572Y-11711048D01*
X12023572Y-11711048D02*
X12033095Y-11720571D01*
X12033095Y-11720571D02*
X12042619Y-11739619D01*
X12042619Y-11739619D02*
X12052143Y-11777714D01*
X12052143Y-11777714D02*
X12052143Y-11825333D01*
X12052143Y-11825333D02*
X12042619Y-11863428D01*
X12042619Y-11863428D02*
X12033095Y-11882476D01*
X12033095Y-11882476D02*
X12023572Y-11892000D01*
X12023572Y-11892000D02*
X12004524Y-11901524D01*
X12004524Y-11901524D02*
X11985476Y-11901524D01*
X11985476Y-11901524D02*
X11966429Y-11892000D01*
X11966429Y-11892000D02*
X11956905Y-11882476D01*
X11956905Y-11882476D02*
X11947381Y-11863428D01*
X11947381Y-11863428D02*
X11937857Y-11825333D01*
X11937857Y-11825333D02*
X11937857Y-11777714D01*
X11937857Y-11777714D02*
X11947381Y-11739619D01*
X11947381Y-11739619D02*
X11956905Y-11720571D01*
X11956905Y-11720571D02*
X11966429Y-11711048D01*
X11966429Y-11711048D02*
X11985476Y-11701524D01*
X12137857Y-11882476D02*
X12147381Y-11892000D01*
X12147381Y-11892000D02*
X12137857Y-11901524D01*
X12137857Y-11901524D02*
X12128333Y-11892000D01*
X12128333Y-11892000D02*
X12137857Y-11882476D01*
X12137857Y-11882476D02*
X12137857Y-11901524D01*
X12271191Y-11701524D02*
X12290238Y-11701524D01*
X12290238Y-11701524D02*
X12309286Y-11711048D01*
X12309286Y-11711048D02*
X12318810Y-11720571D01*
X12318810Y-11720571D02*
X12328333Y-11739619D01*
X12328333Y-11739619D02*
X12337857Y-11777714D01*
X12337857Y-11777714D02*
X12337857Y-11825333D01*
X12337857Y-11825333D02*
X12328333Y-11863428D01*
X12328333Y-11863428D02*
X12318810Y-11882476D01*
X12318810Y-11882476D02*
X12309286Y-11892000D01*
X12309286Y-11892000D02*
X12290238Y-11901524D01*
X12290238Y-11901524D02*
X12271191Y-11901524D01*
X12271191Y-11901524D02*
X12252143Y-11892000D01*
X12252143Y-11892000D02*
X12242619Y-11882476D01*
X12242619Y-11882476D02*
X12233095Y-11863428D01*
X12233095Y-11863428D02*
X12223572Y-11825333D01*
X12223572Y-11825333D02*
X12223572Y-11777714D01*
X12223572Y-11777714D02*
X12233095Y-11739619D01*
X12233095Y-11739619D02*
X12242619Y-11720571D01*
X12242619Y-11720571D02*
X12252143Y-11711048D01*
X12252143Y-11711048D02*
X12271191Y-11701524D01*
X12528333Y-11901524D02*
X12414048Y-11901524D01*
X12471191Y-11901524D02*
X12471191Y-11701524D01*
X12471191Y-11701524D02*
X12452143Y-11730095D01*
X12452143Y-11730095D02*
X12433095Y-11749143D01*
X12433095Y-11749143D02*
X12414048Y-11758667D01*
X12623572Y-11901524D02*
X12661667Y-11901524D01*
X12661667Y-11901524D02*
X12680714Y-11892000D01*
X12680714Y-11892000D02*
X12690238Y-11882476D01*
X12690238Y-11882476D02*
X12709286Y-11853905D01*
X12709286Y-11853905D02*
X12718810Y-11815809D01*
X12718810Y-11815809D02*
X12718810Y-11739619D01*
X12718810Y-11739619D02*
X12709286Y-11720571D01*
X12709286Y-11720571D02*
X12699762Y-11711048D01*
X12699762Y-11711048D02*
X12680714Y-11701524D01*
X12680714Y-11701524D02*
X12642619Y-11701524D01*
X12642619Y-11701524D02*
X12623572Y-11711048D01*
X12623572Y-11711048D02*
X12614048Y-11720571D01*
X12614048Y-11720571D02*
X12604524Y-11739619D01*
X12604524Y-11739619D02*
X12604524Y-11787238D01*
X12604524Y-11787238D02*
X12614048Y-11806286D01*
X12614048Y-11806286D02*
X12623572Y-11815809D01*
X12623572Y-11815809D02*
X12642619Y-11825333D01*
X12642619Y-11825333D02*
X12680714Y-11825333D01*
X12680714Y-11825333D02*
X12699762Y-11815809D01*
X12699762Y-11815809D02*
X12709286Y-11806286D01*
X12709286Y-11806286D02*
X12718810Y-11787238D01*
X12785476Y-11701524D02*
X12918810Y-11701524D01*
X12918810Y-11701524D02*
X12833095Y-11901524D01*
X12985476Y-11701524D02*
X12985476Y-11739619D01*
X13061667Y-11701524D02*
X13061667Y-11739619D01*
X13356905Y-11977714D02*
X13347381Y-11968190D01*
X13347381Y-11968190D02*
X13328334Y-11939619D01*
X13328334Y-11939619D02*
X13318810Y-11920571D01*
X13318810Y-11920571D02*
X13309286Y-11892000D01*
X13309286Y-11892000D02*
X13299762Y-11844381D01*
X13299762Y-11844381D02*
X13299762Y-11806286D01*
X13299762Y-11806286D02*
X13309286Y-11758667D01*
X13309286Y-11758667D02*
X13318810Y-11730095D01*
X13318810Y-11730095D02*
X13328334Y-11711048D01*
X13328334Y-11711048D02*
X13347381Y-11682476D01*
X13347381Y-11682476D02*
X13356905Y-11672952D01*
X13414048Y-11701524D02*
X13537857Y-11701524D01*
X13537857Y-11701524D02*
X13471191Y-11777714D01*
X13471191Y-11777714D02*
X13499762Y-11777714D01*
X13499762Y-11777714D02*
X13518810Y-11787238D01*
X13518810Y-11787238D02*
X13528334Y-11796762D01*
X13528334Y-11796762D02*
X13537857Y-11815809D01*
X13537857Y-11815809D02*
X13537857Y-11863428D01*
X13537857Y-11863428D02*
X13528334Y-11882476D01*
X13528334Y-11882476D02*
X13518810Y-11892000D01*
X13518810Y-11892000D02*
X13499762Y-11901524D01*
X13499762Y-11901524D02*
X13442619Y-11901524D01*
X13442619Y-11901524D02*
X13423572Y-11892000D01*
X13423572Y-11892000D02*
X13414048Y-11882476D01*
X13614048Y-11720571D02*
X13623572Y-11711048D01*
X13623572Y-11711048D02*
X13642619Y-11701524D01*
X13642619Y-11701524D02*
X13690238Y-11701524D01*
X13690238Y-11701524D02*
X13709286Y-11711048D01*
X13709286Y-11711048D02*
X13718810Y-11720571D01*
X13718810Y-11720571D02*
X13728334Y-11739619D01*
X13728334Y-11739619D02*
X13728334Y-11758667D01*
X13728334Y-11758667D02*
X13718810Y-11787238D01*
X13718810Y-11787238D02*
X13604524Y-11901524D01*
X13604524Y-11901524D02*
X13728334Y-11901524D01*
X13966429Y-11901524D02*
X13966429Y-11701524D01*
X14052143Y-11901524D02*
X14052143Y-11796762D01*
X14052143Y-11796762D02*
X14042619Y-11777714D01*
X14042619Y-11777714D02*
X14023572Y-11768190D01*
X14023572Y-11768190D02*
X13995000Y-11768190D01*
X13995000Y-11768190D02*
X13975953Y-11777714D01*
X13975953Y-11777714D02*
X13966429Y-11787238D01*
X14175953Y-11901524D02*
X14156905Y-11892000D01*
X14156905Y-11892000D02*
X14147381Y-11882476D01*
X14147381Y-11882476D02*
X14137857Y-11863428D01*
X14137857Y-11863428D02*
X14137857Y-11806286D01*
X14137857Y-11806286D02*
X14147381Y-11787238D01*
X14147381Y-11787238D02*
X14156905Y-11777714D01*
X14156905Y-11777714D02*
X14175953Y-11768190D01*
X14175953Y-11768190D02*
X14204524Y-11768190D01*
X14204524Y-11768190D02*
X14223572Y-11777714D01*
X14223572Y-11777714D02*
X14233096Y-11787238D01*
X14233096Y-11787238D02*
X14242619Y-11806286D01*
X14242619Y-11806286D02*
X14242619Y-11863428D01*
X14242619Y-11863428D02*
X14233096Y-11882476D01*
X14233096Y-11882476D02*
X14223572Y-11892000D01*
X14223572Y-11892000D02*
X14204524Y-11901524D01*
X14204524Y-11901524D02*
X14175953Y-11901524D01*
X14356905Y-11901524D02*
X14337857Y-11892000D01*
X14337857Y-11892000D02*
X14328334Y-11872952D01*
X14328334Y-11872952D02*
X14328334Y-11701524D01*
X14509286Y-11892000D02*
X14490238Y-11901524D01*
X14490238Y-11901524D02*
X14452143Y-11901524D01*
X14452143Y-11901524D02*
X14433096Y-11892000D01*
X14433096Y-11892000D02*
X14423572Y-11872952D01*
X14423572Y-11872952D02*
X14423572Y-11796762D01*
X14423572Y-11796762D02*
X14433096Y-11777714D01*
X14433096Y-11777714D02*
X14452143Y-11768190D01*
X14452143Y-11768190D02*
X14490238Y-11768190D01*
X14490238Y-11768190D02*
X14509286Y-11777714D01*
X14509286Y-11777714D02*
X14518810Y-11796762D01*
X14518810Y-11796762D02*
X14518810Y-11815809D01*
X14518810Y-11815809D02*
X14423572Y-11834857D01*
X14595000Y-11892000D02*
X14614048Y-11901524D01*
X14614048Y-11901524D02*
X14652143Y-11901524D01*
X14652143Y-11901524D02*
X14671191Y-11892000D01*
X14671191Y-11892000D02*
X14680715Y-11872952D01*
X14680715Y-11872952D02*
X14680715Y-11863428D01*
X14680715Y-11863428D02*
X14671191Y-11844381D01*
X14671191Y-11844381D02*
X14652143Y-11834857D01*
X14652143Y-11834857D02*
X14623572Y-11834857D01*
X14623572Y-11834857D02*
X14604524Y-11825333D01*
X14604524Y-11825333D02*
X14595000Y-11806286D01*
X14595000Y-11806286D02*
X14595000Y-11796762D01*
X14595000Y-11796762D02*
X14604524Y-11777714D01*
X14604524Y-11777714D02*
X14623572Y-11768190D01*
X14623572Y-11768190D02*
X14652143Y-11768190D01*
X14652143Y-11768190D02*
X14671191Y-11777714D01*
X14747381Y-11977714D02*
X14756905Y-11968190D01*
X14756905Y-11968190D02*
X14775953Y-11939619D01*
X14775953Y-11939619D02*
X14785477Y-11920571D01*
X14785477Y-11920571D02*
X14795000Y-11892000D01*
X14795000Y-11892000D02*
X14804524Y-11844381D01*
X14804524Y-11844381D02*
X14804524Y-11806286D01*
X14804524Y-11806286D02*
X14795000Y-11758667D01*
X14795000Y-11758667D02*
X14785477Y-11730095D01*
X14785477Y-11730095D02*
X14775953Y-11711048D01*
X14775953Y-11711048D02*
X14756905Y-11682476D01*
X14756905Y-11682476D02*
X14747381Y-11672952D01*
D14*
X9747500Y-12025500D02*
X9747500Y-12120500D01*
X9700000Y-12073000D02*
X9795000Y-12073000D01*
D11*
X10080714Y-11965524D02*
X10099762Y-11965524D01*
X10099762Y-11965524D02*
X10118810Y-11975048D01*
X10118810Y-11975048D02*
X10128333Y-11984571D01*
X10128333Y-11984571D02*
X10137857Y-12003619D01*
X10137857Y-12003619D02*
X10147381Y-12041714D01*
X10147381Y-12041714D02*
X10147381Y-12089333D01*
X10147381Y-12089333D02*
X10137857Y-12127428D01*
X10137857Y-12127428D02*
X10128333Y-12146476D01*
X10128333Y-12146476D02*
X10118810Y-12156000D01*
X10118810Y-12156000D02*
X10099762Y-12165524D01*
X10099762Y-12165524D02*
X10080714Y-12165524D01*
X10080714Y-12165524D02*
X10061667Y-12156000D01*
X10061667Y-12156000D02*
X10052143Y-12146476D01*
X10052143Y-12146476D02*
X10042619Y-12127428D01*
X10042619Y-12127428D02*
X10033095Y-12089333D01*
X10033095Y-12089333D02*
X10033095Y-12041714D01*
X10033095Y-12041714D02*
X10042619Y-12003619D01*
X10042619Y-12003619D02*
X10052143Y-11984571D01*
X10052143Y-11984571D02*
X10061667Y-11975048D01*
X10061667Y-11975048D02*
X10080714Y-11965524D01*
X10233095Y-12146476D02*
X10242619Y-12156000D01*
X10242619Y-12156000D02*
X10233095Y-12165524D01*
X10233095Y-12165524D02*
X10223571Y-12156000D01*
X10223571Y-12156000D02*
X10233095Y-12146476D01*
X10233095Y-12146476D02*
X10233095Y-12165524D01*
X10337857Y-12165524D02*
X10375952Y-12165524D01*
X10375952Y-12165524D02*
X10395000Y-12156000D01*
X10395000Y-12156000D02*
X10404524Y-12146476D01*
X10404524Y-12146476D02*
X10423571Y-12117905D01*
X10423571Y-12117905D02*
X10433095Y-12079809D01*
X10433095Y-12079809D02*
X10433095Y-12003619D01*
X10433095Y-12003619D02*
X10423571Y-11984571D01*
X10423571Y-11984571D02*
X10414048Y-11975048D01*
X10414048Y-11975048D02*
X10395000Y-11965524D01*
X10395000Y-11965524D02*
X10356905Y-11965524D01*
X10356905Y-11965524D02*
X10337857Y-11975048D01*
X10337857Y-11975048D02*
X10328333Y-11984571D01*
X10328333Y-11984571D02*
X10318810Y-12003619D01*
X10318810Y-12003619D02*
X10318810Y-12051238D01*
X10318810Y-12051238D02*
X10328333Y-12070286D01*
X10328333Y-12070286D02*
X10337857Y-12079809D01*
X10337857Y-12079809D02*
X10356905Y-12089333D01*
X10356905Y-12089333D02*
X10395000Y-12089333D01*
X10395000Y-12089333D02*
X10414048Y-12079809D01*
X10414048Y-12079809D02*
X10423571Y-12070286D01*
X10423571Y-12070286D02*
X10433095Y-12051238D01*
X10614048Y-11965524D02*
X10518810Y-11965524D01*
X10518810Y-11965524D02*
X10509286Y-12060762D01*
X10509286Y-12060762D02*
X10518810Y-12051238D01*
X10518810Y-12051238D02*
X10537857Y-12041714D01*
X10537857Y-12041714D02*
X10585476Y-12041714D01*
X10585476Y-12041714D02*
X10604524Y-12051238D01*
X10604524Y-12051238D02*
X10614048Y-12060762D01*
X10614048Y-12060762D02*
X10623571Y-12079809D01*
X10623571Y-12079809D02*
X10623571Y-12127428D01*
X10623571Y-12127428D02*
X10614048Y-12146476D01*
X10614048Y-12146476D02*
X10604524Y-12156000D01*
X10604524Y-12156000D02*
X10585476Y-12165524D01*
X10585476Y-12165524D02*
X10537857Y-12165524D01*
X10537857Y-12165524D02*
X10518810Y-12156000D01*
X10518810Y-12156000D02*
X10509286Y-12146476D01*
X10747381Y-11965524D02*
X10766429Y-11965524D01*
X10766429Y-11965524D02*
X10785476Y-11975048D01*
X10785476Y-11975048D02*
X10795000Y-11984571D01*
X10795000Y-11984571D02*
X10804524Y-12003619D01*
X10804524Y-12003619D02*
X10814048Y-12041714D01*
X10814048Y-12041714D02*
X10814048Y-12089333D01*
X10814048Y-12089333D02*
X10804524Y-12127428D01*
X10804524Y-12127428D02*
X10795000Y-12146476D01*
X10795000Y-12146476D02*
X10785476Y-12156000D01*
X10785476Y-12156000D02*
X10766429Y-12165524D01*
X10766429Y-12165524D02*
X10747381Y-12165524D01*
X10747381Y-12165524D02*
X10728333Y-12156000D01*
X10728333Y-12156000D02*
X10718810Y-12146476D01*
X10718810Y-12146476D02*
X10709286Y-12127428D01*
X10709286Y-12127428D02*
X10699762Y-12089333D01*
X10699762Y-12089333D02*
X10699762Y-12041714D01*
X10699762Y-12041714D02*
X10709286Y-12003619D01*
X10709286Y-12003619D02*
X10718810Y-11984571D01*
X10718810Y-11984571D02*
X10728333Y-11975048D01*
X10728333Y-11975048D02*
X10747381Y-11965524D01*
X10899762Y-12165524D02*
X10899762Y-12032190D01*
X10899762Y-12051238D02*
X10909286Y-12041714D01*
X10909286Y-12041714D02*
X10928333Y-12032190D01*
X10928333Y-12032190D02*
X10956905Y-12032190D01*
X10956905Y-12032190D02*
X10975952Y-12041714D01*
X10975952Y-12041714D02*
X10985476Y-12060762D01*
X10985476Y-12060762D02*
X10985476Y-12165524D01*
X10985476Y-12060762D02*
X10995000Y-12041714D01*
X10995000Y-12041714D02*
X11014048Y-12032190D01*
X11014048Y-12032190D02*
X11042619Y-12032190D01*
X11042619Y-12032190D02*
X11061667Y-12041714D01*
X11061667Y-12041714D02*
X11071191Y-12060762D01*
X11071191Y-12060762D02*
X11071191Y-12165524D01*
X11166429Y-12165524D02*
X11166429Y-12032190D01*
X11166429Y-12051238D02*
X11175952Y-12041714D01*
X11175952Y-12041714D02*
X11195000Y-12032190D01*
X11195000Y-12032190D02*
X11223571Y-12032190D01*
X11223571Y-12032190D02*
X11242619Y-12041714D01*
X11242619Y-12041714D02*
X11252143Y-12060762D01*
X11252143Y-12060762D02*
X11252143Y-12165524D01*
X11252143Y-12060762D02*
X11261667Y-12041714D01*
X11261667Y-12041714D02*
X11280714Y-12032190D01*
X11280714Y-12032190D02*
X11309286Y-12032190D01*
X11309286Y-12032190D02*
X11328333Y-12041714D01*
X11328333Y-12041714D02*
X11337857Y-12060762D01*
X11337857Y-12060762D02*
X11337857Y-12165524D01*
X11728333Y-11956000D02*
X11556905Y-12213143D01*
X11985476Y-11965524D02*
X12004524Y-11965524D01*
X12004524Y-11965524D02*
X12023572Y-11975048D01*
X12023572Y-11975048D02*
X12033095Y-11984571D01*
X12033095Y-11984571D02*
X12042619Y-12003619D01*
X12042619Y-12003619D02*
X12052143Y-12041714D01*
X12052143Y-12041714D02*
X12052143Y-12089333D01*
X12052143Y-12089333D02*
X12042619Y-12127428D01*
X12042619Y-12127428D02*
X12033095Y-12146476D01*
X12033095Y-12146476D02*
X12023572Y-12156000D01*
X12023572Y-12156000D02*
X12004524Y-12165524D01*
X12004524Y-12165524D02*
X11985476Y-12165524D01*
X11985476Y-12165524D02*
X11966429Y-12156000D01*
X11966429Y-12156000D02*
X11956905Y-12146476D01*
X11956905Y-12146476D02*
X11947381Y-12127428D01*
X11947381Y-12127428D02*
X11937857Y-12089333D01*
X11937857Y-12089333D02*
X11937857Y-12041714D01*
X11937857Y-12041714D02*
X11947381Y-12003619D01*
X11947381Y-12003619D02*
X11956905Y-11984571D01*
X11956905Y-11984571D02*
X11966429Y-11975048D01*
X11966429Y-11975048D02*
X11985476Y-11965524D01*
X12137857Y-12146476D02*
X12147381Y-12156000D01*
X12147381Y-12156000D02*
X12137857Y-12165524D01*
X12137857Y-12165524D02*
X12128333Y-12156000D01*
X12128333Y-12156000D02*
X12137857Y-12146476D01*
X12137857Y-12146476D02*
X12137857Y-12165524D01*
X12271191Y-11965524D02*
X12290238Y-11965524D01*
X12290238Y-11965524D02*
X12309286Y-11975048D01*
X12309286Y-11975048D02*
X12318810Y-11984571D01*
X12318810Y-11984571D02*
X12328333Y-12003619D01*
X12328333Y-12003619D02*
X12337857Y-12041714D01*
X12337857Y-12041714D02*
X12337857Y-12089333D01*
X12337857Y-12089333D02*
X12328333Y-12127428D01*
X12328333Y-12127428D02*
X12318810Y-12146476D01*
X12318810Y-12146476D02*
X12309286Y-12156000D01*
X12309286Y-12156000D02*
X12290238Y-12165524D01*
X12290238Y-12165524D02*
X12271191Y-12165524D01*
X12271191Y-12165524D02*
X12252143Y-12156000D01*
X12252143Y-12156000D02*
X12242619Y-12146476D01*
X12242619Y-12146476D02*
X12233095Y-12127428D01*
X12233095Y-12127428D02*
X12223572Y-12089333D01*
X12223572Y-12089333D02*
X12223572Y-12041714D01*
X12223572Y-12041714D02*
X12233095Y-12003619D01*
X12233095Y-12003619D02*
X12242619Y-11984571D01*
X12242619Y-11984571D02*
X12252143Y-11975048D01*
X12252143Y-11975048D02*
X12271191Y-11965524D01*
X12404524Y-11965524D02*
X12528333Y-11965524D01*
X12528333Y-11965524D02*
X12461667Y-12041714D01*
X12461667Y-12041714D02*
X12490238Y-12041714D01*
X12490238Y-12041714D02*
X12509286Y-12051238D01*
X12509286Y-12051238D02*
X12518810Y-12060762D01*
X12518810Y-12060762D02*
X12528333Y-12079809D01*
X12528333Y-12079809D02*
X12528333Y-12127428D01*
X12528333Y-12127428D02*
X12518810Y-12146476D01*
X12518810Y-12146476D02*
X12509286Y-12156000D01*
X12509286Y-12156000D02*
X12490238Y-12165524D01*
X12490238Y-12165524D02*
X12433095Y-12165524D01*
X12433095Y-12165524D02*
X12414048Y-12156000D01*
X12414048Y-12156000D02*
X12404524Y-12146476D01*
X12595000Y-11965524D02*
X12728333Y-11965524D01*
X12728333Y-11965524D02*
X12642619Y-12165524D01*
X12890238Y-12032190D02*
X12890238Y-12165524D01*
X12842619Y-11956000D02*
X12795000Y-12098857D01*
X12795000Y-12098857D02*
X12918810Y-12098857D01*
X12985476Y-11965524D02*
X12985476Y-12003619D01*
X13061667Y-11965524D02*
X13061667Y-12003619D01*
X13356905Y-12241714D02*
X13347381Y-12232190D01*
X13347381Y-12232190D02*
X13328334Y-12203619D01*
X13328334Y-12203619D02*
X13318810Y-12184571D01*
X13318810Y-12184571D02*
X13309286Y-12156000D01*
X13309286Y-12156000D02*
X13299762Y-12108381D01*
X13299762Y-12108381D02*
X13299762Y-12070286D01*
X13299762Y-12070286D02*
X13309286Y-12022667D01*
X13309286Y-12022667D02*
X13318810Y-11994095D01*
X13318810Y-11994095D02*
X13328334Y-11975048D01*
X13328334Y-11975048D02*
X13347381Y-11946476D01*
X13347381Y-11946476D02*
X13356905Y-11936952D01*
X13528334Y-11965524D02*
X13433095Y-11965524D01*
X13433095Y-11965524D02*
X13423572Y-12060762D01*
X13423572Y-12060762D02*
X13433095Y-12051238D01*
X13433095Y-12051238D02*
X13452143Y-12041714D01*
X13452143Y-12041714D02*
X13499762Y-12041714D01*
X13499762Y-12041714D02*
X13518810Y-12051238D01*
X13518810Y-12051238D02*
X13528334Y-12060762D01*
X13528334Y-12060762D02*
X13537857Y-12079809D01*
X13537857Y-12079809D02*
X13537857Y-12127428D01*
X13537857Y-12127428D02*
X13528334Y-12146476D01*
X13528334Y-12146476D02*
X13518810Y-12156000D01*
X13518810Y-12156000D02*
X13499762Y-12165524D01*
X13499762Y-12165524D02*
X13452143Y-12165524D01*
X13452143Y-12165524D02*
X13433095Y-12156000D01*
X13433095Y-12156000D02*
X13423572Y-12146476D01*
X13775953Y-12165524D02*
X13775953Y-11965524D01*
X13861667Y-12165524D02*
X13861667Y-12060762D01*
X13861667Y-12060762D02*
X13852143Y-12041714D01*
X13852143Y-12041714D02*
X13833096Y-12032190D01*
X13833096Y-12032190D02*
X13804524Y-12032190D01*
X13804524Y-12032190D02*
X13785476Y-12041714D01*
X13785476Y-12041714D02*
X13775953Y-12051238D01*
X13985476Y-12165524D02*
X13966429Y-12156000D01*
X13966429Y-12156000D02*
X13956905Y-12146476D01*
X13956905Y-12146476D02*
X13947381Y-12127428D01*
X13947381Y-12127428D02*
X13947381Y-12070286D01*
X13947381Y-12070286D02*
X13956905Y-12051238D01*
X13956905Y-12051238D02*
X13966429Y-12041714D01*
X13966429Y-12041714D02*
X13985476Y-12032190D01*
X13985476Y-12032190D02*
X14014048Y-12032190D01*
X14014048Y-12032190D02*
X14033096Y-12041714D01*
X14033096Y-12041714D02*
X14042619Y-12051238D01*
X14042619Y-12051238D02*
X14052143Y-12070286D01*
X14052143Y-12070286D02*
X14052143Y-12127428D01*
X14052143Y-12127428D02*
X14042619Y-12146476D01*
X14042619Y-12146476D02*
X14033096Y-12156000D01*
X14033096Y-12156000D02*
X14014048Y-12165524D01*
X14014048Y-12165524D02*
X13985476Y-12165524D01*
X14166429Y-12165524D02*
X14147381Y-12156000D01*
X14147381Y-12156000D02*
X14137857Y-12136952D01*
X14137857Y-12136952D02*
X14137857Y-11965524D01*
X14318810Y-12156000D02*
X14299762Y-12165524D01*
X14299762Y-12165524D02*
X14261667Y-12165524D01*
X14261667Y-12165524D02*
X14242619Y-12156000D01*
X14242619Y-12156000D02*
X14233096Y-12136952D01*
X14233096Y-12136952D02*
X14233096Y-12060762D01*
X14233096Y-12060762D02*
X14242619Y-12041714D01*
X14242619Y-12041714D02*
X14261667Y-12032190D01*
X14261667Y-12032190D02*
X14299762Y-12032190D01*
X14299762Y-12032190D02*
X14318810Y-12041714D01*
X14318810Y-12041714D02*
X14328334Y-12060762D01*
X14328334Y-12060762D02*
X14328334Y-12079809D01*
X14328334Y-12079809D02*
X14233096Y-12098857D01*
X14404524Y-12156000D02*
X14423572Y-12165524D01*
X14423572Y-12165524D02*
X14461667Y-12165524D01*
X14461667Y-12165524D02*
X14480715Y-12156000D01*
X14480715Y-12156000D02*
X14490238Y-12136952D01*
X14490238Y-12136952D02*
X14490238Y-12127428D01*
X14490238Y-12127428D02*
X14480715Y-12108381D01*
X14480715Y-12108381D02*
X14461667Y-12098857D01*
X14461667Y-12098857D02*
X14433096Y-12098857D01*
X14433096Y-12098857D02*
X14414048Y-12089333D01*
X14414048Y-12089333D02*
X14404524Y-12070286D01*
X14404524Y-12070286D02*
X14404524Y-12060762D01*
X14404524Y-12060762D02*
X14414048Y-12041714D01*
X14414048Y-12041714D02*
X14433096Y-12032190D01*
X14433096Y-12032190D02*
X14461667Y-12032190D01*
X14461667Y-12032190D02*
X14480715Y-12041714D01*
X14556905Y-12241714D02*
X14566429Y-12232190D01*
X14566429Y-12232190D02*
X14585477Y-12203619D01*
X14585477Y-12203619D02*
X14595000Y-12184571D01*
X14595000Y-12184571D02*
X14604524Y-12156000D01*
X14604524Y-12156000D02*
X14614048Y-12108381D01*
X14614048Y-12108381D02*
X14614048Y-12070286D01*
X14614048Y-12070286D02*
X14604524Y-12022667D01*
X14604524Y-12022667D02*
X14595000Y-11994095D01*
X14595000Y-11994095D02*
X14585477Y-11975048D01*
X14585477Y-11975048D02*
X14566429Y-11946476D01*
X14566429Y-11946476D02*
X14556905Y-11936952D01*
D10*
X9780356Y-12372356D02*
X9780356Y-12301644D01*
X9709644Y-12301644D01*
X9709644Y-12372356D01*
X9780356Y-12372356D01*
D11*
X10147381Y-12429524D02*
X10033095Y-12429524D01*
X10090238Y-12429524D02*
X10090238Y-12229524D01*
X10090238Y-12229524D02*
X10071190Y-12258095D01*
X10071190Y-12258095D02*
X10052143Y-12277143D01*
X10052143Y-12277143D02*
X10033095Y-12286667D01*
X10233095Y-12410476D02*
X10242619Y-12420000D01*
X10242619Y-12420000D02*
X10233095Y-12429524D01*
X10233095Y-12429524D02*
X10223571Y-12420000D01*
X10223571Y-12420000D02*
X10233095Y-12410476D01*
X10233095Y-12410476D02*
X10233095Y-12429524D01*
X10366429Y-12229524D02*
X10385476Y-12229524D01*
X10385476Y-12229524D02*
X10404524Y-12239048D01*
X10404524Y-12239048D02*
X10414048Y-12248571D01*
X10414048Y-12248571D02*
X10423571Y-12267619D01*
X10423571Y-12267619D02*
X10433095Y-12305714D01*
X10433095Y-12305714D02*
X10433095Y-12353333D01*
X10433095Y-12353333D02*
X10423571Y-12391428D01*
X10423571Y-12391428D02*
X10414048Y-12410476D01*
X10414048Y-12410476D02*
X10404524Y-12420000D01*
X10404524Y-12420000D02*
X10385476Y-12429524D01*
X10385476Y-12429524D02*
X10366429Y-12429524D01*
X10366429Y-12429524D02*
X10347381Y-12420000D01*
X10347381Y-12420000D02*
X10337857Y-12410476D01*
X10337857Y-12410476D02*
X10328333Y-12391428D01*
X10328333Y-12391428D02*
X10318810Y-12353333D01*
X10318810Y-12353333D02*
X10318810Y-12305714D01*
X10318810Y-12305714D02*
X10328333Y-12267619D01*
X10328333Y-12267619D02*
X10337857Y-12248571D01*
X10337857Y-12248571D02*
X10347381Y-12239048D01*
X10347381Y-12239048D02*
X10366429Y-12229524D01*
X10556905Y-12229524D02*
X10575952Y-12229524D01*
X10575952Y-12229524D02*
X10595000Y-12239048D01*
X10595000Y-12239048D02*
X10604524Y-12248571D01*
X10604524Y-12248571D02*
X10614048Y-12267619D01*
X10614048Y-12267619D02*
X10623571Y-12305714D01*
X10623571Y-12305714D02*
X10623571Y-12353333D01*
X10623571Y-12353333D02*
X10614048Y-12391428D01*
X10614048Y-12391428D02*
X10604524Y-12410476D01*
X10604524Y-12410476D02*
X10595000Y-12420000D01*
X10595000Y-12420000D02*
X10575952Y-12429524D01*
X10575952Y-12429524D02*
X10556905Y-12429524D01*
X10556905Y-12429524D02*
X10537857Y-12420000D01*
X10537857Y-12420000D02*
X10528333Y-12410476D01*
X10528333Y-12410476D02*
X10518810Y-12391428D01*
X10518810Y-12391428D02*
X10509286Y-12353333D01*
X10509286Y-12353333D02*
X10509286Y-12305714D01*
X10509286Y-12305714D02*
X10518810Y-12267619D01*
X10518810Y-12267619D02*
X10528333Y-12248571D01*
X10528333Y-12248571D02*
X10537857Y-12239048D01*
X10537857Y-12239048D02*
X10556905Y-12229524D01*
X10747381Y-12229524D02*
X10766429Y-12229524D01*
X10766429Y-12229524D02*
X10785476Y-12239048D01*
X10785476Y-12239048D02*
X10795000Y-12248571D01*
X10795000Y-12248571D02*
X10804524Y-12267619D01*
X10804524Y-12267619D02*
X10814048Y-12305714D01*
X10814048Y-12305714D02*
X10814048Y-12353333D01*
X10814048Y-12353333D02*
X10804524Y-12391428D01*
X10804524Y-12391428D02*
X10795000Y-12410476D01*
X10795000Y-12410476D02*
X10785476Y-12420000D01*
X10785476Y-12420000D02*
X10766429Y-12429524D01*
X10766429Y-12429524D02*
X10747381Y-12429524D01*
X10747381Y-12429524D02*
X10728333Y-12420000D01*
X10728333Y-12420000D02*
X10718810Y-12410476D01*
X10718810Y-12410476D02*
X10709286Y-12391428D01*
X10709286Y-12391428D02*
X10699762Y-12353333D01*
X10699762Y-12353333D02*
X10699762Y-12305714D01*
X10699762Y-12305714D02*
X10709286Y-12267619D01*
X10709286Y-12267619D02*
X10718810Y-12248571D01*
X10718810Y-12248571D02*
X10728333Y-12239048D01*
X10728333Y-12239048D02*
X10747381Y-12229524D01*
X10899762Y-12429524D02*
X10899762Y-12296190D01*
X10899762Y-12315238D02*
X10909286Y-12305714D01*
X10909286Y-12305714D02*
X10928333Y-12296190D01*
X10928333Y-12296190D02*
X10956905Y-12296190D01*
X10956905Y-12296190D02*
X10975952Y-12305714D01*
X10975952Y-12305714D02*
X10985476Y-12324762D01*
X10985476Y-12324762D02*
X10985476Y-12429524D01*
X10985476Y-12324762D02*
X10995000Y-12305714D01*
X10995000Y-12305714D02*
X11014048Y-12296190D01*
X11014048Y-12296190D02*
X11042619Y-12296190D01*
X11042619Y-12296190D02*
X11061667Y-12305714D01*
X11061667Y-12305714D02*
X11071191Y-12324762D01*
X11071191Y-12324762D02*
X11071191Y-12429524D01*
X11166429Y-12429524D02*
X11166429Y-12296190D01*
X11166429Y-12315238D02*
X11175952Y-12305714D01*
X11175952Y-12305714D02*
X11195000Y-12296190D01*
X11195000Y-12296190D02*
X11223571Y-12296190D01*
X11223571Y-12296190D02*
X11242619Y-12305714D01*
X11242619Y-12305714D02*
X11252143Y-12324762D01*
X11252143Y-12324762D02*
X11252143Y-12429524D01*
X11252143Y-12324762D02*
X11261667Y-12305714D01*
X11261667Y-12305714D02*
X11280714Y-12296190D01*
X11280714Y-12296190D02*
X11309286Y-12296190D01*
X11309286Y-12296190D02*
X11328333Y-12305714D01*
X11328333Y-12305714D02*
X11337857Y-12324762D01*
X11337857Y-12324762D02*
X11337857Y-12429524D01*
X11728333Y-12220000D02*
X11556905Y-12477143D01*
X11985476Y-12229524D02*
X12004524Y-12229524D01*
X12004524Y-12229524D02*
X12023572Y-12239048D01*
X12023572Y-12239048D02*
X12033095Y-12248571D01*
X12033095Y-12248571D02*
X12042619Y-12267619D01*
X12042619Y-12267619D02*
X12052143Y-12305714D01*
X12052143Y-12305714D02*
X12052143Y-12353333D01*
X12052143Y-12353333D02*
X12042619Y-12391428D01*
X12042619Y-12391428D02*
X12033095Y-12410476D01*
X12033095Y-12410476D02*
X12023572Y-12420000D01*
X12023572Y-12420000D02*
X12004524Y-12429524D01*
X12004524Y-12429524D02*
X11985476Y-12429524D01*
X11985476Y-12429524D02*
X11966429Y-12420000D01*
X11966429Y-12420000D02*
X11956905Y-12410476D01*
X11956905Y-12410476D02*
X11947381Y-12391428D01*
X11947381Y-12391428D02*
X11937857Y-12353333D01*
X11937857Y-12353333D02*
X11937857Y-12305714D01*
X11937857Y-12305714D02*
X11947381Y-12267619D01*
X11947381Y-12267619D02*
X11956905Y-12248571D01*
X11956905Y-12248571D02*
X11966429Y-12239048D01*
X11966429Y-12239048D02*
X11985476Y-12229524D01*
X12137857Y-12410476D02*
X12147381Y-12420000D01*
X12147381Y-12420000D02*
X12137857Y-12429524D01*
X12137857Y-12429524D02*
X12128333Y-12420000D01*
X12128333Y-12420000D02*
X12137857Y-12410476D01*
X12137857Y-12410476D02*
X12137857Y-12429524D01*
X12271191Y-12229524D02*
X12290238Y-12229524D01*
X12290238Y-12229524D02*
X12309286Y-12239048D01*
X12309286Y-12239048D02*
X12318810Y-12248571D01*
X12318810Y-12248571D02*
X12328333Y-12267619D01*
X12328333Y-12267619D02*
X12337857Y-12305714D01*
X12337857Y-12305714D02*
X12337857Y-12353333D01*
X12337857Y-12353333D02*
X12328333Y-12391428D01*
X12328333Y-12391428D02*
X12318810Y-12410476D01*
X12318810Y-12410476D02*
X12309286Y-12420000D01*
X12309286Y-12420000D02*
X12290238Y-12429524D01*
X12290238Y-12429524D02*
X12271191Y-12429524D01*
X12271191Y-12429524D02*
X12252143Y-12420000D01*
X12252143Y-12420000D02*
X12242619Y-12410476D01*
X12242619Y-12410476D02*
X12233095Y-12391428D01*
X12233095Y-12391428D02*
X12223572Y-12353333D01*
X12223572Y-12353333D02*
X12223572Y-12305714D01*
X12223572Y-12305714D02*
X12233095Y-12267619D01*
X12233095Y-12267619D02*
X12242619Y-12248571D01*
X12242619Y-12248571D02*
X12252143Y-12239048D01*
X12252143Y-12239048D02*
X12271191Y-12229524D01*
X12404524Y-12229524D02*
X12528333Y-12229524D01*
X12528333Y-12229524D02*
X12461667Y-12305714D01*
X12461667Y-12305714D02*
X12490238Y-12305714D01*
X12490238Y-12305714D02*
X12509286Y-12315238D01*
X12509286Y-12315238D02*
X12518810Y-12324762D01*
X12518810Y-12324762D02*
X12528333Y-12343809D01*
X12528333Y-12343809D02*
X12528333Y-12391428D01*
X12528333Y-12391428D02*
X12518810Y-12410476D01*
X12518810Y-12410476D02*
X12509286Y-12420000D01*
X12509286Y-12420000D02*
X12490238Y-12429524D01*
X12490238Y-12429524D02*
X12433095Y-12429524D01*
X12433095Y-12429524D02*
X12414048Y-12420000D01*
X12414048Y-12420000D02*
X12404524Y-12410476D01*
X12623572Y-12429524D02*
X12661667Y-12429524D01*
X12661667Y-12429524D02*
X12680714Y-12420000D01*
X12680714Y-12420000D02*
X12690238Y-12410476D01*
X12690238Y-12410476D02*
X12709286Y-12381905D01*
X12709286Y-12381905D02*
X12718810Y-12343809D01*
X12718810Y-12343809D02*
X12718810Y-12267619D01*
X12718810Y-12267619D02*
X12709286Y-12248571D01*
X12709286Y-12248571D02*
X12699762Y-12239048D01*
X12699762Y-12239048D02*
X12680714Y-12229524D01*
X12680714Y-12229524D02*
X12642619Y-12229524D01*
X12642619Y-12229524D02*
X12623572Y-12239048D01*
X12623572Y-12239048D02*
X12614048Y-12248571D01*
X12614048Y-12248571D02*
X12604524Y-12267619D01*
X12604524Y-12267619D02*
X12604524Y-12315238D01*
X12604524Y-12315238D02*
X12614048Y-12334286D01*
X12614048Y-12334286D02*
X12623572Y-12343809D01*
X12623572Y-12343809D02*
X12642619Y-12353333D01*
X12642619Y-12353333D02*
X12680714Y-12353333D01*
X12680714Y-12353333D02*
X12699762Y-12343809D01*
X12699762Y-12343809D02*
X12709286Y-12334286D01*
X12709286Y-12334286D02*
X12718810Y-12315238D01*
X12890238Y-12296190D02*
X12890238Y-12429524D01*
X12842619Y-12220000D02*
X12795000Y-12362857D01*
X12795000Y-12362857D02*
X12918810Y-12362857D01*
X12985476Y-12229524D02*
X12985476Y-12267619D01*
X13061667Y-12229524D02*
X13061667Y-12267619D01*
X13356905Y-12505714D02*
X13347381Y-12496190D01*
X13347381Y-12496190D02*
X13328334Y-12467619D01*
X13328334Y-12467619D02*
X13318810Y-12448571D01*
X13318810Y-12448571D02*
X13309286Y-12420000D01*
X13309286Y-12420000D02*
X13299762Y-12372381D01*
X13299762Y-12372381D02*
X13299762Y-12334286D01*
X13299762Y-12334286D02*
X13309286Y-12286667D01*
X13309286Y-12286667D02*
X13318810Y-12258095D01*
X13318810Y-12258095D02*
X13328334Y-12239048D01*
X13328334Y-12239048D02*
X13347381Y-12210476D01*
X13347381Y-12210476D02*
X13356905Y-12200952D01*
X13423572Y-12248571D02*
X13433095Y-12239048D01*
X13433095Y-12239048D02*
X13452143Y-12229524D01*
X13452143Y-12229524D02*
X13499762Y-12229524D01*
X13499762Y-12229524D02*
X13518810Y-12239048D01*
X13518810Y-12239048D02*
X13528334Y-12248571D01*
X13528334Y-12248571D02*
X13537857Y-12267619D01*
X13537857Y-12267619D02*
X13537857Y-12286667D01*
X13537857Y-12286667D02*
X13528334Y-12315238D01*
X13528334Y-12315238D02*
X13414048Y-12429524D01*
X13414048Y-12429524D02*
X13537857Y-12429524D01*
X13775953Y-12429524D02*
X13775953Y-12229524D01*
X13861667Y-12429524D02*
X13861667Y-12324762D01*
X13861667Y-12324762D02*
X13852143Y-12305714D01*
X13852143Y-12305714D02*
X13833096Y-12296190D01*
X13833096Y-12296190D02*
X13804524Y-12296190D01*
X13804524Y-12296190D02*
X13785476Y-12305714D01*
X13785476Y-12305714D02*
X13775953Y-12315238D01*
X13985476Y-12429524D02*
X13966429Y-12420000D01*
X13966429Y-12420000D02*
X13956905Y-12410476D01*
X13956905Y-12410476D02*
X13947381Y-12391428D01*
X13947381Y-12391428D02*
X13947381Y-12334286D01*
X13947381Y-12334286D02*
X13956905Y-12315238D01*
X13956905Y-12315238D02*
X13966429Y-12305714D01*
X13966429Y-12305714D02*
X13985476Y-12296190D01*
X13985476Y-12296190D02*
X14014048Y-12296190D01*
X14014048Y-12296190D02*
X14033096Y-12305714D01*
X14033096Y-12305714D02*
X14042619Y-12315238D01*
X14042619Y-12315238D02*
X14052143Y-12334286D01*
X14052143Y-12334286D02*
X14052143Y-12391428D01*
X14052143Y-12391428D02*
X14042619Y-12410476D01*
X14042619Y-12410476D02*
X14033096Y-12420000D01*
X14033096Y-12420000D02*
X14014048Y-12429524D01*
X14014048Y-12429524D02*
X13985476Y-12429524D01*
X14166429Y-12429524D02*
X14147381Y-12420000D01*
X14147381Y-12420000D02*
X14137857Y-12400952D01*
X14137857Y-12400952D02*
X14137857Y-12229524D01*
X14318810Y-12420000D02*
X14299762Y-12429524D01*
X14299762Y-12429524D02*
X14261667Y-12429524D01*
X14261667Y-12429524D02*
X14242619Y-12420000D01*
X14242619Y-12420000D02*
X14233096Y-12400952D01*
X14233096Y-12400952D02*
X14233096Y-12324762D01*
X14233096Y-12324762D02*
X14242619Y-12305714D01*
X14242619Y-12305714D02*
X14261667Y-12296190D01*
X14261667Y-12296190D02*
X14299762Y-12296190D01*
X14299762Y-12296190D02*
X14318810Y-12305714D01*
X14318810Y-12305714D02*
X14328334Y-12324762D01*
X14328334Y-12324762D02*
X14328334Y-12343809D01*
X14328334Y-12343809D02*
X14233096Y-12362857D01*
X14404524Y-12420000D02*
X14423572Y-12429524D01*
X14423572Y-12429524D02*
X14461667Y-12429524D01*
X14461667Y-12429524D02*
X14480715Y-12420000D01*
X14480715Y-12420000D02*
X14490238Y-12400952D01*
X14490238Y-12400952D02*
X14490238Y-12391428D01*
X14490238Y-12391428D02*
X14480715Y-12372381D01*
X14480715Y-12372381D02*
X14461667Y-12362857D01*
X14461667Y-12362857D02*
X14433096Y-12362857D01*
X14433096Y-12362857D02*
X14414048Y-12353333D01*
X14414048Y-12353333D02*
X14404524Y-12334286D01*
X14404524Y-12334286D02*
X14404524Y-12324762D01*
X14404524Y-12324762D02*
X14414048Y-12305714D01*
X14414048Y-12305714D02*
X14433096Y-12296190D01*
X14433096Y-12296190D02*
X14461667Y-12296190D01*
X14461667Y-12296190D02*
X14480715Y-12305714D01*
X14728334Y-12353333D02*
X14880715Y-12353333D01*
X14804524Y-12429524D02*
X14804524Y-12277143D01*
X15109286Y-12229524D02*
X15233096Y-12229524D01*
X15233096Y-12229524D02*
X15166429Y-12305714D01*
X15166429Y-12305714D02*
X15195000Y-12305714D01*
X15195000Y-12305714D02*
X15214048Y-12315238D01*
X15214048Y-12315238D02*
X15223572Y-12324762D01*
X15223572Y-12324762D02*
X15233096Y-12343809D01*
X15233096Y-12343809D02*
X15233096Y-12391428D01*
X15233096Y-12391428D02*
X15223572Y-12410476D01*
X15223572Y-12410476D02*
X15214048Y-12420000D01*
X15214048Y-12420000D02*
X15195000Y-12429524D01*
X15195000Y-12429524D02*
X15137858Y-12429524D01*
X15137858Y-12429524D02*
X15118810Y-12420000D01*
X15118810Y-12420000D02*
X15109286Y-12410476D01*
X15461667Y-12420000D02*
X15480715Y-12429524D01*
X15480715Y-12429524D02*
X15518810Y-12429524D01*
X15518810Y-12429524D02*
X15537858Y-12420000D01*
X15537858Y-12420000D02*
X15547381Y-12400952D01*
X15547381Y-12400952D02*
X15547381Y-12391428D01*
X15547381Y-12391428D02*
X15537858Y-12372381D01*
X15537858Y-12372381D02*
X15518810Y-12362857D01*
X15518810Y-12362857D02*
X15490239Y-12362857D01*
X15490239Y-12362857D02*
X15471191Y-12353333D01*
X15471191Y-12353333D02*
X15461667Y-12334286D01*
X15461667Y-12334286D02*
X15461667Y-12324762D01*
X15461667Y-12324762D02*
X15471191Y-12305714D01*
X15471191Y-12305714D02*
X15490239Y-12296190D01*
X15490239Y-12296190D02*
X15518810Y-12296190D01*
X15518810Y-12296190D02*
X15537858Y-12305714D01*
X15661667Y-12429524D02*
X15642620Y-12420000D01*
X15642620Y-12420000D02*
X15633096Y-12400952D01*
X15633096Y-12400952D02*
X15633096Y-12229524D01*
X15766429Y-12429524D02*
X15747381Y-12420000D01*
X15747381Y-12420000D02*
X15737858Y-12410476D01*
X15737858Y-12410476D02*
X15728334Y-12391428D01*
X15728334Y-12391428D02*
X15728334Y-12334286D01*
X15728334Y-12334286D02*
X15737858Y-12315238D01*
X15737858Y-12315238D02*
X15747381Y-12305714D01*
X15747381Y-12305714D02*
X15766429Y-12296190D01*
X15766429Y-12296190D02*
X15795001Y-12296190D01*
X15795001Y-12296190D02*
X15814048Y-12305714D01*
X15814048Y-12305714D02*
X15823572Y-12315238D01*
X15823572Y-12315238D02*
X15833096Y-12334286D01*
X15833096Y-12334286D02*
X15833096Y-12391428D01*
X15833096Y-12391428D02*
X15823572Y-12410476D01*
X15823572Y-12410476D02*
X15814048Y-12420000D01*
X15814048Y-12420000D02*
X15795001Y-12429524D01*
X15795001Y-12429524D02*
X15766429Y-12429524D01*
X15890239Y-12296190D02*
X15966429Y-12296190D01*
X15918810Y-12229524D02*
X15918810Y-12400952D01*
X15918810Y-12400952D02*
X15928334Y-12420000D01*
X15928334Y-12420000D02*
X15947381Y-12429524D01*
X15947381Y-12429524D02*
X15966429Y-12429524D01*
X16023572Y-12420000D02*
X16042620Y-12429524D01*
X16042620Y-12429524D02*
X16080715Y-12429524D01*
X16080715Y-12429524D02*
X16099762Y-12420000D01*
X16099762Y-12420000D02*
X16109286Y-12400952D01*
X16109286Y-12400952D02*
X16109286Y-12391428D01*
X16109286Y-12391428D02*
X16099762Y-12372381D01*
X16099762Y-12372381D02*
X16080715Y-12362857D01*
X16080715Y-12362857D02*
X16052143Y-12362857D01*
X16052143Y-12362857D02*
X16033096Y-12353333D01*
X16033096Y-12353333D02*
X16023572Y-12334286D01*
X16023572Y-12334286D02*
X16023572Y-12324762D01*
X16023572Y-12324762D02*
X16033096Y-12305714D01*
X16033096Y-12305714D02*
X16052143Y-12296190D01*
X16052143Y-12296190D02*
X16080715Y-12296190D01*
X16080715Y-12296190D02*
X16099762Y-12305714D01*
X16175953Y-12505714D02*
X16185477Y-12496190D01*
X16185477Y-12496190D02*
X16204524Y-12467619D01*
X16204524Y-12467619D02*
X16214048Y-12448571D01*
X16214048Y-12448571D02*
X16223572Y-12420000D01*
X16223572Y-12420000D02*
X16233096Y-12372381D01*
X16233096Y-12372381D02*
X16233096Y-12334286D01*
X16233096Y-12334286D02*
X16223572Y-12286667D01*
X16223572Y-12286667D02*
X16214048Y-12258095D01*
X16214048Y-12258095D02*
X16204524Y-12239048D01*
X16204524Y-12239048D02*
X16185477Y-12210476D01*
X16185477Y-12210476D02*
X16175953Y-12200952D01*
X9695000Y-12701000D02*
X9795000Y-12601000D01*
X9695000Y-12501000D01*
X9595000Y-12601000D01*
X9695000Y-12701000D01*
X10023571Y-12493524D02*
X10147381Y-12493524D01*
X10147381Y-12493524D02*
X10080714Y-12569714D01*
X10080714Y-12569714D02*
X10109286Y-12569714D01*
X10109286Y-12569714D02*
X10128333Y-12579238D01*
X10128333Y-12579238D02*
X10137857Y-12588762D01*
X10137857Y-12588762D02*
X10147381Y-12607809D01*
X10147381Y-12607809D02*
X10147381Y-12655428D01*
X10147381Y-12655428D02*
X10137857Y-12674476D01*
X10137857Y-12674476D02*
X10128333Y-12684000D01*
X10128333Y-12684000D02*
X10109286Y-12693524D01*
X10109286Y-12693524D02*
X10052143Y-12693524D01*
X10052143Y-12693524D02*
X10033095Y-12684000D01*
X10033095Y-12684000D02*
X10023571Y-12674476D01*
X10233095Y-12674476D02*
X10242619Y-12684000D01*
X10242619Y-12684000D02*
X10233095Y-12693524D01*
X10233095Y-12693524D02*
X10223571Y-12684000D01*
X10223571Y-12684000D02*
X10233095Y-12674476D01*
X10233095Y-12674476D02*
X10233095Y-12693524D01*
X10318810Y-12512571D02*
X10328333Y-12503048D01*
X10328333Y-12503048D02*
X10347381Y-12493524D01*
X10347381Y-12493524D02*
X10395000Y-12493524D01*
X10395000Y-12493524D02*
X10414048Y-12503048D01*
X10414048Y-12503048D02*
X10423571Y-12512571D01*
X10423571Y-12512571D02*
X10433095Y-12531619D01*
X10433095Y-12531619D02*
X10433095Y-12550667D01*
X10433095Y-12550667D02*
X10423571Y-12579238D01*
X10423571Y-12579238D02*
X10309286Y-12693524D01*
X10309286Y-12693524D02*
X10433095Y-12693524D01*
X10556905Y-12493524D02*
X10575952Y-12493524D01*
X10575952Y-12493524D02*
X10595000Y-12503048D01*
X10595000Y-12503048D02*
X10604524Y-12512571D01*
X10604524Y-12512571D02*
X10614048Y-12531619D01*
X10614048Y-12531619D02*
X10623571Y-12569714D01*
X10623571Y-12569714D02*
X10623571Y-12617333D01*
X10623571Y-12617333D02*
X10614048Y-12655428D01*
X10614048Y-12655428D02*
X10604524Y-12674476D01*
X10604524Y-12674476D02*
X10595000Y-12684000D01*
X10595000Y-12684000D02*
X10575952Y-12693524D01*
X10575952Y-12693524D02*
X10556905Y-12693524D01*
X10556905Y-12693524D02*
X10537857Y-12684000D01*
X10537857Y-12684000D02*
X10528333Y-12674476D01*
X10528333Y-12674476D02*
X10518810Y-12655428D01*
X10518810Y-12655428D02*
X10509286Y-12617333D01*
X10509286Y-12617333D02*
X10509286Y-12569714D01*
X10509286Y-12569714D02*
X10518810Y-12531619D01*
X10518810Y-12531619D02*
X10528333Y-12512571D01*
X10528333Y-12512571D02*
X10537857Y-12503048D01*
X10537857Y-12503048D02*
X10556905Y-12493524D01*
X10747381Y-12493524D02*
X10766429Y-12493524D01*
X10766429Y-12493524D02*
X10785476Y-12503048D01*
X10785476Y-12503048D02*
X10795000Y-12512571D01*
X10795000Y-12512571D02*
X10804524Y-12531619D01*
X10804524Y-12531619D02*
X10814048Y-12569714D01*
X10814048Y-12569714D02*
X10814048Y-12617333D01*
X10814048Y-12617333D02*
X10804524Y-12655428D01*
X10804524Y-12655428D02*
X10795000Y-12674476D01*
X10795000Y-12674476D02*
X10785476Y-12684000D01*
X10785476Y-12684000D02*
X10766429Y-12693524D01*
X10766429Y-12693524D02*
X10747381Y-12693524D01*
X10747381Y-12693524D02*
X10728333Y-12684000D01*
X10728333Y-12684000D02*
X10718810Y-12674476D01*
X10718810Y-12674476D02*
X10709286Y-12655428D01*
X10709286Y-12655428D02*
X10699762Y-12617333D01*
X10699762Y-12617333D02*
X10699762Y-12569714D01*
X10699762Y-12569714D02*
X10709286Y-12531619D01*
X10709286Y-12531619D02*
X10718810Y-12512571D01*
X10718810Y-12512571D02*
X10728333Y-12503048D01*
X10728333Y-12503048D02*
X10747381Y-12493524D01*
X10899762Y-12693524D02*
X10899762Y-12560190D01*
X10899762Y-12579238D02*
X10909286Y-12569714D01*
X10909286Y-12569714D02*
X10928333Y-12560190D01*
X10928333Y-12560190D02*
X10956905Y-12560190D01*
X10956905Y-12560190D02*
X10975952Y-12569714D01*
X10975952Y-12569714D02*
X10985476Y-12588762D01*
X10985476Y-12588762D02*
X10985476Y-12693524D01*
X10985476Y-12588762D02*
X10995000Y-12569714D01*
X10995000Y-12569714D02*
X11014048Y-12560190D01*
X11014048Y-12560190D02*
X11042619Y-12560190D01*
X11042619Y-12560190D02*
X11061667Y-12569714D01*
X11061667Y-12569714D02*
X11071191Y-12588762D01*
X11071191Y-12588762D02*
X11071191Y-12693524D01*
X11166429Y-12693524D02*
X11166429Y-12560190D01*
X11166429Y-12579238D02*
X11175952Y-12569714D01*
X11175952Y-12569714D02*
X11195000Y-12560190D01*
X11195000Y-12560190D02*
X11223571Y-12560190D01*
X11223571Y-12560190D02*
X11242619Y-12569714D01*
X11242619Y-12569714D02*
X11252143Y-12588762D01*
X11252143Y-12588762D02*
X11252143Y-12693524D01*
X11252143Y-12588762D02*
X11261667Y-12569714D01*
X11261667Y-12569714D02*
X11280714Y-12560190D01*
X11280714Y-12560190D02*
X11309286Y-12560190D01*
X11309286Y-12560190D02*
X11328333Y-12569714D01*
X11328333Y-12569714D02*
X11337857Y-12588762D01*
X11337857Y-12588762D02*
X11337857Y-12693524D01*
X11728333Y-12484000D02*
X11556905Y-12741143D01*
X11985476Y-12493524D02*
X12004524Y-12493524D01*
X12004524Y-12493524D02*
X12023572Y-12503048D01*
X12023572Y-12503048D02*
X12033095Y-12512571D01*
X12033095Y-12512571D02*
X12042619Y-12531619D01*
X12042619Y-12531619D02*
X12052143Y-12569714D01*
X12052143Y-12569714D02*
X12052143Y-12617333D01*
X12052143Y-12617333D02*
X12042619Y-12655428D01*
X12042619Y-12655428D02*
X12033095Y-12674476D01*
X12033095Y-12674476D02*
X12023572Y-12684000D01*
X12023572Y-12684000D02*
X12004524Y-12693524D01*
X12004524Y-12693524D02*
X11985476Y-12693524D01*
X11985476Y-12693524D02*
X11966429Y-12684000D01*
X11966429Y-12684000D02*
X11956905Y-12674476D01*
X11956905Y-12674476D02*
X11947381Y-12655428D01*
X11947381Y-12655428D02*
X11937857Y-12617333D01*
X11937857Y-12617333D02*
X11937857Y-12569714D01*
X11937857Y-12569714D02*
X11947381Y-12531619D01*
X11947381Y-12531619D02*
X11956905Y-12512571D01*
X11956905Y-12512571D02*
X11966429Y-12503048D01*
X11966429Y-12503048D02*
X11985476Y-12493524D01*
X12137857Y-12674476D02*
X12147381Y-12684000D01*
X12147381Y-12684000D02*
X12137857Y-12693524D01*
X12137857Y-12693524D02*
X12128333Y-12684000D01*
X12128333Y-12684000D02*
X12137857Y-12674476D01*
X12137857Y-12674476D02*
X12137857Y-12693524D01*
X12337857Y-12693524D02*
X12223572Y-12693524D01*
X12280714Y-12693524D02*
X12280714Y-12493524D01*
X12280714Y-12493524D02*
X12261667Y-12522095D01*
X12261667Y-12522095D02*
X12242619Y-12541143D01*
X12242619Y-12541143D02*
X12223572Y-12550667D01*
X12414048Y-12512571D02*
X12423572Y-12503048D01*
X12423572Y-12503048D02*
X12442619Y-12493524D01*
X12442619Y-12493524D02*
X12490238Y-12493524D01*
X12490238Y-12493524D02*
X12509286Y-12503048D01*
X12509286Y-12503048D02*
X12518810Y-12512571D01*
X12518810Y-12512571D02*
X12528333Y-12531619D01*
X12528333Y-12531619D02*
X12528333Y-12550667D01*
X12528333Y-12550667D02*
X12518810Y-12579238D01*
X12518810Y-12579238D02*
X12404524Y-12693524D01*
X12404524Y-12693524D02*
X12528333Y-12693524D01*
X12699762Y-12493524D02*
X12661667Y-12493524D01*
X12661667Y-12493524D02*
X12642619Y-12503048D01*
X12642619Y-12503048D02*
X12633095Y-12512571D01*
X12633095Y-12512571D02*
X12614048Y-12541143D01*
X12614048Y-12541143D02*
X12604524Y-12579238D01*
X12604524Y-12579238D02*
X12604524Y-12655428D01*
X12604524Y-12655428D02*
X12614048Y-12674476D01*
X12614048Y-12674476D02*
X12623572Y-12684000D01*
X12623572Y-12684000D02*
X12642619Y-12693524D01*
X12642619Y-12693524D02*
X12680714Y-12693524D01*
X12680714Y-12693524D02*
X12699762Y-12684000D01*
X12699762Y-12684000D02*
X12709286Y-12674476D01*
X12709286Y-12674476D02*
X12718810Y-12655428D01*
X12718810Y-12655428D02*
X12718810Y-12607809D01*
X12718810Y-12607809D02*
X12709286Y-12588762D01*
X12709286Y-12588762D02*
X12699762Y-12579238D01*
X12699762Y-12579238D02*
X12680714Y-12569714D01*
X12680714Y-12569714D02*
X12642619Y-12569714D01*
X12642619Y-12569714D02*
X12623572Y-12579238D01*
X12623572Y-12579238D02*
X12614048Y-12588762D01*
X12614048Y-12588762D02*
X12604524Y-12607809D01*
X12842619Y-12493524D02*
X12861667Y-12493524D01*
X12861667Y-12493524D02*
X12880714Y-12503048D01*
X12880714Y-12503048D02*
X12890238Y-12512571D01*
X12890238Y-12512571D02*
X12899762Y-12531619D01*
X12899762Y-12531619D02*
X12909286Y-12569714D01*
X12909286Y-12569714D02*
X12909286Y-12617333D01*
X12909286Y-12617333D02*
X12899762Y-12655428D01*
X12899762Y-12655428D02*
X12890238Y-12674476D01*
X12890238Y-12674476D02*
X12880714Y-12684000D01*
X12880714Y-12684000D02*
X12861667Y-12693524D01*
X12861667Y-12693524D02*
X12842619Y-12693524D01*
X12842619Y-12693524D02*
X12823572Y-12684000D01*
X12823572Y-12684000D02*
X12814048Y-12674476D01*
X12814048Y-12674476D02*
X12804524Y-12655428D01*
X12804524Y-12655428D02*
X12795000Y-12617333D01*
X12795000Y-12617333D02*
X12795000Y-12569714D01*
X12795000Y-12569714D02*
X12804524Y-12531619D01*
X12804524Y-12531619D02*
X12814048Y-12512571D01*
X12814048Y-12512571D02*
X12823572Y-12503048D01*
X12823572Y-12503048D02*
X12842619Y-12493524D01*
X12985476Y-12493524D02*
X12985476Y-12531619D01*
X13061667Y-12493524D02*
X13061667Y-12531619D01*
X13356905Y-12769714D02*
X13347381Y-12760190D01*
X13347381Y-12760190D02*
X13328334Y-12731619D01*
X13328334Y-12731619D02*
X13318810Y-12712571D01*
X13318810Y-12712571D02*
X13309286Y-12684000D01*
X13309286Y-12684000D02*
X13299762Y-12636381D01*
X13299762Y-12636381D02*
X13299762Y-12598286D01*
X13299762Y-12598286D02*
X13309286Y-12550667D01*
X13309286Y-12550667D02*
X13318810Y-12522095D01*
X13318810Y-12522095D02*
X13328334Y-12503048D01*
X13328334Y-12503048D02*
X13347381Y-12474476D01*
X13347381Y-12474476D02*
X13356905Y-12464952D01*
X13518810Y-12560190D02*
X13518810Y-12693524D01*
X13471191Y-12484000D02*
X13423572Y-12626857D01*
X13423572Y-12626857D02*
X13547381Y-12626857D01*
X13775953Y-12693524D02*
X13775953Y-12493524D01*
X13861667Y-12693524D02*
X13861667Y-12588762D01*
X13861667Y-12588762D02*
X13852143Y-12569714D01*
X13852143Y-12569714D02*
X13833096Y-12560190D01*
X13833096Y-12560190D02*
X13804524Y-12560190D01*
X13804524Y-12560190D02*
X13785476Y-12569714D01*
X13785476Y-12569714D02*
X13775953Y-12579238D01*
X13985476Y-12693524D02*
X13966429Y-12684000D01*
X13966429Y-12684000D02*
X13956905Y-12674476D01*
X13956905Y-12674476D02*
X13947381Y-12655428D01*
X13947381Y-12655428D02*
X13947381Y-12598286D01*
X13947381Y-12598286D02*
X13956905Y-12579238D01*
X13956905Y-12579238D02*
X13966429Y-12569714D01*
X13966429Y-12569714D02*
X13985476Y-12560190D01*
X13985476Y-12560190D02*
X14014048Y-12560190D01*
X14014048Y-12560190D02*
X14033096Y-12569714D01*
X14033096Y-12569714D02*
X14042619Y-12579238D01*
X14042619Y-12579238D02*
X14052143Y-12598286D01*
X14052143Y-12598286D02*
X14052143Y-12655428D01*
X14052143Y-12655428D02*
X14042619Y-12674476D01*
X14042619Y-12674476D02*
X14033096Y-12684000D01*
X14033096Y-12684000D02*
X14014048Y-12693524D01*
X14014048Y-12693524D02*
X13985476Y-12693524D01*
X14166429Y-12693524D02*
X14147381Y-12684000D01*
X14147381Y-12684000D02*
X14137857Y-12664952D01*
X14137857Y-12664952D02*
X14137857Y-12493524D01*
X14318810Y-12684000D02*
X14299762Y-12693524D01*
X14299762Y-12693524D02*
X14261667Y-12693524D01*
X14261667Y-12693524D02*
X14242619Y-12684000D01*
X14242619Y-12684000D02*
X14233096Y-12664952D01*
X14233096Y-12664952D02*
X14233096Y-12588762D01*
X14233096Y-12588762D02*
X14242619Y-12569714D01*
X14242619Y-12569714D02*
X14261667Y-12560190D01*
X14261667Y-12560190D02*
X14299762Y-12560190D01*
X14299762Y-12560190D02*
X14318810Y-12569714D01*
X14318810Y-12569714D02*
X14328334Y-12588762D01*
X14328334Y-12588762D02*
X14328334Y-12607809D01*
X14328334Y-12607809D02*
X14233096Y-12626857D01*
X14404524Y-12684000D02*
X14423572Y-12693524D01*
X14423572Y-12693524D02*
X14461667Y-12693524D01*
X14461667Y-12693524D02*
X14480715Y-12684000D01*
X14480715Y-12684000D02*
X14490238Y-12664952D01*
X14490238Y-12664952D02*
X14490238Y-12655428D01*
X14490238Y-12655428D02*
X14480715Y-12636381D01*
X14480715Y-12636381D02*
X14461667Y-12626857D01*
X14461667Y-12626857D02*
X14433096Y-12626857D01*
X14433096Y-12626857D02*
X14414048Y-12617333D01*
X14414048Y-12617333D02*
X14404524Y-12598286D01*
X14404524Y-12598286D02*
X14404524Y-12588762D01*
X14404524Y-12588762D02*
X14414048Y-12569714D01*
X14414048Y-12569714D02*
X14433096Y-12560190D01*
X14433096Y-12560190D02*
X14461667Y-12560190D01*
X14461667Y-12560190D02*
X14480715Y-12569714D01*
X14556905Y-12769714D02*
X14566429Y-12760190D01*
X14566429Y-12760190D02*
X14585477Y-12731619D01*
X14585477Y-12731619D02*
X14595000Y-12712571D01*
X14595000Y-12712571D02*
X14604524Y-12684000D01*
X14604524Y-12684000D02*
X14614048Y-12636381D01*
X14614048Y-12636381D02*
X14614048Y-12598286D01*
X14614048Y-12598286D02*
X14604524Y-12550667D01*
X14604524Y-12550667D02*
X14595000Y-12522095D01*
X14595000Y-12522095D02*
X14585477Y-12503048D01*
X14585477Y-12503048D02*
X14566429Y-12474476D01*
X14566429Y-12474476D02*
X14556905Y-12464952D01*
M02*
