%TF.GenerationSoftware,KiCad,Pcbnew,7.0.1*%
%TF.CreationDate,2023-04-29T01:33:37-04:00*%
%TF.ProjectId,PowerSection,506f7765-7253-4656-9374-696f6e2e6b69,rev?*%
%TF.SameCoordinates,Original*%
%TF.FileFunction,Legend,Top*%
%TF.FilePolarity,Positive*%
%FSLAX46Y46*%
G04 Gerber Fmt 4.6, Leading zero omitted, Abs format (unit mm)*
G04 Created by KiCad (PCBNEW 7.0.1) date 2023-04-29 01:33:37*
%MOMM*%
%LPD*%
G01*
G04 APERTURE LIST*
G04 Aperture macros list*
%AMRoundRect*
0 Rectangle with rounded corners*
0 $1 Rounding radius*
0 $2 $3 $4 $5 $6 $7 $8 $9 X,Y pos of 4 corners*
0 Add a 4 corners polygon primitive as box body*
4,1,4,$2,$3,$4,$5,$6,$7,$8,$9,$2,$3,0*
0 Add four circle primitives for the rounded corners*
1,1,$1+$1,$2,$3*
1,1,$1+$1,$4,$5*
1,1,$1+$1,$6,$7*
1,1,$1+$1,$8,$9*
0 Add four rect primitives between the rounded corners*
20,1,$1+$1,$2,$3,$4,$5,0*
20,1,$1+$1,$4,$5,$6,$7,0*
20,1,$1+$1,$6,$7,$8,$9,0*
20,1,$1+$1,$8,$9,$2,$3,0*%
G04 Aperture macros list end*
%ADD10C,0.300000*%
%ADD11C,0.150000*%
%ADD12C,0.120000*%
%ADD13C,0.152400*%
%ADD14RoundRect,0.200000X-0.200000X-0.275000X0.200000X-0.275000X0.200000X0.275000X-0.200000X0.275000X0*%
%ADD15RoundRect,0.225000X0.250000X-0.225000X0.250000X0.225000X-0.250000X0.225000X-0.250000X-0.225000X0*%
%ADD16RoundRect,0.200000X-0.275000X0.200000X-0.275000X-0.200000X0.275000X-0.200000X0.275000X0.200000X0*%
%ADD17RoundRect,0.050000X0.450000X1.950000X-0.450000X1.950000X-0.450000X-1.950000X0.450000X-1.950000X0*%
%ADD18RoundRect,0.075000X0.975000X0.675000X-0.975000X0.675000X-0.975000X-0.675000X0.975000X-0.675000X0*%
%ADD19RoundRect,0.025000X0.525000X0.225000X-0.525000X0.225000X-0.525000X-0.225000X0.525000X-0.225000X0*%
%ADD20RoundRect,0.150000X-0.150000X0.587500X-0.150000X-0.587500X0.150000X-0.587500X0.150000X0.587500X0*%
%ADD21C,0.800000*%
%ADD22C,6.400000*%
%ADD23R,4.600000X2.000000*%
%ADD24O,4.200000X2.000000*%
%ADD25O,2.000000X4.200000*%
%ADD26RoundRect,0.275000X-2.475000X-2.725000X2.475000X-2.725000X2.475000X2.725000X-2.475000X2.725000X0*%
%ADD27RoundRect,0.325000X-2.925000X-3.300000X2.925000X-3.300000X2.925000X3.300000X-2.925000X3.300000X0*%
%ADD28RoundRect,0.150000X0.150000X-0.512500X0.150000X0.512500X-0.150000X0.512500X-0.150000X-0.512500X0*%
%ADD29RoundRect,0.225000X-0.225000X-0.250000X0.225000X-0.250000X0.225000X0.250000X-0.225000X0.250000X0*%
%ADD30RoundRect,0.200000X0.275000X-0.200000X0.275000X0.200000X-0.275000X0.200000X-0.275000X-0.200000X0*%
%ADD31RoundRect,0.200000X0.200000X0.275000X-0.200000X0.275000X-0.200000X-0.275000X0.200000X-0.275000X0*%
%ADD32RoundRect,0.205000X2.045000X-1.845000X2.045000X1.845000X-2.045000X1.845000X-2.045000X-1.845000X0*%
%ADD33RoundRect,0.225000X0.225000X0.250000X-0.225000X0.250000X-0.225000X-0.250000X0.225000X-0.250000X0*%
%ADD34RoundRect,0.250000X-0.725000X0.600000X-0.725000X-0.600000X0.725000X-0.600000X0.725000X0.600000X0*%
%ADD35O,1.950000X1.700000*%
%ADD36RoundRect,0.250000X1.950000X1.000000X-1.950000X1.000000X-1.950000X-1.000000X1.950000X-1.000000X0*%
%ADD37RoundRect,0.250000X-1.000000X1.950000X-1.000000X-1.950000X1.000000X-1.950000X1.000000X1.950000X0*%
%ADD38RoundRect,0.337777X-0.422223X-0.677223X0.422223X-0.677223X0.422223X0.677223X-0.422223X0.677223X0*%
%ADD39RoundRect,0.250000X-0.850000X-0.350000X0.850000X-0.350000X0.850000X0.350000X-0.850000X0.350000X0*%
%ADD40RoundRect,0.249997X-2.950003X-2.650003X2.950003X-2.650003X2.950003X2.650003X-2.950003X2.650003X0*%
%ADD41R,1.700000X1.700000*%
%ADD42O,1.700000X1.700000*%
%ADD43RoundRect,0.225000X-0.375000X0.225000X-0.375000X-0.225000X0.375000X-0.225000X0.375000X0.225000X0*%
%ADD44RoundRect,0.185000X-0.740000X-1.215000X0.740000X-1.215000X0.740000X1.215000X-0.740000X1.215000X0*%
%ADD45R,0.650000X0.400000*%
G04 APERTURE END LIST*
D10*
X139990476Y-53485713D02*
X139895238Y-53647618D01*
X139895238Y-53647618D02*
X139895238Y-53890475D01*
X139895238Y-53890475D02*
X139990476Y-54133332D01*
X139990476Y-54133332D02*
X140180952Y-54295237D01*
X140180952Y-54295237D02*
X140371428Y-54376190D01*
X140371428Y-54376190D02*
X140752380Y-54457142D01*
X140752380Y-54457142D02*
X141038095Y-54457142D01*
X141038095Y-54457142D02*
X141419047Y-54376190D01*
X141419047Y-54376190D02*
X141609523Y-54295237D01*
X141609523Y-54295237D02*
X141800000Y-54133332D01*
X141800000Y-54133332D02*
X141895238Y-53890475D01*
X141895238Y-53890475D02*
X141895238Y-53728571D01*
X141895238Y-53728571D02*
X141800000Y-53485713D01*
X141800000Y-53485713D02*
X141704761Y-53404761D01*
X141704761Y-53404761D02*
X141038095Y-53404761D01*
X141038095Y-53404761D02*
X141038095Y-53728571D01*
X141895238Y-52676190D02*
X139895238Y-52676190D01*
X139895238Y-52676190D02*
X141895238Y-51704761D01*
X141895238Y-51704761D02*
X139895238Y-51704761D01*
X141895238Y-50895238D02*
X139895238Y-50895238D01*
X139895238Y-50895238D02*
X139895238Y-50490476D01*
X139895238Y-50490476D02*
X139990476Y-50247619D01*
X139990476Y-50247619D02*
X140180952Y-50085714D01*
X140180952Y-50085714D02*
X140371428Y-50004761D01*
X140371428Y-50004761D02*
X140752380Y-49923809D01*
X140752380Y-49923809D02*
X141038095Y-49923809D01*
X141038095Y-49923809D02*
X141419047Y-50004761D01*
X141419047Y-50004761D02*
X141609523Y-50085714D01*
X141609523Y-50085714D02*
X141800000Y-50247619D01*
X141800000Y-50247619D02*
X141895238Y-50490476D01*
X141895238Y-50490476D02*
X141895238Y-50895238D01*
X142857142Y-64494047D02*
X142857142Y-61994047D01*
X142857142Y-61994047D02*
X143357142Y-63779761D01*
X143357142Y-63779761D02*
X143857142Y-61994047D01*
X143857142Y-61994047D02*
X143857142Y-64494047D01*
X144785714Y-64494047D02*
X144642857Y-64375000D01*
X144642857Y-64375000D02*
X144571428Y-64255952D01*
X144571428Y-64255952D02*
X144500000Y-64017857D01*
X144500000Y-64017857D02*
X144500000Y-63303571D01*
X144500000Y-63303571D02*
X144571428Y-63065476D01*
X144571428Y-63065476D02*
X144642857Y-62946428D01*
X144642857Y-62946428D02*
X144785714Y-62827380D01*
X144785714Y-62827380D02*
X145000000Y-62827380D01*
X145000000Y-62827380D02*
X145142857Y-62946428D01*
X145142857Y-62946428D02*
X145214286Y-63065476D01*
X145214286Y-63065476D02*
X145285714Y-63303571D01*
X145285714Y-63303571D02*
X145285714Y-64017857D01*
X145285714Y-64017857D02*
X145214286Y-64255952D01*
X145214286Y-64255952D02*
X145142857Y-64375000D01*
X145142857Y-64375000D02*
X145000000Y-64494047D01*
X145000000Y-64494047D02*
X144785714Y-64494047D01*
X146571429Y-64494047D02*
X146571429Y-61994047D01*
X146571429Y-64375000D02*
X146428571Y-64494047D01*
X146428571Y-64494047D02*
X146142857Y-64494047D01*
X146142857Y-64494047D02*
X146000000Y-64375000D01*
X146000000Y-64375000D02*
X145928571Y-64255952D01*
X145928571Y-64255952D02*
X145857143Y-64017857D01*
X145857143Y-64017857D02*
X145857143Y-63303571D01*
X145857143Y-63303571D02*
X145928571Y-63065476D01*
X145928571Y-63065476D02*
X146000000Y-62946428D01*
X146000000Y-62946428D02*
X146142857Y-62827380D01*
X146142857Y-62827380D02*
X146428571Y-62827380D01*
X146428571Y-62827380D02*
X146571429Y-62946428D01*
X147928572Y-62827380D02*
X147928572Y-64494047D01*
X147285714Y-62827380D02*
X147285714Y-64136904D01*
X147285714Y-64136904D02*
X147357143Y-64375000D01*
X147357143Y-64375000D02*
X147500000Y-64494047D01*
X147500000Y-64494047D02*
X147714286Y-64494047D01*
X147714286Y-64494047D02*
X147857143Y-64375000D01*
X147857143Y-64375000D02*
X147928572Y-64255952D01*
X148857143Y-64494047D02*
X148714286Y-64375000D01*
X148714286Y-64375000D02*
X148642857Y-64136904D01*
X148642857Y-64136904D02*
X148642857Y-61994047D01*
X150071429Y-64494047D02*
X150071429Y-63184523D01*
X150071429Y-63184523D02*
X150000000Y-62946428D01*
X150000000Y-62946428D02*
X149857143Y-62827380D01*
X149857143Y-62827380D02*
X149571429Y-62827380D01*
X149571429Y-62827380D02*
X149428571Y-62946428D01*
X150071429Y-64375000D02*
X149928571Y-64494047D01*
X149928571Y-64494047D02*
X149571429Y-64494047D01*
X149571429Y-64494047D02*
X149428571Y-64375000D01*
X149428571Y-64375000D02*
X149357143Y-64136904D01*
X149357143Y-64136904D02*
X149357143Y-63898809D01*
X149357143Y-63898809D02*
X149428571Y-63660714D01*
X149428571Y-63660714D02*
X149571429Y-63541666D01*
X149571429Y-63541666D02*
X149928571Y-63541666D01*
X149928571Y-63541666D02*
X150071429Y-63422619D01*
X150785714Y-64494047D02*
X150785714Y-62827380D01*
X150785714Y-63303571D02*
X150857143Y-63065476D01*
X150857143Y-63065476D02*
X150928572Y-62946428D01*
X150928572Y-62946428D02*
X151071429Y-62827380D01*
X151071429Y-62827380D02*
X151214286Y-62827380D01*
X152785714Y-64375000D02*
X153000000Y-64494047D01*
X153000000Y-64494047D02*
X153357142Y-64494047D01*
X153357142Y-64494047D02*
X153500000Y-64375000D01*
X153500000Y-64375000D02*
X153571428Y-64255952D01*
X153571428Y-64255952D02*
X153642857Y-64017857D01*
X153642857Y-64017857D02*
X153642857Y-63779761D01*
X153642857Y-63779761D02*
X153571428Y-63541666D01*
X153571428Y-63541666D02*
X153500000Y-63422619D01*
X153500000Y-63422619D02*
X153357142Y-63303571D01*
X153357142Y-63303571D02*
X153071428Y-63184523D01*
X153071428Y-63184523D02*
X152928571Y-63065476D01*
X152928571Y-63065476D02*
X152857142Y-62946428D01*
X152857142Y-62946428D02*
X152785714Y-62708333D01*
X152785714Y-62708333D02*
X152785714Y-62470238D01*
X152785714Y-62470238D02*
X152857142Y-62232142D01*
X152857142Y-62232142D02*
X152928571Y-62113095D01*
X152928571Y-62113095D02*
X153071428Y-61994047D01*
X153071428Y-61994047D02*
X153428571Y-61994047D01*
X153428571Y-61994047D02*
X153642857Y-62113095D01*
X154499999Y-64494047D02*
X154357142Y-64375000D01*
X154357142Y-64375000D02*
X154285713Y-64255952D01*
X154285713Y-64255952D02*
X154214285Y-64017857D01*
X154214285Y-64017857D02*
X154214285Y-63303571D01*
X154214285Y-63303571D02*
X154285713Y-63065476D01*
X154285713Y-63065476D02*
X154357142Y-62946428D01*
X154357142Y-62946428D02*
X154499999Y-62827380D01*
X154499999Y-62827380D02*
X154714285Y-62827380D01*
X154714285Y-62827380D02*
X154857142Y-62946428D01*
X154857142Y-62946428D02*
X154928571Y-63065476D01*
X154928571Y-63065476D02*
X154999999Y-63303571D01*
X154999999Y-63303571D02*
X154999999Y-64017857D01*
X154999999Y-64017857D02*
X154928571Y-64255952D01*
X154928571Y-64255952D02*
X154857142Y-64375000D01*
X154857142Y-64375000D02*
X154714285Y-64494047D01*
X154714285Y-64494047D02*
X154499999Y-64494047D01*
X155857142Y-64494047D02*
X155714285Y-64375000D01*
X155714285Y-64375000D02*
X155642856Y-64136904D01*
X155642856Y-64136904D02*
X155642856Y-61994047D01*
X157071428Y-64494047D02*
X157071428Y-61994047D01*
X157071428Y-64375000D02*
X156928570Y-64494047D01*
X156928570Y-64494047D02*
X156642856Y-64494047D01*
X156642856Y-64494047D02*
X156499999Y-64375000D01*
X156499999Y-64375000D02*
X156428570Y-64255952D01*
X156428570Y-64255952D02*
X156357142Y-64017857D01*
X156357142Y-64017857D02*
X156357142Y-63303571D01*
X156357142Y-63303571D02*
X156428570Y-63065476D01*
X156428570Y-63065476D02*
X156499999Y-62946428D01*
X156499999Y-62946428D02*
X156642856Y-62827380D01*
X156642856Y-62827380D02*
X156928570Y-62827380D01*
X156928570Y-62827380D02*
X157071428Y-62946428D01*
X158357142Y-64375000D02*
X158214285Y-64494047D01*
X158214285Y-64494047D02*
X157928571Y-64494047D01*
X157928571Y-64494047D02*
X157785713Y-64375000D01*
X157785713Y-64375000D02*
X157714285Y-64136904D01*
X157714285Y-64136904D02*
X157714285Y-63184523D01*
X157714285Y-63184523D02*
X157785713Y-62946428D01*
X157785713Y-62946428D02*
X157928571Y-62827380D01*
X157928571Y-62827380D02*
X158214285Y-62827380D01*
X158214285Y-62827380D02*
X158357142Y-62946428D01*
X158357142Y-62946428D02*
X158428571Y-63184523D01*
X158428571Y-63184523D02*
X158428571Y-63422619D01*
X158428571Y-63422619D02*
X157714285Y-63660714D01*
X159071427Y-64494047D02*
X159071427Y-62827380D01*
X159071427Y-63303571D02*
X159142856Y-63065476D01*
X159142856Y-63065476D02*
X159214285Y-62946428D01*
X159214285Y-62946428D02*
X159357142Y-62827380D01*
X159357142Y-62827380D02*
X159499999Y-62827380D01*
X161999998Y-64494047D02*
X161499998Y-63303571D01*
X161142855Y-64494047D02*
X161142855Y-61994047D01*
X161142855Y-61994047D02*
X161714284Y-61994047D01*
X161714284Y-61994047D02*
X161857141Y-62113095D01*
X161857141Y-62113095D02*
X161928570Y-62232142D01*
X161928570Y-62232142D02*
X161999998Y-62470238D01*
X161999998Y-62470238D02*
X161999998Y-62827380D01*
X161999998Y-62827380D02*
X161928570Y-63065476D01*
X161928570Y-63065476D02*
X161857141Y-63184523D01*
X161857141Y-63184523D02*
X161714284Y-63303571D01*
X161714284Y-63303571D02*
X161142855Y-63303571D01*
X163214284Y-64375000D02*
X163071427Y-64494047D01*
X163071427Y-64494047D02*
X162785713Y-64494047D01*
X162785713Y-64494047D02*
X162642855Y-64375000D01*
X162642855Y-64375000D02*
X162571427Y-64136904D01*
X162571427Y-64136904D02*
X162571427Y-63184523D01*
X162571427Y-63184523D02*
X162642855Y-62946428D01*
X162642855Y-62946428D02*
X162785713Y-62827380D01*
X162785713Y-62827380D02*
X163071427Y-62827380D01*
X163071427Y-62827380D02*
X163214284Y-62946428D01*
X163214284Y-62946428D02*
X163285713Y-63184523D01*
X163285713Y-63184523D02*
X163285713Y-63422619D01*
X163285713Y-63422619D02*
X162571427Y-63660714D01*
X163714284Y-62827380D02*
X164285712Y-62827380D01*
X163928569Y-64494047D02*
X163928569Y-62351190D01*
X163928569Y-62351190D02*
X163999998Y-62113095D01*
X163999998Y-62113095D02*
X164142855Y-61994047D01*
X164142855Y-61994047D02*
X164285712Y-61994047D01*
X164999998Y-64494047D02*
X164857141Y-64375000D01*
X164857141Y-64375000D02*
X164785712Y-64136904D01*
X164785712Y-64136904D02*
X164785712Y-61994047D01*
X165785712Y-64494047D02*
X165642855Y-64375000D01*
X165642855Y-64375000D02*
X165571426Y-64255952D01*
X165571426Y-64255952D02*
X165499998Y-64017857D01*
X165499998Y-64017857D02*
X165499998Y-63303571D01*
X165499998Y-63303571D02*
X165571426Y-63065476D01*
X165571426Y-63065476D02*
X165642855Y-62946428D01*
X165642855Y-62946428D02*
X165785712Y-62827380D01*
X165785712Y-62827380D02*
X165999998Y-62827380D01*
X165999998Y-62827380D02*
X166142855Y-62946428D01*
X166142855Y-62946428D02*
X166214284Y-63065476D01*
X166214284Y-63065476D02*
X166285712Y-63303571D01*
X166285712Y-63303571D02*
X166285712Y-64017857D01*
X166285712Y-64017857D02*
X166214284Y-64255952D01*
X166214284Y-64255952D02*
X166142855Y-64375000D01*
X166142855Y-64375000D02*
X165999998Y-64494047D01*
X165999998Y-64494047D02*
X165785712Y-64494047D01*
X166785712Y-62827380D02*
X167071427Y-64494047D01*
X167071427Y-64494047D02*
X167357141Y-63303571D01*
X167357141Y-63303571D02*
X167642855Y-64494047D01*
X167642855Y-64494047D02*
X167928569Y-62827380D01*
X142857142Y-68544047D02*
X142857142Y-66044047D01*
X142857142Y-66044047D02*
X143428571Y-66044047D01*
X143428571Y-66044047D02*
X143571428Y-66163095D01*
X143571428Y-66163095D02*
X143642857Y-66282142D01*
X143642857Y-66282142D02*
X143714285Y-66520238D01*
X143714285Y-66520238D02*
X143714285Y-66877380D01*
X143714285Y-66877380D02*
X143642857Y-67115476D01*
X143642857Y-67115476D02*
X143571428Y-67234523D01*
X143571428Y-67234523D02*
X143428571Y-67353571D01*
X143428571Y-67353571D02*
X142857142Y-67353571D01*
X144571428Y-68544047D02*
X144428571Y-68425000D01*
X144428571Y-68425000D02*
X144357142Y-68305952D01*
X144357142Y-68305952D02*
X144285714Y-68067857D01*
X144285714Y-68067857D02*
X144285714Y-67353571D01*
X144285714Y-67353571D02*
X144357142Y-67115476D01*
X144357142Y-67115476D02*
X144428571Y-66996428D01*
X144428571Y-66996428D02*
X144571428Y-66877380D01*
X144571428Y-66877380D02*
X144785714Y-66877380D01*
X144785714Y-66877380D02*
X144928571Y-66996428D01*
X144928571Y-66996428D02*
X145000000Y-67115476D01*
X145000000Y-67115476D02*
X145071428Y-67353571D01*
X145071428Y-67353571D02*
X145071428Y-68067857D01*
X145071428Y-68067857D02*
X145000000Y-68305952D01*
X145000000Y-68305952D02*
X144928571Y-68425000D01*
X144928571Y-68425000D02*
X144785714Y-68544047D01*
X144785714Y-68544047D02*
X144571428Y-68544047D01*
X145571428Y-66877380D02*
X145857143Y-68544047D01*
X145857143Y-68544047D02*
X146142857Y-67353571D01*
X146142857Y-67353571D02*
X146428571Y-68544047D01*
X146428571Y-68544047D02*
X146714285Y-66877380D01*
X147857143Y-68425000D02*
X147714286Y-68544047D01*
X147714286Y-68544047D02*
X147428572Y-68544047D01*
X147428572Y-68544047D02*
X147285714Y-68425000D01*
X147285714Y-68425000D02*
X147214286Y-68186904D01*
X147214286Y-68186904D02*
X147214286Y-67234523D01*
X147214286Y-67234523D02*
X147285714Y-66996428D01*
X147285714Y-66996428D02*
X147428572Y-66877380D01*
X147428572Y-66877380D02*
X147714286Y-66877380D01*
X147714286Y-66877380D02*
X147857143Y-66996428D01*
X147857143Y-66996428D02*
X147928572Y-67234523D01*
X147928572Y-67234523D02*
X147928572Y-67472619D01*
X147928572Y-67472619D02*
X147214286Y-67710714D01*
X148571428Y-68544047D02*
X148571428Y-66877380D01*
X148571428Y-67353571D02*
X148642857Y-67115476D01*
X148642857Y-67115476D02*
X148714286Y-66996428D01*
X148714286Y-66996428D02*
X148857143Y-66877380D01*
X148857143Y-66877380D02*
X149000000Y-66877380D01*
X150571428Y-68425000D02*
X150785714Y-68544047D01*
X150785714Y-68544047D02*
X151142856Y-68544047D01*
X151142856Y-68544047D02*
X151285714Y-68425000D01*
X151285714Y-68425000D02*
X151357142Y-68305952D01*
X151357142Y-68305952D02*
X151428571Y-68067857D01*
X151428571Y-68067857D02*
X151428571Y-67829761D01*
X151428571Y-67829761D02*
X151357142Y-67591666D01*
X151357142Y-67591666D02*
X151285714Y-67472619D01*
X151285714Y-67472619D02*
X151142856Y-67353571D01*
X151142856Y-67353571D02*
X150857142Y-67234523D01*
X150857142Y-67234523D02*
X150714285Y-67115476D01*
X150714285Y-67115476D02*
X150642856Y-66996428D01*
X150642856Y-66996428D02*
X150571428Y-66758333D01*
X150571428Y-66758333D02*
X150571428Y-66520238D01*
X150571428Y-66520238D02*
X150642856Y-66282142D01*
X150642856Y-66282142D02*
X150714285Y-66163095D01*
X150714285Y-66163095D02*
X150857142Y-66044047D01*
X150857142Y-66044047D02*
X151214285Y-66044047D01*
X151214285Y-66044047D02*
X151428571Y-66163095D01*
X152642856Y-68425000D02*
X152499999Y-68544047D01*
X152499999Y-68544047D02*
X152214285Y-68544047D01*
X152214285Y-68544047D02*
X152071427Y-68425000D01*
X152071427Y-68425000D02*
X151999999Y-68186904D01*
X151999999Y-68186904D02*
X151999999Y-67234523D01*
X151999999Y-67234523D02*
X152071427Y-66996428D01*
X152071427Y-66996428D02*
X152214285Y-66877380D01*
X152214285Y-66877380D02*
X152499999Y-66877380D01*
X152499999Y-66877380D02*
X152642856Y-66996428D01*
X152642856Y-66996428D02*
X152714285Y-67234523D01*
X152714285Y-67234523D02*
X152714285Y-67472619D01*
X152714285Y-67472619D02*
X151999999Y-67710714D01*
X153999999Y-68425000D02*
X153857141Y-68544047D01*
X153857141Y-68544047D02*
X153571427Y-68544047D01*
X153571427Y-68544047D02*
X153428570Y-68425000D01*
X153428570Y-68425000D02*
X153357141Y-68305952D01*
X153357141Y-68305952D02*
X153285713Y-68067857D01*
X153285713Y-68067857D02*
X153285713Y-67353571D01*
X153285713Y-67353571D02*
X153357141Y-67115476D01*
X153357141Y-67115476D02*
X153428570Y-66996428D01*
X153428570Y-66996428D02*
X153571427Y-66877380D01*
X153571427Y-66877380D02*
X153857141Y-66877380D01*
X153857141Y-66877380D02*
X153999999Y-66996428D01*
X154428570Y-66877380D02*
X154999998Y-66877380D01*
X154642855Y-66044047D02*
X154642855Y-68186904D01*
X154642855Y-68186904D02*
X154714284Y-68425000D01*
X154714284Y-68425000D02*
X154857141Y-68544047D01*
X154857141Y-68544047D02*
X154999998Y-68544047D01*
X155499998Y-68544047D02*
X155499998Y-66877380D01*
X155499998Y-66044047D02*
X155428570Y-66163095D01*
X155428570Y-66163095D02*
X155499998Y-66282142D01*
X155499998Y-66282142D02*
X155571427Y-66163095D01*
X155571427Y-66163095D02*
X155499998Y-66044047D01*
X155499998Y-66044047D02*
X155499998Y-66282142D01*
X156428570Y-68544047D02*
X156285713Y-68425000D01*
X156285713Y-68425000D02*
X156214284Y-68305952D01*
X156214284Y-68305952D02*
X156142856Y-68067857D01*
X156142856Y-68067857D02*
X156142856Y-67353571D01*
X156142856Y-67353571D02*
X156214284Y-67115476D01*
X156214284Y-67115476D02*
X156285713Y-66996428D01*
X156285713Y-66996428D02*
X156428570Y-66877380D01*
X156428570Y-66877380D02*
X156642856Y-66877380D01*
X156642856Y-66877380D02*
X156785713Y-66996428D01*
X156785713Y-66996428D02*
X156857142Y-67115476D01*
X156857142Y-67115476D02*
X156928570Y-67353571D01*
X156928570Y-67353571D02*
X156928570Y-68067857D01*
X156928570Y-68067857D02*
X156857142Y-68305952D01*
X156857142Y-68305952D02*
X156785713Y-68425000D01*
X156785713Y-68425000D02*
X156642856Y-68544047D01*
X156642856Y-68544047D02*
X156428570Y-68544047D01*
X157571427Y-66877380D02*
X157571427Y-68544047D01*
X157571427Y-67115476D02*
X157642856Y-66996428D01*
X157642856Y-66996428D02*
X157785713Y-66877380D01*
X157785713Y-66877380D02*
X157999999Y-66877380D01*
X157999999Y-66877380D02*
X158142856Y-66996428D01*
X158142856Y-66996428D02*
X158214285Y-67234523D01*
X158214285Y-67234523D02*
X158214285Y-68544047D01*
X159928570Y-66877380D02*
X160285713Y-68544047D01*
X160285713Y-68544047D02*
X160642856Y-66877380D01*
X161499999Y-66044047D02*
X161642856Y-66044047D01*
X161642856Y-66044047D02*
X161785713Y-66163095D01*
X161785713Y-66163095D02*
X161857142Y-66282142D01*
X161857142Y-66282142D02*
X161928570Y-66520238D01*
X161928570Y-66520238D02*
X161999999Y-66996428D01*
X161999999Y-66996428D02*
X161999999Y-67591666D01*
X161999999Y-67591666D02*
X161928570Y-68067857D01*
X161928570Y-68067857D02*
X161857142Y-68305952D01*
X161857142Y-68305952D02*
X161785713Y-68425000D01*
X161785713Y-68425000D02*
X161642856Y-68544047D01*
X161642856Y-68544047D02*
X161499999Y-68544047D01*
X161499999Y-68544047D02*
X161357142Y-68425000D01*
X161357142Y-68425000D02*
X161285713Y-68305952D01*
X161285713Y-68305952D02*
X161214284Y-68067857D01*
X161214284Y-68067857D02*
X161142856Y-67591666D01*
X161142856Y-67591666D02*
X161142856Y-66996428D01*
X161142856Y-66996428D02*
X161214284Y-66520238D01*
X161214284Y-66520238D02*
X161285713Y-66282142D01*
X161285713Y-66282142D02*
X161357142Y-66163095D01*
X161357142Y-66163095D02*
X161499999Y-66044047D01*
X162642855Y-68305952D02*
X162714284Y-68425000D01*
X162714284Y-68425000D02*
X162642855Y-68544047D01*
X162642855Y-68544047D02*
X162571427Y-68425000D01*
X162571427Y-68425000D02*
X162642855Y-68305952D01*
X162642855Y-68305952D02*
X162642855Y-68544047D01*
X163642856Y-66044047D02*
X163785713Y-66044047D01*
X163785713Y-66044047D02*
X163928570Y-66163095D01*
X163928570Y-66163095D02*
X163999999Y-66282142D01*
X163999999Y-66282142D02*
X164071427Y-66520238D01*
X164071427Y-66520238D02*
X164142856Y-66996428D01*
X164142856Y-66996428D02*
X164142856Y-67591666D01*
X164142856Y-67591666D02*
X164071427Y-68067857D01*
X164071427Y-68067857D02*
X163999999Y-68305952D01*
X163999999Y-68305952D02*
X163928570Y-68425000D01*
X163928570Y-68425000D02*
X163785713Y-68544047D01*
X163785713Y-68544047D02*
X163642856Y-68544047D01*
X163642856Y-68544047D02*
X163499999Y-68425000D01*
X163499999Y-68425000D02*
X163428570Y-68305952D01*
X163428570Y-68305952D02*
X163357141Y-68067857D01*
X163357141Y-68067857D02*
X163285713Y-67591666D01*
X163285713Y-67591666D02*
X163285713Y-66996428D01*
X163285713Y-66996428D02*
X163357141Y-66520238D01*
X163357141Y-66520238D02*
X163428570Y-66282142D01*
X163428570Y-66282142D02*
X163499999Y-66163095D01*
X163499999Y-66163095D02*
X163642856Y-66044047D01*
X142785714Y-70332142D02*
X142857142Y-70213095D01*
X142857142Y-70213095D02*
X143000000Y-70094047D01*
X143000000Y-70094047D02*
X143357142Y-70094047D01*
X143357142Y-70094047D02*
X143500000Y-70213095D01*
X143500000Y-70213095D02*
X143571428Y-70332142D01*
X143571428Y-70332142D02*
X143642857Y-70570238D01*
X143642857Y-70570238D02*
X143642857Y-70808333D01*
X143642857Y-70808333D02*
X143571428Y-71165476D01*
X143571428Y-71165476D02*
X142714285Y-72594047D01*
X142714285Y-72594047D02*
X143642857Y-72594047D01*
X144571428Y-70094047D02*
X144714285Y-70094047D01*
X144714285Y-70094047D02*
X144857142Y-70213095D01*
X144857142Y-70213095D02*
X144928571Y-70332142D01*
X144928571Y-70332142D02*
X144999999Y-70570238D01*
X144999999Y-70570238D02*
X145071428Y-71046428D01*
X145071428Y-71046428D02*
X145071428Y-71641666D01*
X145071428Y-71641666D02*
X144999999Y-72117857D01*
X144999999Y-72117857D02*
X144928571Y-72355952D01*
X144928571Y-72355952D02*
X144857142Y-72475000D01*
X144857142Y-72475000D02*
X144714285Y-72594047D01*
X144714285Y-72594047D02*
X144571428Y-72594047D01*
X144571428Y-72594047D02*
X144428571Y-72475000D01*
X144428571Y-72475000D02*
X144357142Y-72355952D01*
X144357142Y-72355952D02*
X144285713Y-72117857D01*
X144285713Y-72117857D02*
X144214285Y-71641666D01*
X144214285Y-71641666D02*
X144214285Y-71046428D01*
X144214285Y-71046428D02*
X144285713Y-70570238D01*
X144285713Y-70570238D02*
X144357142Y-70332142D01*
X144357142Y-70332142D02*
X144428571Y-70213095D01*
X144428571Y-70213095D02*
X144571428Y-70094047D01*
X145642856Y-70332142D02*
X145714284Y-70213095D01*
X145714284Y-70213095D02*
X145857142Y-70094047D01*
X145857142Y-70094047D02*
X146214284Y-70094047D01*
X146214284Y-70094047D02*
X146357142Y-70213095D01*
X146357142Y-70213095D02*
X146428570Y-70332142D01*
X146428570Y-70332142D02*
X146499999Y-70570238D01*
X146499999Y-70570238D02*
X146499999Y-70808333D01*
X146499999Y-70808333D02*
X146428570Y-71165476D01*
X146428570Y-71165476D02*
X145571427Y-72594047D01*
X145571427Y-72594047D02*
X146499999Y-72594047D01*
X146999998Y-70094047D02*
X147928570Y-70094047D01*
X147928570Y-70094047D02*
X147428570Y-71046428D01*
X147428570Y-71046428D02*
X147642855Y-71046428D01*
X147642855Y-71046428D02*
X147785713Y-71165476D01*
X147785713Y-71165476D02*
X147857141Y-71284523D01*
X147857141Y-71284523D02*
X147928570Y-71522619D01*
X147928570Y-71522619D02*
X147928570Y-72117857D01*
X147928570Y-72117857D02*
X147857141Y-72355952D01*
X147857141Y-72355952D02*
X147785713Y-72475000D01*
X147785713Y-72475000D02*
X147642855Y-72594047D01*
X147642855Y-72594047D02*
X147214284Y-72594047D01*
X147214284Y-72594047D02*
X147071427Y-72475000D01*
X147071427Y-72475000D02*
X146999998Y-72355952D01*
X148571426Y-71641666D02*
X149714284Y-71641666D01*
X150714284Y-70094047D02*
X150857141Y-70094047D01*
X150857141Y-70094047D02*
X150999998Y-70213095D01*
X150999998Y-70213095D02*
X151071427Y-70332142D01*
X151071427Y-70332142D02*
X151142855Y-70570238D01*
X151142855Y-70570238D02*
X151214284Y-71046428D01*
X151214284Y-71046428D02*
X151214284Y-71641666D01*
X151214284Y-71641666D02*
X151142855Y-72117857D01*
X151142855Y-72117857D02*
X151071427Y-72355952D01*
X151071427Y-72355952D02*
X150999998Y-72475000D01*
X150999998Y-72475000D02*
X150857141Y-72594047D01*
X150857141Y-72594047D02*
X150714284Y-72594047D01*
X150714284Y-72594047D02*
X150571427Y-72475000D01*
X150571427Y-72475000D02*
X150499998Y-72355952D01*
X150499998Y-72355952D02*
X150428569Y-72117857D01*
X150428569Y-72117857D02*
X150357141Y-71641666D01*
X150357141Y-71641666D02*
X150357141Y-71046428D01*
X150357141Y-71046428D02*
X150428569Y-70570238D01*
X150428569Y-70570238D02*
X150499998Y-70332142D01*
X150499998Y-70332142D02*
X150571427Y-70213095D01*
X150571427Y-70213095D02*
X150714284Y-70094047D01*
X152499998Y-70927380D02*
X152499998Y-72594047D01*
X152142855Y-69975000D02*
X151785712Y-71760714D01*
X151785712Y-71760714D02*
X152714283Y-71760714D01*
X153285711Y-71641666D02*
X154428569Y-71641666D01*
X155071426Y-70332142D02*
X155142854Y-70213095D01*
X155142854Y-70213095D02*
X155285712Y-70094047D01*
X155285712Y-70094047D02*
X155642854Y-70094047D01*
X155642854Y-70094047D02*
X155785712Y-70213095D01*
X155785712Y-70213095D02*
X155857140Y-70332142D01*
X155857140Y-70332142D02*
X155928569Y-70570238D01*
X155928569Y-70570238D02*
X155928569Y-70808333D01*
X155928569Y-70808333D02*
X155857140Y-71165476D01*
X155857140Y-71165476D02*
X154999997Y-72594047D01*
X154999997Y-72594047D02*
X155928569Y-72594047D01*
X156642854Y-72594047D02*
X156928568Y-72594047D01*
X156928568Y-72594047D02*
X157071425Y-72475000D01*
X157071425Y-72475000D02*
X157142854Y-72355952D01*
X157142854Y-72355952D02*
X157285711Y-71998809D01*
X157285711Y-71998809D02*
X157357140Y-71522619D01*
X157357140Y-71522619D02*
X157357140Y-70570238D01*
X157357140Y-70570238D02*
X157285711Y-70332142D01*
X157285711Y-70332142D02*
X157214283Y-70213095D01*
X157214283Y-70213095D02*
X157071425Y-70094047D01*
X157071425Y-70094047D02*
X156785711Y-70094047D01*
X156785711Y-70094047D02*
X156642854Y-70213095D01*
X156642854Y-70213095D02*
X156571425Y-70332142D01*
X156571425Y-70332142D02*
X156499997Y-70570238D01*
X156499997Y-70570238D02*
X156499997Y-71165476D01*
X156499997Y-71165476D02*
X156571425Y-71403571D01*
X156571425Y-71403571D02*
X156642854Y-71522619D01*
X156642854Y-71522619D02*
X156785711Y-71641666D01*
X156785711Y-71641666D02*
X157071425Y-71641666D01*
X157071425Y-71641666D02*
X157214283Y-71522619D01*
X157214283Y-71522619D02*
X157285711Y-71403571D01*
X157285711Y-71403571D02*
X157357140Y-71165476D01*
X158357142Y-80753238D02*
X158923809Y-82753238D01*
X158923809Y-82753238D02*
X159490476Y-80753238D01*
X160057142Y-82753238D02*
X160057142Y-81419904D01*
X160057142Y-80753238D02*
X159976190Y-80848476D01*
X159976190Y-80848476D02*
X160057142Y-80943714D01*
X160057142Y-80943714D02*
X160138095Y-80848476D01*
X160138095Y-80848476D02*
X160057142Y-80753238D01*
X160057142Y-80753238D02*
X160057142Y-80943714D01*
X160866666Y-81419904D02*
X160866666Y-82753238D01*
X160866666Y-81610380D02*
X160947619Y-81515142D01*
X160947619Y-81515142D02*
X161109524Y-81419904D01*
X161109524Y-81419904D02*
X161352381Y-81419904D01*
X161352381Y-81419904D02*
X161514285Y-81515142D01*
X161514285Y-81515142D02*
X161595238Y-81705619D01*
X161595238Y-81705619D02*
X161595238Y-82753238D01*
X159247618Y-85253238D02*
X159247618Y-83253238D01*
X160057142Y-85253238D02*
X160057142Y-83253238D01*
X160785714Y-85253238D02*
X160785714Y-84205619D01*
X160785714Y-84205619D02*
X160704761Y-84015142D01*
X160704761Y-84015142D02*
X160542857Y-83919904D01*
X160542857Y-83919904D02*
X160300000Y-83919904D01*
X160300000Y-83919904D02*
X160138095Y-84015142D01*
X160138095Y-84015142D02*
X160057142Y-84110380D01*
X161595237Y-85253238D02*
X161595237Y-83919904D01*
X161595237Y-83253238D02*
X161514285Y-83348476D01*
X161514285Y-83348476D02*
X161595237Y-83443714D01*
X161595237Y-83443714D02*
X161676190Y-83348476D01*
X161676190Y-83348476D02*
X161595237Y-83253238D01*
X161595237Y-83253238D02*
X161595237Y-83443714D01*
X158114286Y-88348476D02*
X157952381Y-88253238D01*
X157952381Y-88253238D02*
X157709524Y-88253238D01*
X157709524Y-88253238D02*
X157466667Y-88348476D01*
X157466667Y-88348476D02*
X157304762Y-88538952D01*
X157304762Y-88538952D02*
X157223809Y-88729428D01*
X157223809Y-88729428D02*
X157142857Y-89110380D01*
X157142857Y-89110380D02*
X157142857Y-89396095D01*
X157142857Y-89396095D02*
X157223809Y-89777047D01*
X157223809Y-89777047D02*
X157304762Y-89967523D01*
X157304762Y-89967523D02*
X157466667Y-90158000D01*
X157466667Y-90158000D02*
X157709524Y-90253238D01*
X157709524Y-90253238D02*
X157871428Y-90253238D01*
X157871428Y-90253238D02*
X158114286Y-90158000D01*
X158114286Y-90158000D02*
X158195238Y-90062761D01*
X158195238Y-90062761D02*
X158195238Y-89396095D01*
X158195238Y-89396095D02*
X157871428Y-89396095D01*
X158923809Y-90253238D02*
X158923809Y-88253238D01*
X158923809Y-88253238D02*
X159895238Y-90253238D01*
X159895238Y-90253238D02*
X159895238Y-88253238D01*
X160704761Y-90253238D02*
X160704761Y-88253238D01*
X160704761Y-88253238D02*
X161109523Y-88253238D01*
X161109523Y-88253238D02*
X161352380Y-88348476D01*
X161352380Y-88348476D02*
X161514285Y-88538952D01*
X161514285Y-88538952D02*
X161595238Y-88729428D01*
X161595238Y-88729428D02*
X161676190Y-89110380D01*
X161676190Y-89110380D02*
X161676190Y-89396095D01*
X161676190Y-89396095D02*
X161595238Y-89777047D01*
X161595238Y-89777047D02*
X161514285Y-89967523D01*
X161514285Y-89967523D02*
X161352380Y-90158000D01*
X161352380Y-90158000D02*
X161109523Y-90253238D01*
X161109523Y-90253238D02*
X160704761Y-90253238D01*
X137355238Y-52514286D02*
X139355238Y-51947619D01*
X139355238Y-51947619D02*
X137355238Y-51380952D01*
X139260000Y-50895238D02*
X139355238Y-50652381D01*
X139355238Y-50652381D02*
X139355238Y-50247619D01*
X139355238Y-50247619D02*
X139260000Y-50085714D01*
X139260000Y-50085714D02*
X139164761Y-50004762D01*
X139164761Y-50004762D02*
X138974285Y-49923809D01*
X138974285Y-49923809D02*
X138783809Y-49923809D01*
X138783809Y-49923809D02*
X138593333Y-50004762D01*
X138593333Y-50004762D02*
X138498095Y-50085714D01*
X138498095Y-50085714D02*
X138402857Y-50247619D01*
X138402857Y-50247619D02*
X138307619Y-50571428D01*
X138307619Y-50571428D02*
X138212380Y-50733333D01*
X138212380Y-50733333D02*
X138117142Y-50814286D01*
X138117142Y-50814286D02*
X137926666Y-50895238D01*
X137926666Y-50895238D02*
X137736190Y-50895238D01*
X137736190Y-50895238D02*
X137545714Y-50814286D01*
X137545714Y-50814286D02*
X137450476Y-50733333D01*
X137450476Y-50733333D02*
X137355238Y-50571428D01*
X137355238Y-50571428D02*
X137355238Y-50166667D01*
X137355238Y-50166667D02*
X137450476Y-49923809D01*
X159166666Y-87753238D02*
X159166666Y-85753238D01*
X160219048Y-87753238D02*
X160057143Y-87658000D01*
X160057143Y-87658000D02*
X159976190Y-87467523D01*
X159976190Y-87467523D02*
X159976190Y-85753238D01*
X161109524Y-87753238D02*
X160947619Y-87658000D01*
X160947619Y-87658000D02*
X160866666Y-87562761D01*
X160866666Y-87562761D02*
X160785714Y-87372285D01*
X160785714Y-87372285D02*
X160785714Y-86800857D01*
X160785714Y-86800857D02*
X160866666Y-86610380D01*
X160866666Y-86610380D02*
X160947619Y-86515142D01*
X160947619Y-86515142D02*
X161109524Y-86419904D01*
X161109524Y-86419904D02*
X161352381Y-86419904D01*
X161352381Y-86419904D02*
X161514285Y-86515142D01*
X161514285Y-86515142D02*
X161595238Y-86610380D01*
X161595238Y-86610380D02*
X161676190Y-86800857D01*
X161676190Y-86800857D02*
X161676190Y-87372285D01*
X161676190Y-87372285D02*
X161595238Y-87562761D01*
X161595238Y-87562761D02*
X161514285Y-87658000D01*
X161514285Y-87658000D02*
X161352381Y-87753238D01*
X161352381Y-87753238D02*
X161109524Y-87753238D01*
X156819047Y-80253238D02*
X156819047Y-78253238D01*
X156819047Y-78253238D02*
X157466666Y-78253238D01*
X157466666Y-78253238D02*
X157628571Y-78348476D01*
X157628571Y-78348476D02*
X157709524Y-78443714D01*
X157709524Y-78443714D02*
X157790476Y-78634190D01*
X157790476Y-78634190D02*
X157790476Y-78919904D01*
X157790476Y-78919904D02*
X157709524Y-79110380D01*
X157709524Y-79110380D02*
X157628571Y-79205619D01*
X157628571Y-79205619D02*
X157466666Y-79300857D01*
X157466666Y-79300857D02*
X156819047Y-79300857D01*
X158357143Y-78253238D02*
X158761905Y-80253238D01*
X158761905Y-80253238D02*
X159085714Y-78824666D01*
X159085714Y-78824666D02*
X159409524Y-80253238D01*
X159409524Y-80253238D02*
X159814286Y-78253238D01*
X160461904Y-80253238D02*
X160461904Y-78253238D01*
X160461904Y-78253238D02*
X161028571Y-79681809D01*
X161028571Y-79681809D02*
X161595238Y-78253238D01*
X161595238Y-78253238D02*
X161595238Y-80253238D01*
D11*
%TO.C,R1*%
X155155333Y-81234619D02*
X154822000Y-80758428D01*
X154583905Y-81234619D02*
X154583905Y-80234619D01*
X154583905Y-80234619D02*
X154964857Y-80234619D01*
X154964857Y-80234619D02*
X155060095Y-80282238D01*
X155060095Y-80282238D02*
X155107714Y-80329857D01*
X155107714Y-80329857D02*
X155155333Y-80425095D01*
X155155333Y-80425095D02*
X155155333Y-80567952D01*
X155155333Y-80567952D02*
X155107714Y-80663190D01*
X155107714Y-80663190D02*
X155060095Y-80710809D01*
X155060095Y-80710809D02*
X154964857Y-80758428D01*
X154964857Y-80758428D02*
X154583905Y-80758428D01*
X156107714Y-81234619D02*
X155536286Y-81234619D01*
X155822000Y-81234619D02*
X155822000Y-80234619D01*
X155822000Y-80234619D02*
X155726762Y-80377476D01*
X155726762Y-80377476D02*
X155631524Y-80472714D01*
X155631524Y-80472714D02*
X155536286Y-80520333D01*
%TO.C,C2*%
X101133333Y-81067380D02*
X101085714Y-81115000D01*
X101085714Y-81115000D02*
X100942857Y-81162619D01*
X100942857Y-81162619D02*
X100847619Y-81162619D01*
X100847619Y-81162619D02*
X100704762Y-81115000D01*
X100704762Y-81115000D02*
X100609524Y-81019761D01*
X100609524Y-81019761D02*
X100561905Y-80924523D01*
X100561905Y-80924523D02*
X100514286Y-80734047D01*
X100514286Y-80734047D02*
X100514286Y-80591190D01*
X100514286Y-80591190D02*
X100561905Y-80400714D01*
X100561905Y-80400714D02*
X100609524Y-80305476D01*
X100609524Y-80305476D02*
X100704762Y-80210238D01*
X100704762Y-80210238D02*
X100847619Y-80162619D01*
X100847619Y-80162619D02*
X100942857Y-80162619D01*
X100942857Y-80162619D02*
X101085714Y-80210238D01*
X101085714Y-80210238D02*
X101133333Y-80257857D01*
X101514286Y-80257857D02*
X101561905Y-80210238D01*
X101561905Y-80210238D02*
X101657143Y-80162619D01*
X101657143Y-80162619D02*
X101895238Y-80162619D01*
X101895238Y-80162619D02*
X101990476Y-80210238D01*
X101990476Y-80210238D02*
X102038095Y-80257857D01*
X102038095Y-80257857D02*
X102085714Y-80353095D01*
X102085714Y-80353095D02*
X102085714Y-80448333D01*
X102085714Y-80448333D02*
X102038095Y-80591190D01*
X102038095Y-80591190D02*
X101466667Y-81162619D01*
X101466667Y-81162619D02*
X102085714Y-81162619D01*
%TO.C,R4*%
X121377333Y-85235619D02*
X121044000Y-84759428D01*
X120805905Y-85235619D02*
X120805905Y-84235619D01*
X120805905Y-84235619D02*
X121186857Y-84235619D01*
X121186857Y-84235619D02*
X121282095Y-84283238D01*
X121282095Y-84283238D02*
X121329714Y-84330857D01*
X121329714Y-84330857D02*
X121377333Y-84426095D01*
X121377333Y-84426095D02*
X121377333Y-84568952D01*
X121377333Y-84568952D02*
X121329714Y-84664190D01*
X121329714Y-84664190D02*
X121282095Y-84711809D01*
X121282095Y-84711809D02*
X121186857Y-84759428D01*
X121186857Y-84759428D02*
X120805905Y-84759428D01*
X122234476Y-84568952D02*
X122234476Y-85235619D01*
X121996381Y-84188000D02*
X121758286Y-84902285D01*
X121758286Y-84902285D02*
X122377333Y-84902285D01*
%TO.C,R6*%
X115911333Y-92156619D02*
X115578000Y-91680428D01*
X115339905Y-92156619D02*
X115339905Y-91156619D01*
X115339905Y-91156619D02*
X115720857Y-91156619D01*
X115720857Y-91156619D02*
X115816095Y-91204238D01*
X115816095Y-91204238D02*
X115863714Y-91251857D01*
X115863714Y-91251857D02*
X115911333Y-91347095D01*
X115911333Y-91347095D02*
X115911333Y-91489952D01*
X115911333Y-91489952D02*
X115863714Y-91585190D01*
X115863714Y-91585190D02*
X115816095Y-91632809D01*
X115816095Y-91632809D02*
X115720857Y-91680428D01*
X115720857Y-91680428D02*
X115339905Y-91680428D01*
X116768476Y-91156619D02*
X116578000Y-91156619D01*
X116578000Y-91156619D02*
X116482762Y-91204238D01*
X116482762Y-91204238D02*
X116435143Y-91251857D01*
X116435143Y-91251857D02*
X116339905Y-91394714D01*
X116339905Y-91394714D02*
X116292286Y-91585190D01*
X116292286Y-91585190D02*
X116292286Y-91966142D01*
X116292286Y-91966142D02*
X116339905Y-92061380D01*
X116339905Y-92061380D02*
X116387524Y-92109000D01*
X116387524Y-92109000D02*
X116482762Y-92156619D01*
X116482762Y-92156619D02*
X116673238Y-92156619D01*
X116673238Y-92156619D02*
X116768476Y-92109000D01*
X116768476Y-92109000D02*
X116816095Y-92061380D01*
X116816095Y-92061380D02*
X116863714Y-91966142D01*
X116863714Y-91966142D02*
X116863714Y-91728047D01*
X116863714Y-91728047D02*
X116816095Y-91632809D01*
X116816095Y-91632809D02*
X116768476Y-91585190D01*
X116768476Y-91585190D02*
X116673238Y-91537571D01*
X116673238Y-91537571D02*
X116482762Y-91537571D01*
X116482762Y-91537571D02*
X116387524Y-91585190D01*
X116387524Y-91585190D02*
X116339905Y-91632809D01*
X116339905Y-91632809D02*
X116292286Y-91728047D01*
%TO.C,R13*%
X152265142Y-91902619D02*
X151931809Y-91426428D01*
X151693714Y-91902619D02*
X151693714Y-90902619D01*
X151693714Y-90902619D02*
X152074666Y-90902619D01*
X152074666Y-90902619D02*
X152169904Y-90950238D01*
X152169904Y-90950238D02*
X152217523Y-90997857D01*
X152217523Y-90997857D02*
X152265142Y-91093095D01*
X152265142Y-91093095D02*
X152265142Y-91235952D01*
X152265142Y-91235952D02*
X152217523Y-91331190D01*
X152217523Y-91331190D02*
X152169904Y-91378809D01*
X152169904Y-91378809D02*
X152074666Y-91426428D01*
X152074666Y-91426428D02*
X151693714Y-91426428D01*
X153217523Y-91902619D02*
X152646095Y-91902619D01*
X152931809Y-91902619D02*
X152931809Y-90902619D01*
X152931809Y-90902619D02*
X152836571Y-91045476D01*
X152836571Y-91045476D02*
X152741333Y-91140714D01*
X152741333Y-91140714D02*
X152646095Y-91188333D01*
X153550857Y-90902619D02*
X154169904Y-90902619D01*
X154169904Y-90902619D02*
X153836571Y-91283571D01*
X153836571Y-91283571D02*
X153979428Y-91283571D01*
X153979428Y-91283571D02*
X154074666Y-91331190D01*
X154074666Y-91331190D02*
X154122285Y-91378809D01*
X154122285Y-91378809D02*
X154169904Y-91474047D01*
X154169904Y-91474047D02*
X154169904Y-91712142D01*
X154169904Y-91712142D02*
X154122285Y-91807380D01*
X154122285Y-91807380D02*
X154074666Y-91855000D01*
X154074666Y-91855000D02*
X153979428Y-91902619D01*
X153979428Y-91902619D02*
X153693714Y-91902619D01*
X153693714Y-91902619D02*
X153598476Y-91855000D01*
X153598476Y-91855000D02*
X153550857Y-91807380D01*
%TO.C,R9*%
X127595333Y-100792619D02*
X127262000Y-100316428D01*
X127023905Y-100792619D02*
X127023905Y-99792619D01*
X127023905Y-99792619D02*
X127404857Y-99792619D01*
X127404857Y-99792619D02*
X127500095Y-99840238D01*
X127500095Y-99840238D02*
X127547714Y-99887857D01*
X127547714Y-99887857D02*
X127595333Y-99983095D01*
X127595333Y-99983095D02*
X127595333Y-100125952D01*
X127595333Y-100125952D02*
X127547714Y-100221190D01*
X127547714Y-100221190D02*
X127500095Y-100268809D01*
X127500095Y-100268809D02*
X127404857Y-100316428D01*
X127404857Y-100316428D02*
X127023905Y-100316428D01*
X128071524Y-100792619D02*
X128262000Y-100792619D01*
X128262000Y-100792619D02*
X128357238Y-100745000D01*
X128357238Y-100745000D02*
X128404857Y-100697380D01*
X128404857Y-100697380D02*
X128500095Y-100554523D01*
X128500095Y-100554523D02*
X128547714Y-100364047D01*
X128547714Y-100364047D02*
X128547714Y-99983095D01*
X128547714Y-99983095D02*
X128500095Y-99887857D01*
X128500095Y-99887857D02*
X128452476Y-99840238D01*
X128452476Y-99840238D02*
X128357238Y-99792619D01*
X128357238Y-99792619D02*
X128166762Y-99792619D01*
X128166762Y-99792619D02*
X128071524Y-99840238D01*
X128071524Y-99840238D02*
X128023905Y-99887857D01*
X128023905Y-99887857D02*
X127976286Y-99983095D01*
X127976286Y-99983095D02*
X127976286Y-100221190D01*
X127976286Y-100221190D02*
X128023905Y-100316428D01*
X128023905Y-100316428D02*
X128071524Y-100364047D01*
X128071524Y-100364047D02*
X128166762Y-100411666D01*
X128166762Y-100411666D02*
X128357238Y-100411666D01*
X128357238Y-100411666D02*
X128452476Y-100364047D01*
X128452476Y-100364047D02*
X128500095Y-100316428D01*
X128500095Y-100316428D02*
X128547714Y-100221190D01*
%TO.C,Q1*%
X121404761Y-88808357D02*
X121309523Y-88760738D01*
X121309523Y-88760738D02*
X121214285Y-88665500D01*
X121214285Y-88665500D02*
X121071428Y-88522642D01*
X121071428Y-88522642D02*
X120976190Y-88475023D01*
X120976190Y-88475023D02*
X120880952Y-88475023D01*
X120928571Y-88713119D02*
X120833333Y-88665500D01*
X120833333Y-88665500D02*
X120738095Y-88570261D01*
X120738095Y-88570261D02*
X120690476Y-88379785D01*
X120690476Y-88379785D02*
X120690476Y-88046452D01*
X120690476Y-88046452D02*
X120738095Y-87855976D01*
X120738095Y-87855976D02*
X120833333Y-87760738D01*
X120833333Y-87760738D02*
X120928571Y-87713119D01*
X120928571Y-87713119D02*
X121119047Y-87713119D01*
X121119047Y-87713119D02*
X121214285Y-87760738D01*
X121214285Y-87760738D02*
X121309523Y-87855976D01*
X121309523Y-87855976D02*
X121357142Y-88046452D01*
X121357142Y-88046452D02*
X121357142Y-88379785D01*
X121357142Y-88379785D02*
X121309523Y-88570261D01*
X121309523Y-88570261D02*
X121214285Y-88665500D01*
X121214285Y-88665500D02*
X121119047Y-88713119D01*
X121119047Y-88713119D02*
X120928571Y-88713119D01*
X122309523Y-88713119D02*
X121738095Y-88713119D01*
X122023809Y-88713119D02*
X122023809Y-87713119D01*
X122023809Y-87713119D02*
X121928571Y-87855976D01*
X121928571Y-87855976D02*
X121833333Y-87951214D01*
X121833333Y-87951214D02*
X121738095Y-87998833D01*
%TO.C,R8*%
X116673333Y-82250619D02*
X116340000Y-81774428D01*
X116101905Y-82250619D02*
X116101905Y-81250619D01*
X116101905Y-81250619D02*
X116482857Y-81250619D01*
X116482857Y-81250619D02*
X116578095Y-81298238D01*
X116578095Y-81298238D02*
X116625714Y-81345857D01*
X116625714Y-81345857D02*
X116673333Y-81441095D01*
X116673333Y-81441095D02*
X116673333Y-81583952D01*
X116673333Y-81583952D02*
X116625714Y-81679190D01*
X116625714Y-81679190D02*
X116578095Y-81726809D01*
X116578095Y-81726809D02*
X116482857Y-81774428D01*
X116482857Y-81774428D02*
X116101905Y-81774428D01*
X117244762Y-81679190D02*
X117149524Y-81631571D01*
X117149524Y-81631571D02*
X117101905Y-81583952D01*
X117101905Y-81583952D02*
X117054286Y-81488714D01*
X117054286Y-81488714D02*
X117054286Y-81441095D01*
X117054286Y-81441095D02*
X117101905Y-81345857D01*
X117101905Y-81345857D02*
X117149524Y-81298238D01*
X117149524Y-81298238D02*
X117244762Y-81250619D01*
X117244762Y-81250619D02*
X117435238Y-81250619D01*
X117435238Y-81250619D02*
X117530476Y-81298238D01*
X117530476Y-81298238D02*
X117578095Y-81345857D01*
X117578095Y-81345857D02*
X117625714Y-81441095D01*
X117625714Y-81441095D02*
X117625714Y-81488714D01*
X117625714Y-81488714D02*
X117578095Y-81583952D01*
X117578095Y-81583952D02*
X117530476Y-81631571D01*
X117530476Y-81631571D02*
X117435238Y-81679190D01*
X117435238Y-81679190D02*
X117244762Y-81679190D01*
X117244762Y-81679190D02*
X117149524Y-81726809D01*
X117149524Y-81726809D02*
X117101905Y-81774428D01*
X117101905Y-81774428D02*
X117054286Y-81869666D01*
X117054286Y-81869666D02*
X117054286Y-82060142D01*
X117054286Y-82060142D02*
X117101905Y-82155380D01*
X117101905Y-82155380D02*
X117149524Y-82203000D01*
X117149524Y-82203000D02*
X117244762Y-82250619D01*
X117244762Y-82250619D02*
X117435238Y-82250619D01*
X117435238Y-82250619D02*
X117530476Y-82203000D01*
X117530476Y-82203000D02*
X117578095Y-82155380D01*
X117578095Y-82155380D02*
X117625714Y-82060142D01*
X117625714Y-82060142D02*
X117625714Y-81869666D01*
X117625714Y-81869666D02*
X117578095Y-81774428D01*
X117578095Y-81774428D02*
X117530476Y-81726809D01*
X117530476Y-81726809D02*
X117435238Y-81679190D01*
%TO.C,H2*%
X100838095Y-53410238D02*
X100742857Y-53362619D01*
X100742857Y-53362619D02*
X100600000Y-53362619D01*
X100600000Y-53362619D02*
X100457143Y-53410238D01*
X100457143Y-53410238D02*
X100361905Y-53505476D01*
X100361905Y-53505476D02*
X100314286Y-53600714D01*
X100314286Y-53600714D02*
X100266667Y-53791190D01*
X100266667Y-53791190D02*
X100266667Y-53934047D01*
X100266667Y-53934047D02*
X100314286Y-54124523D01*
X100314286Y-54124523D02*
X100361905Y-54219761D01*
X100361905Y-54219761D02*
X100457143Y-54315000D01*
X100457143Y-54315000D02*
X100600000Y-54362619D01*
X100600000Y-54362619D02*
X100695238Y-54362619D01*
X100695238Y-54362619D02*
X100838095Y-54315000D01*
X100838095Y-54315000D02*
X100885714Y-54267380D01*
X100885714Y-54267380D02*
X100885714Y-53934047D01*
X100885714Y-53934047D02*
X100695238Y-53934047D01*
X101314286Y-54362619D02*
X101314286Y-53362619D01*
X101314286Y-53362619D02*
X101885714Y-54362619D01*
X101885714Y-54362619D02*
X101885714Y-53362619D01*
X102361905Y-54362619D02*
X102361905Y-53362619D01*
X102361905Y-53362619D02*
X102600000Y-53362619D01*
X102600000Y-53362619D02*
X102742857Y-53410238D01*
X102742857Y-53410238D02*
X102838095Y-53505476D01*
X102838095Y-53505476D02*
X102885714Y-53600714D01*
X102885714Y-53600714D02*
X102933333Y-53791190D01*
X102933333Y-53791190D02*
X102933333Y-53934047D01*
X102933333Y-53934047D02*
X102885714Y-54124523D01*
X102885714Y-54124523D02*
X102838095Y-54219761D01*
X102838095Y-54219761D02*
X102742857Y-54315000D01*
X102742857Y-54315000D02*
X102600000Y-54362619D01*
X102600000Y-54362619D02*
X102361905Y-54362619D01*
%TO.C,12V1*%
X105647523Y-107904619D02*
X105076095Y-107904619D01*
X105361809Y-107904619D02*
X105361809Y-106904619D01*
X105361809Y-106904619D02*
X105266571Y-107047476D01*
X105266571Y-107047476D02*
X105171333Y-107142714D01*
X105171333Y-107142714D02*
X105076095Y-107190333D01*
X106028476Y-106999857D02*
X106076095Y-106952238D01*
X106076095Y-106952238D02*
X106171333Y-106904619D01*
X106171333Y-106904619D02*
X106409428Y-106904619D01*
X106409428Y-106904619D02*
X106504666Y-106952238D01*
X106504666Y-106952238D02*
X106552285Y-106999857D01*
X106552285Y-106999857D02*
X106599904Y-107095095D01*
X106599904Y-107095095D02*
X106599904Y-107190333D01*
X106599904Y-107190333D02*
X106552285Y-107333190D01*
X106552285Y-107333190D02*
X105980857Y-107904619D01*
X105980857Y-107904619D02*
X106599904Y-107904619D01*
X107028476Y-107523666D02*
X107790381Y-107523666D01*
X108218952Y-106999857D02*
X108266571Y-106952238D01*
X108266571Y-106952238D02*
X108361809Y-106904619D01*
X108361809Y-106904619D02*
X108599904Y-106904619D01*
X108599904Y-106904619D02*
X108695142Y-106952238D01*
X108695142Y-106952238D02*
X108742761Y-106999857D01*
X108742761Y-106999857D02*
X108790380Y-107095095D01*
X108790380Y-107095095D02*
X108790380Y-107190333D01*
X108790380Y-107190333D02*
X108742761Y-107333190D01*
X108742761Y-107333190D02*
X108171333Y-107904619D01*
X108171333Y-107904619D02*
X108790380Y-107904619D01*
X109409428Y-106904619D02*
X109504666Y-106904619D01*
X109504666Y-106904619D02*
X109599904Y-106952238D01*
X109599904Y-106952238D02*
X109647523Y-106999857D01*
X109647523Y-106999857D02*
X109695142Y-107095095D01*
X109695142Y-107095095D02*
X109742761Y-107285571D01*
X109742761Y-107285571D02*
X109742761Y-107523666D01*
X109742761Y-107523666D02*
X109695142Y-107714142D01*
X109695142Y-107714142D02*
X109647523Y-107809380D01*
X109647523Y-107809380D02*
X109599904Y-107857000D01*
X109599904Y-107857000D02*
X109504666Y-107904619D01*
X109504666Y-107904619D02*
X109409428Y-107904619D01*
X109409428Y-107904619D02*
X109314190Y-107857000D01*
X109314190Y-107857000D02*
X109266571Y-107809380D01*
X109266571Y-107809380D02*
X109218952Y-107714142D01*
X109218952Y-107714142D02*
X109171333Y-107523666D01*
X109171333Y-107523666D02*
X109171333Y-107285571D01*
X109171333Y-107285571D02*
X109218952Y-107095095D01*
X109218952Y-107095095D02*
X109266571Y-106999857D01*
X109266571Y-106999857D02*
X109314190Y-106952238D01*
X109314190Y-106952238D02*
X109409428Y-106904619D01*
X110028476Y-106904619D02*
X110361809Y-107904619D01*
X110361809Y-107904619D02*
X110695142Y-106904619D01*
%TO.C,L2*%
X135533333Y-66062619D02*
X135057143Y-66062619D01*
X135057143Y-66062619D02*
X135057143Y-65062619D01*
X135819048Y-65157857D02*
X135866667Y-65110238D01*
X135866667Y-65110238D02*
X135961905Y-65062619D01*
X135961905Y-65062619D02*
X136200000Y-65062619D01*
X136200000Y-65062619D02*
X136295238Y-65110238D01*
X136295238Y-65110238D02*
X136342857Y-65157857D01*
X136342857Y-65157857D02*
X136390476Y-65253095D01*
X136390476Y-65253095D02*
X136390476Y-65348333D01*
X136390476Y-65348333D02*
X136342857Y-65491190D01*
X136342857Y-65491190D02*
X135771429Y-66062619D01*
X135771429Y-66062619D02*
X136390476Y-66062619D01*
%TO.C,U2*%
X144238095Y-87608619D02*
X144238095Y-88418142D01*
X144238095Y-88418142D02*
X144285714Y-88513380D01*
X144285714Y-88513380D02*
X144333333Y-88561000D01*
X144333333Y-88561000D02*
X144428571Y-88608619D01*
X144428571Y-88608619D02*
X144619047Y-88608619D01*
X144619047Y-88608619D02*
X144714285Y-88561000D01*
X144714285Y-88561000D02*
X144761904Y-88513380D01*
X144761904Y-88513380D02*
X144809523Y-88418142D01*
X144809523Y-88418142D02*
X144809523Y-87608619D01*
X145238095Y-87703857D02*
X145285714Y-87656238D01*
X145285714Y-87656238D02*
X145380952Y-87608619D01*
X145380952Y-87608619D02*
X145619047Y-87608619D01*
X145619047Y-87608619D02*
X145714285Y-87656238D01*
X145714285Y-87656238D02*
X145761904Y-87703857D01*
X145761904Y-87703857D02*
X145809523Y-87799095D01*
X145809523Y-87799095D02*
X145809523Y-87894333D01*
X145809523Y-87894333D02*
X145761904Y-88037190D01*
X145761904Y-88037190D02*
X145190476Y-88608619D01*
X145190476Y-88608619D02*
X145809523Y-88608619D01*
%TO.C,C6*%
X144487333Y-80471380D02*
X144439714Y-80519000D01*
X144439714Y-80519000D02*
X144296857Y-80566619D01*
X144296857Y-80566619D02*
X144201619Y-80566619D01*
X144201619Y-80566619D02*
X144058762Y-80519000D01*
X144058762Y-80519000D02*
X143963524Y-80423761D01*
X143963524Y-80423761D02*
X143915905Y-80328523D01*
X143915905Y-80328523D02*
X143868286Y-80138047D01*
X143868286Y-80138047D02*
X143868286Y-79995190D01*
X143868286Y-79995190D02*
X143915905Y-79804714D01*
X143915905Y-79804714D02*
X143963524Y-79709476D01*
X143963524Y-79709476D02*
X144058762Y-79614238D01*
X144058762Y-79614238D02*
X144201619Y-79566619D01*
X144201619Y-79566619D02*
X144296857Y-79566619D01*
X144296857Y-79566619D02*
X144439714Y-79614238D01*
X144439714Y-79614238D02*
X144487333Y-79661857D01*
X145344476Y-79566619D02*
X145154000Y-79566619D01*
X145154000Y-79566619D02*
X145058762Y-79614238D01*
X145058762Y-79614238D02*
X145011143Y-79661857D01*
X145011143Y-79661857D02*
X144915905Y-79804714D01*
X144915905Y-79804714D02*
X144868286Y-79995190D01*
X144868286Y-79995190D02*
X144868286Y-80376142D01*
X144868286Y-80376142D02*
X144915905Y-80471380D01*
X144915905Y-80471380D02*
X144963524Y-80519000D01*
X144963524Y-80519000D02*
X145058762Y-80566619D01*
X145058762Y-80566619D02*
X145249238Y-80566619D01*
X145249238Y-80566619D02*
X145344476Y-80519000D01*
X145344476Y-80519000D02*
X145392095Y-80471380D01*
X145392095Y-80471380D02*
X145439714Y-80376142D01*
X145439714Y-80376142D02*
X145439714Y-80138047D01*
X145439714Y-80138047D02*
X145392095Y-80042809D01*
X145392095Y-80042809D02*
X145344476Y-79995190D01*
X145344476Y-79995190D02*
X145249238Y-79947571D01*
X145249238Y-79947571D02*
X145058762Y-79947571D01*
X145058762Y-79947571D02*
X144963524Y-79995190D01*
X144963524Y-79995190D02*
X144915905Y-80042809D01*
X144915905Y-80042809D02*
X144868286Y-80138047D01*
%TO.C,R7*%
X129119333Y-94442619D02*
X128786000Y-93966428D01*
X128547905Y-94442619D02*
X128547905Y-93442619D01*
X128547905Y-93442619D02*
X128928857Y-93442619D01*
X128928857Y-93442619D02*
X129024095Y-93490238D01*
X129024095Y-93490238D02*
X129071714Y-93537857D01*
X129071714Y-93537857D02*
X129119333Y-93633095D01*
X129119333Y-93633095D02*
X129119333Y-93775952D01*
X129119333Y-93775952D02*
X129071714Y-93871190D01*
X129071714Y-93871190D02*
X129024095Y-93918809D01*
X129024095Y-93918809D02*
X128928857Y-93966428D01*
X128928857Y-93966428D02*
X128547905Y-93966428D01*
X129452667Y-93442619D02*
X130119333Y-93442619D01*
X130119333Y-93442619D02*
X129690762Y-94442619D01*
%TO.C,R10*%
X134993142Y-105618619D02*
X134659809Y-105142428D01*
X134421714Y-105618619D02*
X134421714Y-104618619D01*
X134421714Y-104618619D02*
X134802666Y-104618619D01*
X134802666Y-104618619D02*
X134897904Y-104666238D01*
X134897904Y-104666238D02*
X134945523Y-104713857D01*
X134945523Y-104713857D02*
X134993142Y-104809095D01*
X134993142Y-104809095D02*
X134993142Y-104951952D01*
X134993142Y-104951952D02*
X134945523Y-105047190D01*
X134945523Y-105047190D02*
X134897904Y-105094809D01*
X134897904Y-105094809D02*
X134802666Y-105142428D01*
X134802666Y-105142428D02*
X134421714Y-105142428D01*
X135945523Y-105618619D02*
X135374095Y-105618619D01*
X135659809Y-105618619D02*
X135659809Y-104618619D01*
X135659809Y-104618619D02*
X135564571Y-104761476D01*
X135564571Y-104761476D02*
X135469333Y-104856714D01*
X135469333Y-104856714D02*
X135374095Y-104904333D01*
X136564571Y-104618619D02*
X136659809Y-104618619D01*
X136659809Y-104618619D02*
X136755047Y-104666238D01*
X136755047Y-104666238D02*
X136802666Y-104713857D01*
X136802666Y-104713857D02*
X136850285Y-104809095D01*
X136850285Y-104809095D02*
X136897904Y-104999571D01*
X136897904Y-104999571D02*
X136897904Y-105237666D01*
X136897904Y-105237666D02*
X136850285Y-105428142D01*
X136850285Y-105428142D02*
X136802666Y-105523380D01*
X136802666Y-105523380D02*
X136755047Y-105571000D01*
X136755047Y-105571000D02*
X136659809Y-105618619D01*
X136659809Y-105618619D02*
X136564571Y-105618619D01*
X136564571Y-105618619D02*
X136469333Y-105571000D01*
X136469333Y-105571000D02*
X136421714Y-105523380D01*
X136421714Y-105523380D02*
X136374095Y-105428142D01*
X136374095Y-105428142D02*
X136326476Y-105237666D01*
X136326476Y-105237666D02*
X136326476Y-104999571D01*
X136326476Y-104999571D02*
X136374095Y-104809095D01*
X136374095Y-104809095D02*
X136421714Y-104713857D01*
X136421714Y-104713857D02*
X136469333Y-104666238D01*
X136469333Y-104666238D02*
X136564571Y-104618619D01*
%TO.C,L1*%
X112433333Y-88600619D02*
X111957143Y-88600619D01*
X111957143Y-88600619D02*
X111957143Y-87600619D01*
X113290476Y-88600619D02*
X112719048Y-88600619D01*
X113004762Y-88600619D02*
X113004762Y-87600619D01*
X113004762Y-87600619D02*
X112909524Y-87743476D01*
X112909524Y-87743476D02*
X112814286Y-87838714D01*
X112814286Y-87838714D02*
X112719048Y-87886333D01*
%TO.C,C8*%
X133958333Y-103745380D02*
X133910714Y-103793000D01*
X133910714Y-103793000D02*
X133767857Y-103840619D01*
X133767857Y-103840619D02*
X133672619Y-103840619D01*
X133672619Y-103840619D02*
X133529762Y-103793000D01*
X133529762Y-103793000D02*
X133434524Y-103697761D01*
X133434524Y-103697761D02*
X133386905Y-103602523D01*
X133386905Y-103602523D02*
X133339286Y-103412047D01*
X133339286Y-103412047D02*
X133339286Y-103269190D01*
X133339286Y-103269190D02*
X133386905Y-103078714D01*
X133386905Y-103078714D02*
X133434524Y-102983476D01*
X133434524Y-102983476D02*
X133529762Y-102888238D01*
X133529762Y-102888238D02*
X133672619Y-102840619D01*
X133672619Y-102840619D02*
X133767857Y-102840619D01*
X133767857Y-102840619D02*
X133910714Y-102888238D01*
X133910714Y-102888238D02*
X133958333Y-102935857D01*
X134529762Y-103269190D02*
X134434524Y-103221571D01*
X134434524Y-103221571D02*
X134386905Y-103173952D01*
X134386905Y-103173952D02*
X134339286Y-103078714D01*
X134339286Y-103078714D02*
X134339286Y-103031095D01*
X134339286Y-103031095D02*
X134386905Y-102935857D01*
X134386905Y-102935857D02*
X134434524Y-102888238D01*
X134434524Y-102888238D02*
X134529762Y-102840619D01*
X134529762Y-102840619D02*
X134720238Y-102840619D01*
X134720238Y-102840619D02*
X134815476Y-102888238D01*
X134815476Y-102888238D02*
X134863095Y-102935857D01*
X134863095Y-102935857D02*
X134910714Y-103031095D01*
X134910714Y-103031095D02*
X134910714Y-103078714D01*
X134910714Y-103078714D02*
X134863095Y-103173952D01*
X134863095Y-103173952D02*
X134815476Y-103221571D01*
X134815476Y-103221571D02*
X134720238Y-103269190D01*
X134720238Y-103269190D02*
X134529762Y-103269190D01*
X134529762Y-103269190D02*
X134434524Y-103316809D01*
X134434524Y-103316809D02*
X134386905Y-103364428D01*
X134386905Y-103364428D02*
X134339286Y-103459666D01*
X134339286Y-103459666D02*
X134339286Y-103650142D01*
X134339286Y-103650142D02*
X134386905Y-103745380D01*
X134386905Y-103745380D02*
X134434524Y-103793000D01*
X134434524Y-103793000D02*
X134529762Y-103840619D01*
X134529762Y-103840619D02*
X134720238Y-103840619D01*
X134720238Y-103840619D02*
X134815476Y-103793000D01*
X134815476Y-103793000D02*
X134863095Y-103745380D01*
X134863095Y-103745380D02*
X134910714Y-103650142D01*
X134910714Y-103650142D02*
X134910714Y-103459666D01*
X134910714Y-103459666D02*
X134863095Y-103364428D01*
X134863095Y-103364428D02*
X134815476Y-103316809D01*
X134815476Y-103316809D02*
X134720238Y-103269190D01*
%TO.C,H3*%
X164000000Y-52262619D02*
X164000000Y-51262619D01*
X164000000Y-51738809D02*
X164571428Y-51738809D01*
X164571428Y-52262619D02*
X164571428Y-51262619D01*
X164904762Y-51595952D02*
X165285714Y-51595952D01*
X165047619Y-51262619D02*
X165047619Y-52119761D01*
X165047619Y-52119761D02*
X165095238Y-52215000D01*
X165095238Y-52215000D02*
X165190476Y-52262619D01*
X165190476Y-52262619D02*
X165285714Y-52262619D01*
X165619048Y-52262619D02*
X165619048Y-51595952D01*
X165619048Y-51786428D02*
X165666667Y-51691190D01*
X165666667Y-51691190D02*
X165714286Y-51643571D01*
X165714286Y-51643571D02*
X165809524Y-51595952D01*
X165809524Y-51595952D02*
X165904762Y-51595952D01*
X166238096Y-51881666D02*
X167000001Y-51881666D01*
X166619048Y-52262619D02*
X166619048Y-51500714D01*
%TO.C,R3*%
X116297333Y-85235619D02*
X115964000Y-84759428D01*
X115725905Y-85235619D02*
X115725905Y-84235619D01*
X115725905Y-84235619D02*
X116106857Y-84235619D01*
X116106857Y-84235619D02*
X116202095Y-84283238D01*
X116202095Y-84283238D02*
X116249714Y-84330857D01*
X116249714Y-84330857D02*
X116297333Y-84426095D01*
X116297333Y-84426095D02*
X116297333Y-84568952D01*
X116297333Y-84568952D02*
X116249714Y-84664190D01*
X116249714Y-84664190D02*
X116202095Y-84711809D01*
X116202095Y-84711809D02*
X116106857Y-84759428D01*
X116106857Y-84759428D02*
X115725905Y-84759428D01*
X116630667Y-84235619D02*
X117249714Y-84235619D01*
X117249714Y-84235619D02*
X116916381Y-84616571D01*
X116916381Y-84616571D02*
X117059238Y-84616571D01*
X117059238Y-84616571D02*
X117154476Y-84664190D01*
X117154476Y-84664190D02*
X117202095Y-84711809D01*
X117202095Y-84711809D02*
X117249714Y-84807047D01*
X117249714Y-84807047D02*
X117249714Y-85045142D01*
X117249714Y-85045142D02*
X117202095Y-85140380D01*
X117202095Y-85140380D02*
X117154476Y-85188000D01*
X117154476Y-85188000D02*
X117059238Y-85235619D01*
X117059238Y-85235619D02*
X116773524Y-85235619D01*
X116773524Y-85235619D02*
X116678286Y-85188000D01*
X116678286Y-85188000D02*
X116630667Y-85140380D01*
%TO.C,J1*%
X165666666Y-74762619D02*
X165666666Y-75476904D01*
X165666666Y-75476904D02*
X165619047Y-75619761D01*
X165619047Y-75619761D02*
X165523809Y-75715000D01*
X165523809Y-75715000D02*
X165380952Y-75762619D01*
X165380952Y-75762619D02*
X165285714Y-75762619D01*
X166666666Y-75762619D02*
X166095238Y-75762619D01*
X166380952Y-75762619D02*
X166380952Y-74762619D01*
X166380952Y-74762619D02*
X166285714Y-74905476D01*
X166285714Y-74905476D02*
X166190476Y-75000714D01*
X166190476Y-75000714D02*
X166095238Y-75048333D01*
%TO.C,C3*%
X155155333Y-85457380D02*
X155107714Y-85505000D01*
X155107714Y-85505000D02*
X154964857Y-85552619D01*
X154964857Y-85552619D02*
X154869619Y-85552619D01*
X154869619Y-85552619D02*
X154726762Y-85505000D01*
X154726762Y-85505000D02*
X154631524Y-85409761D01*
X154631524Y-85409761D02*
X154583905Y-85314523D01*
X154583905Y-85314523D02*
X154536286Y-85124047D01*
X154536286Y-85124047D02*
X154536286Y-84981190D01*
X154536286Y-84981190D02*
X154583905Y-84790714D01*
X154583905Y-84790714D02*
X154631524Y-84695476D01*
X154631524Y-84695476D02*
X154726762Y-84600238D01*
X154726762Y-84600238D02*
X154869619Y-84552619D01*
X154869619Y-84552619D02*
X154964857Y-84552619D01*
X154964857Y-84552619D02*
X155107714Y-84600238D01*
X155107714Y-84600238D02*
X155155333Y-84647857D01*
X155488667Y-84552619D02*
X156107714Y-84552619D01*
X156107714Y-84552619D02*
X155774381Y-84933571D01*
X155774381Y-84933571D02*
X155917238Y-84933571D01*
X155917238Y-84933571D02*
X156012476Y-84981190D01*
X156012476Y-84981190D02*
X156060095Y-85028809D01*
X156060095Y-85028809D02*
X156107714Y-85124047D01*
X156107714Y-85124047D02*
X156107714Y-85362142D01*
X156107714Y-85362142D02*
X156060095Y-85457380D01*
X156060095Y-85457380D02*
X156012476Y-85505000D01*
X156012476Y-85505000D02*
X155917238Y-85552619D01*
X155917238Y-85552619D02*
X155631524Y-85552619D01*
X155631524Y-85552619D02*
X155536286Y-85505000D01*
X155536286Y-85505000D02*
X155488667Y-85457380D01*
%TO.C,C5*%
X148805333Y-80471380D02*
X148757714Y-80519000D01*
X148757714Y-80519000D02*
X148614857Y-80566619D01*
X148614857Y-80566619D02*
X148519619Y-80566619D01*
X148519619Y-80566619D02*
X148376762Y-80519000D01*
X148376762Y-80519000D02*
X148281524Y-80423761D01*
X148281524Y-80423761D02*
X148233905Y-80328523D01*
X148233905Y-80328523D02*
X148186286Y-80138047D01*
X148186286Y-80138047D02*
X148186286Y-79995190D01*
X148186286Y-79995190D02*
X148233905Y-79804714D01*
X148233905Y-79804714D02*
X148281524Y-79709476D01*
X148281524Y-79709476D02*
X148376762Y-79614238D01*
X148376762Y-79614238D02*
X148519619Y-79566619D01*
X148519619Y-79566619D02*
X148614857Y-79566619D01*
X148614857Y-79566619D02*
X148757714Y-79614238D01*
X148757714Y-79614238D02*
X148805333Y-79661857D01*
X149710095Y-79566619D02*
X149233905Y-79566619D01*
X149233905Y-79566619D02*
X149186286Y-80042809D01*
X149186286Y-80042809D02*
X149233905Y-79995190D01*
X149233905Y-79995190D02*
X149329143Y-79947571D01*
X149329143Y-79947571D02*
X149567238Y-79947571D01*
X149567238Y-79947571D02*
X149662476Y-79995190D01*
X149662476Y-79995190D02*
X149710095Y-80042809D01*
X149710095Y-80042809D02*
X149757714Y-80138047D01*
X149757714Y-80138047D02*
X149757714Y-80376142D01*
X149757714Y-80376142D02*
X149710095Y-80471380D01*
X149710095Y-80471380D02*
X149662476Y-80519000D01*
X149662476Y-80519000D02*
X149567238Y-80566619D01*
X149567238Y-80566619D02*
X149329143Y-80566619D01*
X149329143Y-80566619D02*
X149233905Y-80519000D01*
X149233905Y-80519000D02*
X149186286Y-80471380D01*
%TO.C,C1*%
X99511333Y-73011380D02*
X99463714Y-73059000D01*
X99463714Y-73059000D02*
X99320857Y-73106619D01*
X99320857Y-73106619D02*
X99225619Y-73106619D01*
X99225619Y-73106619D02*
X99082762Y-73059000D01*
X99082762Y-73059000D02*
X98987524Y-72963761D01*
X98987524Y-72963761D02*
X98939905Y-72868523D01*
X98939905Y-72868523D02*
X98892286Y-72678047D01*
X98892286Y-72678047D02*
X98892286Y-72535190D01*
X98892286Y-72535190D02*
X98939905Y-72344714D01*
X98939905Y-72344714D02*
X98987524Y-72249476D01*
X98987524Y-72249476D02*
X99082762Y-72154238D01*
X99082762Y-72154238D02*
X99225619Y-72106619D01*
X99225619Y-72106619D02*
X99320857Y-72106619D01*
X99320857Y-72106619D02*
X99463714Y-72154238D01*
X99463714Y-72154238D02*
X99511333Y-72201857D01*
X100463714Y-73106619D02*
X99892286Y-73106619D01*
X100178000Y-73106619D02*
X100178000Y-72106619D01*
X100178000Y-72106619D02*
X100082762Y-72249476D01*
X100082762Y-72249476D02*
X99987524Y-72344714D01*
X99987524Y-72344714D02*
X99892286Y-72392333D01*
%TO.C,R2*%
X155155333Y-83012619D02*
X154822000Y-82536428D01*
X154583905Y-83012619D02*
X154583905Y-82012619D01*
X154583905Y-82012619D02*
X154964857Y-82012619D01*
X154964857Y-82012619D02*
X155060095Y-82060238D01*
X155060095Y-82060238D02*
X155107714Y-82107857D01*
X155107714Y-82107857D02*
X155155333Y-82203095D01*
X155155333Y-82203095D02*
X155155333Y-82345952D01*
X155155333Y-82345952D02*
X155107714Y-82441190D01*
X155107714Y-82441190D02*
X155060095Y-82488809D01*
X155060095Y-82488809D02*
X154964857Y-82536428D01*
X154964857Y-82536428D02*
X154583905Y-82536428D01*
X155536286Y-82107857D02*
X155583905Y-82060238D01*
X155583905Y-82060238D02*
X155679143Y-82012619D01*
X155679143Y-82012619D02*
X155917238Y-82012619D01*
X155917238Y-82012619D02*
X156012476Y-82060238D01*
X156012476Y-82060238D02*
X156060095Y-82107857D01*
X156060095Y-82107857D02*
X156107714Y-82203095D01*
X156107714Y-82203095D02*
X156107714Y-82298333D01*
X156107714Y-82298333D02*
X156060095Y-82441190D01*
X156060095Y-82441190D02*
X155488667Y-83012619D01*
X155488667Y-83012619D02*
X156107714Y-83012619D01*
%TO.C,U1*%
X148238095Y-87608619D02*
X148238095Y-88418142D01*
X148238095Y-88418142D02*
X148285714Y-88513380D01*
X148285714Y-88513380D02*
X148333333Y-88561000D01*
X148333333Y-88561000D02*
X148428571Y-88608619D01*
X148428571Y-88608619D02*
X148619047Y-88608619D01*
X148619047Y-88608619D02*
X148714285Y-88561000D01*
X148714285Y-88561000D02*
X148761904Y-88513380D01*
X148761904Y-88513380D02*
X148809523Y-88418142D01*
X148809523Y-88418142D02*
X148809523Y-87608619D01*
X149809523Y-88608619D02*
X149238095Y-88608619D01*
X149523809Y-88608619D02*
X149523809Y-87608619D01*
X149523809Y-87608619D02*
X149428571Y-87751476D01*
X149428571Y-87751476D02*
X149333333Y-87846714D01*
X149333333Y-87846714D02*
X149238095Y-87894333D01*
%TO.C,R5*%
X115911333Y-93680619D02*
X115578000Y-93204428D01*
X115339905Y-93680619D02*
X115339905Y-92680619D01*
X115339905Y-92680619D02*
X115720857Y-92680619D01*
X115720857Y-92680619D02*
X115816095Y-92728238D01*
X115816095Y-92728238D02*
X115863714Y-92775857D01*
X115863714Y-92775857D02*
X115911333Y-92871095D01*
X115911333Y-92871095D02*
X115911333Y-93013952D01*
X115911333Y-93013952D02*
X115863714Y-93109190D01*
X115863714Y-93109190D02*
X115816095Y-93156809D01*
X115816095Y-93156809D02*
X115720857Y-93204428D01*
X115720857Y-93204428D02*
X115339905Y-93204428D01*
X116816095Y-92680619D02*
X116339905Y-92680619D01*
X116339905Y-92680619D02*
X116292286Y-93156809D01*
X116292286Y-93156809D02*
X116339905Y-93109190D01*
X116339905Y-93109190D02*
X116435143Y-93061571D01*
X116435143Y-93061571D02*
X116673238Y-93061571D01*
X116673238Y-93061571D02*
X116768476Y-93109190D01*
X116768476Y-93109190D02*
X116816095Y-93156809D01*
X116816095Y-93156809D02*
X116863714Y-93252047D01*
X116863714Y-93252047D02*
X116863714Y-93490142D01*
X116863714Y-93490142D02*
X116816095Y-93585380D01*
X116816095Y-93585380D02*
X116768476Y-93633000D01*
X116768476Y-93633000D02*
X116673238Y-93680619D01*
X116673238Y-93680619D02*
X116435143Y-93680619D01*
X116435143Y-93680619D02*
X116339905Y-93633000D01*
X116339905Y-93633000D02*
X116292286Y-93585380D01*
%TO.C,C7*%
X124801333Y-82155380D02*
X124753714Y-82203000D01*
X124753714Y-82203000D02*
X124610857Y-82250619D01*
X124610857Y-82250619D02*
X124515619Y-82250619D01*
X124515619Y-82250619D02*
X124372762Y-82203000D01*
X124372762Y-82203000D02*
X124277524Y-82107761D01*
X124277524Y-82107761D02*
X124229905Y-82012523D01*
X124229905Y-82012523D02*
X124182286Y-81822047D01*
X124182286Y-81822047D02*
X124182286Y-81679190D01*
X124182286Y-81679190D02*
X124229905Y-81488714D01*
X124229905Y-81488714D02*
X124277524Y-81393476D01*
X124277524Y-81393476D02*
X124372762Y-81298238D01*
X124372762Y-81298238D02*
X124515619Y-81250619D01*
X124515619Y-81250619D02*
X124610857Y-81250619D01*
X124610857Y-81250619D02*
X124753714Y-81298238D01*
X124753714Y-81298238D02*
X124801333Y-81345857D01*
X125134667Y-81250619D02*
X125801333Y-81250619D01*
X125801333Y-81250619D02*
X125372762Y-82250619D01*
%TO.C,C9*%
X142433333Y-76367380D02*
X142385714Y-76415000D01*
X142385714Y-76415000D02*
X142242857Y-76462619D01*
X142242857Y-76462619D02*
X142147619Y-76462619D01*
X142147619Y-76462619D02*
X142004762Y-76415000D01*
X142004762Y-76415000D02*
X141909524Y-76319761D01*
X141909524Y-76319761D02*
X141861905Y-76224523D01*
X141861905Y-76224523D02*
X141814286Y-76034047D01*
X141814286Y-76034047D02*
X141814286Y-75891190D01*
X141814286Y-75891190D02*
X141861905Y-75700714D01*
X141861905Y-75700714D02*
X141909524Y-75605476D01*
X141909524Y-75605476D02*
X142004762Y-75510238D01*
X142004762Y-75510238D02*
X142147619Y-75462619D01*
X142147619Y-75462619D02*
X142242857Y-75462619D01*
X142242857Y-75462619D02*
X142385714Y-75510238D01*
X142385714Y-75510238D02*
X142433333Y-75557857D01*
X142909524Y-76462619D02*
X143100000Y-76462619D01*
X143100000Y-76462619D02*
X143195238Y-76415000D01*
X143195238Y-76415000D02*
X143242857Y-76367380D01*
X143242857Y-76367380D02*
X143338095Y-76224523D01*
X143338095Y-76224523D02*
X143385714Y-76034047D01*
X143385714Y-76034047D02*
X143385714Y-75653095D01*
X143385714Y-75653095D02*
X143338095Y-75557857D01*
X143338095Y-75557857D02*
X143290476Y-75510238D01*
X143290476Y-75510238D02*
X143195238Y-75462619D01*
X143195238Y-75462619D02*
X143004762Y-75462619D01*
X143004762Y-75462619D02*
X142909524Y-75510238D01*
X142909524Y-75510238D02*
X142861905Y-75557857D01*
X142861905Y-75557857D02*
X142814286Y-75653095D01*
X142814286Y-75653095D02*
X142814286Y-75891190D01*
X142814286Y-75891190D02*
X142861905Y-75986428D01*
X142861905Y-75986428D02*
X142909524Y-76034047D01*
X142909524Y-76034047D02*
X143004762Y-76081666D01*
X143004762Y-76081666D02*
X143195238Y-76081666D01*
X143195238Y-76081666D02*
X143290476Y-76034047D01*
X143290476Y-76034047D02*
X143338095Y-75986428D01*
X143338095Y-75986428D02*
X143385714Y-75891190D01*
%TO.C,F1*%
X109140666Y-96162809D02*
X108807333Y-96162809D01*
X108807333Y-96686619D02*
X108807333Y-95686619D01*
X108807333Y-95686619D02*
X109283523Y-95686619D01*
X110188285Y-96686619D02*
X109616857Y-96686619D01*
X109902571Y-96686619D02*
X109902571Y-95686619D01*
X109902571Y-95686619D02*
X109807333Y-95829476D01*
X109807333Y-95829476D02*
X109712095Y-95924714D01*
X109712095Y-95924714D02*
X109616857Y-95972333D01*
%TO.C,Q2*%
X135364761Y-94560857D02*
X135269523Y-94513238D01*
X135269523Y-94513238D02*
X135174285Y-94418000D01*
X135174285Y-94418000D02*
X135031428Y-94275142D01*
X135031428Y-94275142D02*
X134936190Y-94227523D01*
X134936190Y-94227523D02*
X134840952Y-94227523D01*
X134888571Y-94465619D02*
X134793333Y-94418000D01*
X134793333Y-94418000D02*
X134698095Y-94322761D01*
X134698095Y-94322761D02*
X134650476Y-94132285D01*
X134650476Y-94132285D02*
X134650476Y-93798952D01*
X134650476Y-93798952D02*
X134698095Y-93608476D01*
X134698095Y-93608476D02*
X134793333Y-93513238D01*
X134793333Y-93513238D02*
X134888571Y-93465619D01*
X134888571Y-93465619D02*
X135079047Y-93465619D01*
X135079047Y-93465619D02*
X135174285Y-93513238D01*
X135174285Y-93513238D02*
X135269523Y-93608476D01*
X135269523Y-93608476D02*
X135317142Y-93798952D01*
X135317142Y-93798952D02*
X135317142Y-94132285D01*
X135317142Y-94132285D02*
X135269523Y-94322761D01*
X135269523Y-94322761D02*
X135174285Y-94418000D01*
X135174285Y-94418000D02*
X135079047Y-94465619D01*
X135079047Y-94465619D02*
X134888571Y-94465619D01*
X135698095Y-93560857D02*
X135745714Y-93513238D01*
X135745714Y-93513238D02*
X135840952Y-93465619D01*
X135840952Y-93465619D02*
X136079047Y-93465619D01*
X136079047Y-93465619D02*
X136174285Y-93513238D01*
X136174285Y-93513238D02*
X136221904Y-93560857D01*
X136221904Y-93560857D02*
X136269523Y-93656095D01*
X136269523Y-93656095D02*
X136269523Y-93751333D01*
X136269523Y-93751333D02*
X136221904Y-93894190D01*
X136221904Y-93894190D02*
X135650476Y-94465619D01*
X135650476Y-94465619D02*
X136269523Y-94465619D01*
%TO.C,J2*%
X135562619Y-48085333D02*
X136276904Y-48085333D01*
X136276904Y-48085333D02*
X136419761Y-48132952D01*
X136419761Y-48132952D02*
X136515000Y-48228190D01*
X136515000Y-48228190D02*
X136562619Y-48371047D01*
X136562619Y-48371047D02*
X136562619Y-48466285D01*
X135657857Y-47656761D02*
X135610238Y-47609142D01*
X135610238Y-47609142D02*
X135562619Y-47513904D01*
X135562619Y-47513904D02*
X135562619Y-47275809D01*
X135562619Y-47275809D02*
X135610238Y-47180571D01*
X135610238Y-47180571D02*
X135657857Y-47132952D01*
X135657857Y-47132952D02*
X135753095Y-47085333D01*
X135753095Y-47085333D02*
X135848333Y-47085333D01*
X135848333Y-47085333D02*
X135991190Y-47132952D01*
X135991190Y-47132952D02*
X136562619Y-47704380D01*
X136562619Y-47704380D02*
X136562619Y-47085333D01*
%TO.C,R11*%
X152265142Y-105954619D02*
X151931809Y-105478428D01*
X151693714Y-105954619D02*
X151693714Y-104954619D01*
X151693714Y-104954619D02*
X152074666Y-104954619D01*
X152074666Y-104954619D02*
X152169904Y-105002238D01*
X152169904Y-105002238D02*
X152217523Y-105049857D01*
X152217523Y-105049857D02*
X152265142Y-105145095D01*
X152265142Y-105145095D02*
X152265142Y-105287952D01*
X152265142Y-105287952D02*
X152217523Y-105383190D01*
X152217523Y-105383190D02*
X152169904Y-105430809D01*
X152169904Y-105430809D02*
X152074666Y-105478428D01*
X152074666Y-105478428D02*
X151693714Y-105478428D01*
X153217523Y-105954619D02*
X152646095Y-105954619D01*
X152931809Y-105954619D02*
X152931809Y-104954619D01*
X152931809Y-104954619D02*
X152836571Y-105097476D01*
X152836571Y-105097476D02*
X152741333Y-105192714D01*
X152741333Y-105192714D02*
X152646095Y-105240333D01*
X154169904Y-105954619D02*
X153598476Y-105954619D01*
X153884190Y-105954619D02*
X153884190Y-104954619D01*
X153884190Y-104954619D02*
X153788952Y-105097476D01*
X153788952Y-105097476D02*
X153693714Y-105192714D01*
X153693714Y-105192714D02*
X153598476Y-105240333D01*
%TO.C,R12*%
X152265142Y-98962619D02*
X151931809Y-98486428D01*
X151693714Y-98962619D02*
X151693714Y-97962619D01*
X151693714Y-97962619D02*
X152074666Y-97962619D01*
X152074666Y-97962619D02*
X152169904Y-98010238D01*
X152169904Y-98010238D02*
X152217523Y-98057857D01*
X152217523Y-98057857D02*
X152265142Y-98153095D01*
X152265142Y-98153095D02*
X152265142Y-98295952D01*
X152265142Y-98295952D02*
X152217523Y-98391190D01*
X152217523Y-98391190D02*
X152169904Y-98438809D01*
X152169904Y-98438809D02*
X152074666Y-98486428D01*
X152074666Y-98486428D02*
X151693714Y-98486428D01*
X153217523Y-98962619D02*
X152646095Y-98962619D01*
X152931809Y-98962619D02*
X152931809Y-97962619D01*
X152931809Y-97962619D02*
X152836571Y-98105476D01*
X152836571Y-98105476D02*
X152741333Y-98200714D01*
X152741333Y-98200714D02*
X152646095Y-98248333D01*
X153598476Y-98057857D02*
X153646095Y-98010238D01*
X153646095Y-98010238D02*
X153741333Y-97962619D01*
X153741333Y-97962619D02*
X153979428Y-97962619D01*
X153979428Y-97962619D02*
X154074666Y-98010238D01*
X154074666Y-98010238D02*
X154122285Y-98057857D01*
X154122285Y-98057857D02*
X154169904Y-98153095D01*
X154169904Y-98153095D02*
X154169904Y-98248333D01*
X154169904Y-98248333D02*
X154122285Y-98391190D01*
X154122285Y-98391190D02*
X153550857Y-98962619D01*
X153550857Y-98962619D02*
X154169904Y-98962619D01*
%TO.C,D1*%
X124737905Y-99014619D02*
X124737905Y-98014619D01*
X124737905Y-98014619D02*
X124976000Y-98014619D01*
X124976000Y-98014619D02*
X125118857Y-98062238D01*
X125118857Y-98062238D02*
X125214095Y-98157476D01*
X125214095Y-98157476D02*
X125261714Y-98252714D01*
X125261714Y-98252714D02*
X125309333Y-98443190D01*
X125309333Y-98443190D02*
X125309333Y-98586047D01*
X125309333Y-98586047D02*
X125261714Y-98776523D01*
X125261714Y-98776523D02*
X125214095Y-98871761D01*
X125214095Y-98871761D02*
X125118857Y-98967000D01*
X125118857Y-98967000D02*
X124976000Y-99014619D01*
X124976000Y-99014619D02*
X124737905Y-99014619D01*
X126261714Y-99014619D02*
X125690286Y-99014619D01*
X125976000Y-99014619D02*
X125976000Y-98014619D01*
X125976000Y-98014619D02*
X125880762Y-98157476D01*
X125880762Y-98157476D02*
X125785524Y-98252714D01*
X125785524Y-98252714D02*
X125690286Y-98300333D01*
%TO.C,C4*%
X155155333Y-87235380D02*
X155107714Y-87283000D01*
X155107714Y-87283000D02*
X154964857Y-87330619D01*
X154964857Y-87330619D02*
X154869619Y-87330619D01*
X154869619Y-87330619D02*
X154726762Y-87283000D01*
X154726762Y-87283000D02*
X154631524Y-87187761D01*
X154631524Y-87187761D02*
X154583905Y-87092523D01*
X154583905Y-87092523D02*
X154536286Y-86902047D01*
X154536286Y-86902047D02*
X154536286Y-86759190D01*
X154536286Y-86759190D02*
X154583905Y-86568714D01*
X154583905Y-86568714D02*
X154631524Y-86473476D01*
X154631524Y-86473476D02*
X154726762Y-86378238D01*
X154726762Y-86378238D02*
X154869619Y-86330619D01*
X154869619Y-86330619D02*
X154964857Y-86330619D01*
X154964857Y-86330619D02*
X155107714Y-86378238D01*
X155107714Y-86378238D02*
X155155333Y-86425857D01*
X156012476Y-86663952D02*
X156012476Y-87330619D01*
X155774381Y-86283000D02*
X155536286Y-86997285D01*
X155536286Y-86997285D02*
X156155333Y-86997285D01*
%TO.C,D3*%
X124991905Y-79202619D02*
X124991905Y-78202619D01*
X124991905Y-78202619D02*
X125230000Y-78202619D01*
X125230000Y-78202619D02*
X125372857Y-78250238D01*
X125372857Y-78250238D02*
X125468095Y-78345476D01*
X125468095Y-78345476D02*
X125515714Y-78440714D01*
X125515714Y-78440714D02*
X125563333Y-78631190D01*
X125563333Y-78631190D02*
X125563333Y-78774047D01*
X125563333Y-78774047D02*
X125515714Y-78964523D01*
X125515714Y-78964523D02*
X125468095Y-79059761D01*
X125468095Y-79059761D02*
X125372857Y-79155000D01*
X125372857Y-79155000D02*
X125230000Y-79202619D01*
X125230000Y-79202619D02*
X124991905Y-79202619D01*
X125896667Y-78202619D02*
X126515714Y-78202619D01*
X126515714Y-78202619D02*
X126182381Y-78583571D01*
X126182381Y-78583571D02*
X126325238Y-78583571D01*
X126325238Y-78583571D02*
X126420476Y-78631190D01*
X126420476Y-78631190D02*
X126468095Y-78678809D01*
X126468095Y-78678809D02*
X126515714Y-78774047D01*
X126515714Y-78774047D02*
X126515714Y-79012142D01*
X126515714Y-79012142D02*
X126468095Y-79107380D01*
X126468095Y-79107380D02*
X126420476Y-79155000D01*
X126420476Y-79155000D02*
X126325238Y-79202619D01*
X126325238Y-79202619D02*
X126039524Y-79202619D01*
X126039524Y-79202619D02*
X125944286Y-79155000D01*
X125944286Y-79155000D02*
X125896667Y-79107380D01*
%TO.C,H4*%
X164000000Y-103762619D02*
X164000000Y-102762619D01*
X164000000Y-103238809D02*
X164571428Y-103238809D01*
X164571428Y-103762619D02*
X164571428Y-102762619D01*
X164904762Y-103095952D02*
X165285714Y-103095952D01*
X165047619Y-102762619D02*
X165047619Y-103619761D01*
X165047619Y-103619761D02*
X165095238Y-103715000D01*
X165095238Y-103715000D02*
X165190476Y-103762619D01*
X165190476Y-103762619D02*
X165285714Y-103762619D01*
X165619048Y-103762619D02*
X165619048Y-103095952D01*
X165619048Y-103286428D02*
X165666667Y-103191190D01*
X165666667Y-103191190D02*
X165714286Y-103143571D01*
X165714286Y-103143571D02*
X165809524Y-103095952D01*
X165809524Y-103095952D02*
X165904762Y-103095952D01*
X166238096Y-103381666D02*
X167000001Y-103381666D01*
%TO.C,U4*%
X121666095Y-91696619D02*
X121666095Y-92506142D01*
X121666095Y-92506142D02*
X121713714Y-92601380D01*
X121713714Y-92601380D02*
X121761333Y-92649000D01*
X121761333Y-92649000D02*
X121856571Y-92696619D01*
X121856571Y-92696619D02*
X122047047Y-92696619D01*
X122047047Y-92696619D02*
X122142285Y-92649000D01*
X122142285Y-92649000D02*
X122189904Y-92601380D01*
X122189904Y-92601380D02*
X122237523Y-92506142D01*
X122237523Y-92506142D02*
X122237523Y-91696619D01*
X123142285Y-92029952D02*
X123142285Y-92696619D01*
X122904190Y-91649000D02*
X122666095Y-92363285D01*
X122666095Y-92363285D02*
X123285142Y-92363285D01*
D12*
%TO.C,R1*%
X152481742Y-80249500D02*
X152956258Y-80249500D01*
X152481742Y-81294500D02*
X152956258Y-81294500D01*
%TO.C,C2*%
X99058000Y-79388580D02*
X99058000Y-79107420D01*
X100078000Y-79388580D02*
X100078000Y-79107420D01*
%TO.C,R4*%
X120288500Y-84535742D02*
X120288500Y-85010258D01*
X119243500Y-84535742D02*
X119243500Y-85010258D01*
%TO.C,R6*%
X118380742Y-91171500D02*
X118855258Y-91171500D01*
X118380742Y-92216500D02*
X118855258Y-92216500D01*
%TO.C,R13*%
X150200000Y-93800000D02*
X143800000Y-93800000D01*
X150200000Y-89200000D02*
X143800000Y-89200000D01*
%TO.C,R9*%
X128284500Y-97552742D02*
X128284500Y-98027258D01*
X127239500Y-97552742D02*
X127239500Y-98027258D01*
%TO.C,Q1*%
X120244000Y-88250500D02*
X120244000Y-86575500D01*
X120244000Y-88250500D02*
X120244000Y-88900500D01*
X117124000Y-88250500D02*
X117124000Y-87600500D01*
X117124000Y-88250500D02*
X117124000Y-88900500D01*
%TO.C,R8*%
X119142742Y-81265500D02*
X119617258Y-81265500D01*
X119142742Y-82310500D02*
X119617258Y-82310500D01*
%TO.C,12V1*%
X112956000Y-96790000D02*
X112956000Y-98090000D01*
X113256000Y-97090000D02*
X115256000Y-97090000D01*
X113256000Y-111590000D02*
X113256000Y-97090000D01*
X114656000Y-96790000D02*
X112956000Y-96790000D01*
X120456000Y-97090000D02*
X122456000Y-97090000D01*
X122456000Y-97090000D02*
X122456000Y-98390000D01*
X122456000Y-102990000D02*
X122456000Y-111590000D01*
X122456000Y-111590000D02*
X113256000Y-111590000D01*
D13*
%TO.C,L2*%
X107400000Y-49170000D02*
X107400000Y-67670000D01*
X112900000Y-49170000D02*
X107400000Y-49170000D01*
X112900000Y-67670000D02*
X107400000Y-67670000D01*
X128400000Y-49170000D02*
X133900000Y-49170000D01*
X133900000Y-67670000D02*
X128400000Y-67670000D01*
X133900000Y-67670000D02*
X133900000Y-49170000D01*
X116967328Y-48845052D02*
G75*
G03*
X124460000Y-48895001I3682672J-9574948D01*
G01*
D12*
%TO.C,U2*%
X143440000Y-85098000D02*
X143440000Y-86898000D01*
X143440000Y-85098000D02*
X143440000Y-84298000D01*
X146560000Y-85098000D02*
X146560000Y-85898000D01*
X146560000Y-85098000D02*
X146560000Y-84298000D01*
%TO.C,C6*%
X144513420Y-81024000D02*
X144794580Y-81024000D01*
X144513420Y-82044000D02*
X144794580Y-82044000D01*
%TO.C,R7*%
X127239500Y-94725258D02*
X127239500Y-94250742D01*
X128284500Y-94725258D02*
X128284500Y-94250742D01*
%TO.C,R10*%
X132825258Y-105678500D02*
X132350742Y-105678500D01*
X132825258Y-104633500D02*
X132350742Y-104633500D01*
%TO.C,L1*%
X99406000Y-94538000D02*
X102156000Y-94538000D01*
X108156000Y-94538000D02*
X110906000Y-94538000D01*
X98756000Y-93888000D02*
X98756000Y-82388000D01*
X111556000Y-82388000D02*
X111556000Y-93888000D01*
X99406000Y-81738000D02*
X102156000Y-81738000D01*
X108156000Y-81738000D02*
X110906000Y-81738000D01*
X98756000Y-93888000D02*
G75*
G03*
X99406000Y-94538000I650001J1D01*
G01*
X110906000Y-94538000D02*
G75*
G03*
X111556000Y-93888000I-1J650001D01*
G01*
X99406000Y-81738000D02*
G75*
G03*
X98756000Y-82388000I0J-650000D01*
G01*
X111556000Y-82388000D02*
G75*
G03*
X110906000Y-81738000I-650000J0D01*
G01*
%TO.C,C8*%
X131712580Y-103888000D02*
X131431420Y-103888000D01*
X131712580Y-102868000D02*
X131431420Y-102868000D01*
%TO.C,R3*%
X118764500Y-84535742D02*
X118764500Y-85010258D01*
X117719500Y-84535742D02*
X117719500Y-85010258D01*
%TO.C,J1*%
X168740000Y-76478000D02*
X167490000Y-76478000D01*
X168450000Y-76768000D02*
X162480000Y-76768000D01*
X162480000Y-76768000D02*
X162480000Y-91888000D01*
X168440000Y-76778000D02*
X167690000Y-76778000D01*
X167690000Y-76778000D02*
X167690000Y-78578000D01*
X166190000Y-76778000D02*
X166190000Y-77528000D01*
X166190000Y-77528000D02*
X163240000Y-77528000D01*
X163240000Y-77528000D02*
X163240000Y-84328000D01*
X168740000Y-77728000D02*
X168740000Y-76478000D01*
X168440000Y-78578000D02*
X168440000Y-76778000D01*
X167690000Y-78578000D02*
X168440000Y-78578000D01*
X168440000Y-80078000D02*
X167690000Y-80078000D01*
X167690000Y-80078000D02*
X167690000Y-88578000D01*
X168440000Y-88578000D02*
X168440000Y-80078000D01*
X167690000Y-88578000D02*
X168440000Y-88578000D01*
X168440000Y-90078000D02*
X167690000Y-90078000D01*
X167690000Y-90078000D02*
X167690000Y-91878000D01*
X166190000Y-91128000D02*
X163240000Y-91128000D01*
X163240000Y-91128000D02*
X163240000Y-84328000D01*
X168440000Y-91878000D02*
X168440000Y-90078000D01*
X167690000Y-91878000D02*
X168440000Y-91878000D01*
X166190000Y-91878000D02*
X166190000Y-91128000D01*
X168450000Y-91888000D02*
X168450000Y-76768000D01*
X162480000Y-91888000D02*
X168450000Y-91888000D01*
%TO.C,C3*%
X152922580Y-85600000D02*
X152641420Y-85600000D01*
X152922580Y-84580000D02*
X152641420Y-84580000D01*
%TO.C,C5*%
X148831420Y-81024000D02*
X149112580Y-81024000D01*
X148831420Y-82044000D02*
X149112580Y-82044000D01*
%TO.C,C1*%
X111120000Y-77694000D02*
X110120000Y-77694000D01*
X110620000Y-78194000D02*
X110620000Y-77194000D01*
X109880000Y-78479563D02*
X109880000Y-76694000D01*
X109880000Y-78479563D02*
X108815563Y-79544000D01*
X109880000Y-71888437D02*
X109880000Y-73674000D01*
X109880000Y-71888437D02*
X108815563Y-70824000D01*
X108815563Y-79544000D02*
X101160000Y-79544000D01*
X108815563Y-70824000D02*
X101160000Y-70824000D01*
X101160000Y-79544000D02*
X101160000Y-76694000D01*
X101160000Y-70824000D02*
X101160000Y-73674000D01*
%TO.C,R2*%
X152956258Y-83072500D02*
X152481742Y-83072500D01*
X152956258Y-82027500D02*
X152481742Y-82027500D01*
%TO.C,U1*%
X147440000Y-85098000D02*
X147440000Y-86898000D01*
X147440000Y-85098000D02*
X147440000Y-84298000D01*
X150560000Y-85098000D02*
X150560000Y-85898000D01*
X150560000Y-85098000D02*
X150560000Y-84298000D01*
%TO.C,R5*%
X118380742Y-92695500D02*
X118855258Y-92695500D01*
X118380742Y-93740500D02*
X118855258Y-93740500D01*
%TO.C,C7*%
X122190742Y-81265500D02*
X122665258Y-81265500D01*
X122190742Y-82310500D02*
X122665258Y-82310500D01*
%TO.C,C9*%
X139416000Y-70346000D02*
X139416000Y-71346000D01*
X139916000Y-70846000D02*
X138916000Y-70846000D01*
X140201563Y-71586000D02*
X138416000Y-71586000D01*
X140201563Y-71586000D02*
X141266000Y-72650437D01*
X133610437Y-71586000D02*
X135396000Y-71586000D01*
X133610437Y-71586000D02*
X132546000Y-72650437D01*
X141266000Y-72650437D02*
X141266000Y-80306000D01*
X132546000Y-72650437D02*
X132546000Y-80306000D01*
X141266000Y-80306000D02*
X138416000Y-80306000D01*
X132546000Y-80306000D02*
X135396000Y-80306000D01*
%TO.C,F1*%
X108746936Y-96944000D02*
X110201064Y-96944000D01*
X108746936Y-99144000D02*
X110201064Y-99144000D01*
%TO.C,Q2*%
X132150000Y-95053000D02*
X132150000Y-95323000D01*
X132150000Y-95323000D02*
X129320000Y-95323000D01*
X132150000Y-101683000D02*
X131050000Y-101683000D01*
X132150000Y-101953000D02*
X132150000Y-101683000D01*
X138570000Y-95053000D02*
X132150000Y-95053000D01*
X138570000Y-101953000D02*
X132150000Y-101953000D01*
%TO.C,J2*%
X137100000Y-49082000D02*
X137100000Y-47752000D01*
X138430000Y-49082000D02*
X137100000Y-49082000D01*
X139700000Y-49082000D02*
X142300000Y-49082000D01*
X139700000Y-49082000D02*
X139700000Y-46422000D01*
X142300000Y-49082000D02*
X142300000Y-46422000D01*
X139700000Y-46422000D02*
X142300000Y-46422000D01*
%TO.C,R11*%
X150200000Y-107800000D02*
X143800000Y-107800000D01*
X150200000Y-103200000D02*
X143800000Y-103200000D01*
%TO.C,R12*%
X150200000Y-100800000D02*
X143800000Y-100800000D01*
X150200000Y-96200000D02*
X143800000Y-96200000D01*
%TO.C,D1*%
X126476000Y-92890000D02*
X124476000Y-92890000D01*
X126476000Y-92890000D02*
X126476000Y-96900000D01*
X124476000Y-92890000D02*
X124476000Y-96900000D01*
%TO.C,C4*%
X152909580Y-87378000D02*
X152628420Y-87378000D01*
X152909580Y-86358000D02*
X152628420Y-86358000D01*
%TO.C,D3*%
X117394000Y-77090000D02*
X117394000Y-80390000D01*
X117394000Y-77090000D02*
X122904000Y-77090000D01*
X117394000Y-80390000D02*
X122904000Y-80390000D01*
%TO.C,U4*%
X121728000Y-95394000D02*
X123128000Y-95394000D01*
X123128000Y-93074000D02*
X121228000Y-93074000D01*
%TD*%
%LPC*%
D14*
%TO.C,R1*%
X151894000Y-80772000D03*
X153544000Y-80772000D03*
%TD*%
D15*
%TO.C,C2*%
X99568000Y-80023000D03*
X99568000Y-78473000D03*
%TD*%
D16*
%TO.C,R4*%
X119766000Y-83948000D03*
X119766000Y-85598000D03*
%TD*%
D14*
%TO.C,R6*%
X117793000Y-91694000D03*
X119443000Y-91694000D03*
%TD*%
D17*
%TO.C,R13*%
X150650000Y-91500000D03*
D18*
X150100000Y-92750000D03*
X150100000Y-90250000D03*
D19*
X149350000Y-91500000D03*
X144650000Y-91500000D03*
D18*
X143900000Y-92750000D03*
X143900000Y-90250000D03*
D17*
X143350000Y-91500000D03*
%TD*%
D16*
%TO.C,R9*%
X127762000Y-96965000D03*
X127762000Y-98615000D03*
%TD*%
D20*
%TO.C,Q1*%
X119634000Y-87313000D03*
X117734000Y-87313000D03*
X118684000Y-89188000D03*
%TD*%
D14*
%TO.C,R8*%
X118555000Y-81788000D03*
X120205000Y-81788000D03*
%TD*%
D21*
%TO.C,H2*%
X99100000Y-49500000D03*
X99802944Y-47802944D03*
X99802944Y-51197056D03*
X101500000Y-47100000D03*
D22*
X101500000Y-49500000D03*
D21*
X101500000Y-51900000D03*
X103197056Y-47802944D03*
X103197056Y-51197056D03*
X103900000Y-49500000D03*
%TD*%
D23*
%TO.C,12V1*%
X117856000Y-97790000D03*
D24*
X117856000Y-104090000D03*
D25*
X122656000Y-100690000D03*
%TD*%
D26*
%TO.C,L2*%
X115650000Y-71670000D03*
X125650000Y-71670000D03*
D27*
X120650000Y-50795000D03*
%TD*%
D28*
%TO.C,U2*%
X144050000Y-86235500D03*
X145000000Y-86235500D03*
X145950000Y-86235500D03*
X145950000Y-83960500D03*
X144050000Y-83960500D03*
%TD*%
D29*
%TO.C,C6*%
X143879000Y-81534000D03*
X145429000Y-81534000D03*
%TD*%
D30*
%TO.C,R7*%
X127762000Y-95313000D03*
X127762000Y-93663000D03*
%TD*%
D31*
%TO.C,R10*%
X133413000Y-105156000D03*
X131763000Y-105156000D03*
%TD*%
D32*
%TO.C,L1*%
X105156000Y-93188000D03*
X105156000Y-83088000D03*
%TD*%
D33*
%TO.C,C8*%
X132347000Y-103378000D03*
X130797000Y-103378000D03*
%TD*%
D21*
%TO.C,H3*%
X163100000Y-56500000D03*
X163802944Y-54802944D03*
X163802944Y-58197056D03*
X165500000Y-54100000D03*
D22*
X165500000Y-56500000D03*
D21*
X165500000Y-58900000D03*
X167197056Y-54802944D03*
X167197056Y-58197056D03*
X167900000Y-56500000D03*
%TD*%
D16*
%TO.C,R3*%
X118242000Y-83948000D03*
X118242000Y-85598000D03*
%TD*%
D34*
%TO.C,J1*%
X165990000Y-79328000D03*
D35*
X165990000Y-81828000D03*
X165990000Y-84328000D03*
X165990000Y-86828000D03*
X165990000Y-89328000D03*
%TD*%
D33*
%TO.C,C3*%
X153557000Y-85090000D03*
X152007000Y-85090000D03*
%TD*%
D29*
%TO.C,C5*%
X148197000Y-81534000D03*
X149747000Y-81534000D03*
%TD*%
D36*
%TO.C,C1*%
X109220000Y-75184000D03*
X101820000Y-75184000D03*
%TD*%
D31*
%TO.C,R2*%
X153544000Y-82550000D03*
X151894000Y-82550000D03*
%TD*%
D28*
%TO.C,U1*%
X148050000Y-86235500D03*
X149000000Y-86235500D03*
X149950000Y-86235500D03*
X149950000Y-83960500D03*
X148050000Y-83960500D03*
%TD*%
D14*
%TO.C,R5*%
X117793000Y-93218000D03*
X119443000Y-93218000D03*
%TD*%
%TO.C,C7*%
X121603000Y-81788000D03*
X123253000Y-81788000D03*
%TD*%
D37*
%TO.C,C9*%
X136906000Y-72246000D03*
X136906000Y-79646000D03*
%TD*%
D38*
%TO.C,F1*%
X107954000Y-98044000D03*
X110994000Y-98044000D03*
%TD*%
D39*
%TO.C,Q2*%
X130420000Y-96223000D03*
D40*
X136720000Y-98503000D03*
D39*
X130420000Y-100783000D03*
%TD*%
D41*
%TO.C,J2*%
X138430000Y-47752000D03*
D42*
X140970000Y-47752000D03*
%TD*%
D17*
%TO.C,R11*%
X150650000Y-105500000D03*
D18*
X150100000Y-106750000D03*
X150100000Y-104250000D03*
D19*
X149350000Y-105500000D03*
X144650000Y-105500000D03*
D18*
X143900000Y-106750000D03*
X143900000Y-104250000D03*
D17*
X143350000Y-105500000D03*
%TD*%
%TO.C,R12*%
X150650000Y-98500000D03*
D18*
X150100000Y-99750000D03*
X150100000Y-97250000D03*
D19*
X149350000Y-98500000D03*
X144650000Y-98500000D03*
D18*
X143900000Y-99750000D03*
X143900000Y-97250000D03*
D17*
X143350000Y-98500000D03*
%TD*%
D43*
%TO.C,D1*%
X125476000Y-93600000D03*
X125476000Y-96900000D03*
%TD*%
D33*
%TO.C,C4*%
X153544000Y-86868000D03*
X151994000Y-86868000D03*
%TD*%
D44*
%TO.C,D3*%
X118579000Y-78740000D03*
X123229000Y-78740000D03*
%TD*%
D21*
%TO.C,H1*%
X99100000Y-105500000D03*
X99802944Y-103802944D03*
X99802944Y-107197056D03*
X101500000Y-103100000D03*
D22*
X101500000Y-105500000D03*
D21*
X101500000Y-107900000D03*
X103197056Y-103802944D03*
X103197056Y-107197056D03*
X103900000Y-105500000D03*
%TD*%
%TO.C,H4*%
X163100000Y-98500000D03*
X163802944Y-96802944D03*
X163802944Y-100197056D03*
X165500000Y-96100000D03*
D22*
X165500000Y-98500000D03*
D21*
X165500000Y-100900000D03*
X167197056Y-96802944D03*
X167197056Y-100197056D03*
X167900000Y-98500000D03*
%TD*%
D45*
%TO.C,U4*%
X121478000Y-93584000D03*
X121478000Y-94234000D03*
X121478000Y-94884000D03*
X123378000Y-94884000D03*
X123378000Y-94234000D03*
X123378000Y-93584000D03*
%TD*%
M02*
